<svg version="1.1" xmlns="http://www.w3.org/2000/svg" viewBox="0 0 868.9467945423348 528.7664766241927" width="868.9467945423348" height="528.7664766241927" class="excalidraw-svg">
  <!-- svg-source:excalidraw -->
  
  <defs>
    <style class="style-fonts">
      @font-face {
        font-family: "Virgil";
        src: url("https://excalidraw.com/Virgil.woff2");
      }
      @font-face {
        font-family: "Cascadia";
        src: url("https://excalidraw.com/Cascadia.woff2");
      }
      @font-face {
        font-family: "Assistant";
        src: url("https://excalidraw.com/Assistant-Regular.woff2");
      }
    </style>
    
  </defs>
  <rect x="0" y="0" width="868.9467945423348" height="528.7664766241927" fill="#ffffff"/><g stroke-linecap="round" transform="translate(300.66211354233474 97.29695163832534) rotate(0 27.5 37.5)"><path d="M0 0 L55 0 L55 75 L0 75" stroke="none" stroke-width="0" fill="#b2f2bb"/><path d="M0 0 C19.23 0, 38.46 0, 55 0 M0 0 C17.86 0, 35.71 0, 55 0 M55 0 C55 25.21, 55 50.41, 55 75 M55 0 C55 17.83, 55 35.65, 55 75 M55 75 C40.37 75, 25.73 75, 0 75 M55 75 C33.36 75, 11.72 75, 0 75 M0 75 C0 48.58, 0 22.16, 0 0 M0 75 C0 59.26, 0 43.53, 0 0" stroke="#1e1e1e" stroke-width="2" fill="none"/></g><g stroke-linecap="round"><g transform="translate(300.66211354233474 152.29695163832534) rotate(0 -7.5 0)"><path d="M0 0 C-5.27 0, -10.54 0, -15 0 M0 0 C-3.46 0, -6.91 0, -15 0" stroke="#1e1e1e" stroke-width="2" fill="none"/></g></g><mask/><g stroke-linecap="round"><g transform="translate(300.66211354233474 122.29695163832534) rotate(0 5.5 -5)"><path d="M0 0 C3.26 -1.48, 6.52 -2.96, 11 -5 M0 0 C3.9 -1.77, 7.79 -3.54, 11 -5 M11 -5 C8.64 -6.07, 6.27 -7.15, 0 -10 M11 -5 C8.66 -6.06, 6.33 -7.12, 0 -10" stroke="#1e1e1e" stroke-width="2" fill="none"/></g></g><mask/><g stroke-linecap="round"><g transform="translate(383.66211354233474 152.29695163832534) rotate(0 -14 0)"><path d="M0 0 C-9.55 0, -19.1 0, -28 0 M0 0 C-10.06 0, -20.11 0, -28 0" stroke="#1e1e1e" stroke-width="2" fill="none"/></g></g><mask/><g stroke-linecap="round"><g transform="translate(300.66211354233474 117.29695163832534) rotate(0 -7.5 0)"><path d="M0 0 C-5.42 0, -10.83 0, -15 0 M0 0 C-5.15 0, -10.3 0, -15 0" stroke="#1e1e1e" stroke-width="2" fill="none"/></g></g><mask/><g stroke-linecap="round" transform="translate(398.66211354233474 97.29695163832534) rotate(0 27.5 37.5)"><path d="M0 0 L55 0 L55 75 L0 75" stroke="none" stroke-width="0" fill="#b2f2bb"/><path d="M0 0 C19.61 0, 39.22 0, 55 0 M0 0 C18.31 0, 36.62 0, 55 0 M55 0 C55 26.3, 55 52.6, 55 75 M55 0 C55 20.93, 55 41.85, 55 75 M55 75 C43.28 75, 31.57 75, 0 75 M55 75 C37.36 75, 19.72 75, 0 75 M0 75 C0 46.21, 0 17.43, 0 0 M0 75 C0 48.17, 0 21.34, 0 0" stroke="#1e1e1e" stroke-width="2" fill="none"/></g><g stroke-linecap="round"><g transform="translate(398.66211354233474 152.29695163832534) rotate(0 -7.5 0)"><path d="M0 0 C-3.88 0, -7.76 0, -15 0 M0 0 C-5.64 0, -11.29 0, -15 0" stroke="#1e1e1e" stroke-width="2" fill="none"/></g></g><mask/><g stroke-linecap="round"><g transform="translate(398.66211354233474 122.29695163832534) rotate(0 5.5 -5)"><path d="M0 0 C3.7 -1.68, 7.39 -3.36, 11 -5 M0 0 C2.61 -1.19, 5.23 -2.38, 11 -5 M11 -5 C8.07 -6.33, 5.15 -7.66, 0 -10 M11 -5 C6.67 -6.97, 2.34 -8.93, 0 -10" stroke="#1e1e1e" stroke-width="2" fill="none"/></g></g><mask/><g stroke-linecap="round"><g transform="translate(468.66211354233474 152.29695163832534) rotate(0 -7.5 0)"><path d="M0 0 C-3.01 0, -6.03 0, -15 0 M0 0 C-4.36 0, -8.72 0, -15 0" stroke="#1e1e1e" stroke-width="2" fill="none"/></g></g><mask/><g stroke-linecap="round"><g transform="translate(398.66211354233474 117.29695163832534) rotate(0 -7.5 0)"><path d="M0 0 C-3.22 0, -6.45 0, -15 0 M0 0 C-3.19 0, -6.37 0, -15 0" stroke="#1e1e1e" stroke-width="2" fill="none"/></g></g><mask/><g stroke-linecap="round" transform="translate(569.6621135423347 98.29695163832534) rotate(0 27 37)"><path d="M0 0 C16 0, 32.01 0, 54 0 M0 0 C14.96 0, 29.92 0, 54 0 M54 0 C54 23.58, 54 47.17, 54 74 M54 0 C54 18.6, 54 37.19, 54 74 M54 74 C36.39 74, 18.79 74, 0 74 M54 74 C34.55 74, 15.1 74, 0 74 M0 74 C0 45.89, 0 17.79, 0 0 M0 74 C0 52.42, 0 30.85, 0 0" stroke="#1e1e1e" stroke-width="2" fill="none"/></g><g stroke-linecap="round"><g transform="translate(569.6621135423347 152.29695163832534) rotate(0 -7.399999999999977 0)"><path d="M0 0 C-4.81 0, -9.63 0, -14.8 0 M0 0 C-3.69 0, -7.38 0, -14.8 0" stroke="#1e1e1e" stroke-width="2" fill="none"/></g></g><mask/><g stroke-linecap="round"><g transform="translate(569.6621135423347 123.29695163832534) rotate(0 5.4266666666666765 -4.933333333333337)"><path d="M0 0 C3.81 -1.73, 7.61 -3.46, 10.85 -4.93 M0 0 C3.03 -1.38, 6.06 -2.75, 10.85 -4.93 M10.85 -4.93 C8.54 -5.98, 6.23 -7.03, 0 -9.87 M10.85 -4.93 C7.37 -6.52, 3.89 -8.1, 0 -9.87" stroke="#1e1e1e" stroke-width="2" fill="none"/></g></g><mask/><g stroke-linecap="round"><g transform="translate(638.6621135423347 152.29695163832534) rotate(0 -7.399999999999977 0)"><path d="M0 0 C-5.86 0, -11.72 0, -14.8 0 M0 0 C-5.83 0, -11.65 0, -14.8 0" stroke="#1e1e1e" stroke-width="2" fill="none"/></g></g><mask/><g stroke-linecap="round"><g transform="translate(569.6621135423347 118.29695163832534) rotate(0 -7.399999999999977 0)"><path d="M0 0 C-3.94 0, -7.88 0, -14.8 0 M0 0 C-5.82 0, -11.65 0, -14.8 0" stroke="#1e1e1e" stroke-width="2" fill="none"/></g></g><mask/><g stroke-linecap="round"><g transform="translate(526.6621135423347 58.29695163832534) rotate(0 7.921543121337891 0)"><path d="M0 0 C5.59 0, 11.18 0, 15.84 0 M0 0 C5.45 0, 10.9 0, 15.84 0" stroke="#000" stroke-width="2" fill="none"/></g></g><mask/><g stroke-linecap="round"><g transform="translate(476.66211354233474 58.29695163832534) rotate(0 -12 0)"><path d="M0 0 C-5.81 0, -11.62 0, -24 0 M0 0 C-6.49 0, -12.97 0, -24 0" stroke="#000" stroke-width="2" fill="none"/></g></g><mask/><g stroke-linecap="round"><g transform="translate(475.66211354233474 36.29695163832534) rotate(0 20.882646461663285 22.40625)"><path d="M0 0 C0 14.28, 0 28.56, 0 44.81 M0 0 C0 11.26, 0 22.52, 0 44.81 M0 44.81 C0.68 44.47, 1.36 44.12, 2.09 43.75 M0 44.81 C0.75 44.43, 1.5 44.05, 2.09 43.75 M2.09 43.75 C17.16 36.15, 32.23 28.56, 41.77 23.75 M2.09 43.75 C13.66 37.92, 25.23 32.09, 41.77 23.75 M41.77 23.75 C41.77 22.87, 41.77 21.98, 41.77 21.06 M41.77 23.75 C41.77 22.68, 41.77 21.6, 41.77 21.06 M41.77 21.06 C31.73 16, 21.69 10.94, 2.09 1.06 M41.77 21.06 C27.54 13.89, 13.31 6.72, 2.09 1.06 M2.09 1.06 C1.45 0.74, 0.81 0.41, 0 0 M2.09 1.06 C1.62 0.82, 1.15 0.59, 0 0 M0 0 C0 0, 0 0, 0 0 M0 0 C0 0, 0 0, 0 0" stroke="#1e1e1e" stroke-width="2" fill="none"/></g></g><mask/><g stroke-linecap="round"><g transform="translate(525.6621135423347 58.29695163832534) rotate(0 -4 0)"><path d="M0 0 C0 0, 0 0, 0 0 M0 0 C0 0, 0 0, 0 0 M0 0 C-0.03 0.24, -0.06 0.47, -0.15 1.1 M0 0 C-0.05 0.38, -0.1 0.75, -0.15 1.1 M-0.15 1.1 C-0.28 1.39, -0.4 1.68, -0.56 2.06 M-0.15 1.1 C-0.26 1.34, -0.36 1.59, -0.56 2.06 M-0.56 2.06 C-0.75 2.29, -0.94 2.53, -1.2 2.86 M-0.56 2.06 C-0.77 2.32, -0.98 2.58, -1.2 2.86 M-1.2 2.86 C-1.42 3.02, -1.64 3.19, -2 3.46 M-1.2 2.86 C-1.39 3, -1.58 3.15, -2 3.46 M-2 3.46 C-2.19 3.55, -2.39 3.63, -2.93 3.86 M-2 3.46 C-2.34 3.61, -2.68 3.75, -2.93 3.86 M-2.93 3.86 C-3.32 3.91, -3.72 3.97, -3.94 4.01 M-2.93 3.86 C-3.32 3.91, -3.7 3.97, -3.94 4.01 M-3.94 4.01 C-4.24 3.97, -4.54 3.94, -4.98 3.88 M-3.94 4.01 C-4.33 3.96, -4.72 3.91, -4.98 3.88 M-4.98 3.88 C-5.36 3.73, -5.74 3.57, -6 3.46 M-4.98 3.88 C-5.24 3.78, -5.5 3.67, -6 3.46 M-6 3.46 C-6.31 3.23, -6.62 2.99, -6.83 2.82 M-6 3.46 C-6.19 3.31, -6.39 3.16, -6.83 2.82 M-6.83 2.82 C-7.04 2.56, -7.24 2.3, -7.46 2 M-6.83 2.82 C-7.01 2.59, -7.18 2.37, -7.46 2 M-7.46 2 C-7.62 1.63, -7.77 1.25, -7.86 1.04 M-7.46 2 C-7.61 1.65, -7.75 1.31, -7.86 1.04 M-7.86 1.04 C-7.91 0.69, -7.96 0.33, -8 0 M-7.86 1.04 C-7.91 0.7, -7.95 0.36, -8 0 M-8 0 C-7.94 -0.41, -7.89 -0.82, -7.85 -1.1 M-8 0 C-7.95 -0.37, -7.9 -0.75, -7.85 -1.1 M-7.85 -1.1 C-7.71 -1.43, -7.57 -1.76, -7.44 -2.06 M-7.85 -1.1 C-7.71 -1.42, -7.57 -1.75, -7.44 -2.06 M-7.44 -2.06 C-7.28 -2.25, -7.13 -2.45, -6.8 -2.86 M-7.44 -2.06 C-7.25 -2.3, -7.05 -2.54, -6.8 -2.86 M-6.8 -2.86 C-6.63 -2.99, -6.45 -3.12, -6 -3.46 M-6.8 -2.86 C-6.57 -3.03, -6.33 -3.21, -6 -3.46 M-6 -3.46 C-5.79 -3.55, -5.58 -3.64, -5.07 -3.86 M-6 -3.46 C-5.69 -3.59, -5.39 -3.72, -5.07 -3.86 M-5.07 -3.86 C-4.8 -3.9, -4.53 -3.94, -4.06 -4.01 M-5.07 -3.86 C-4.84 -3.89, -4.61 -3.92, -4.06 -4.01 M-4.06 -4.01 C-3.81 -3.98, -3.57 -3.95, -3.02 -3.88 M-4.06 -4.01 C-3.79 -3.97, -3.52 -3.94, -3.02 -3.88 M-3.02 -3.88 C-2.64 -3.73, -2.25 -3.57, -2 -3.46 M-3.02 -3.88 C-2.79 -3.79, -2.55 -3.69, -2 -3.46 M-2 -3.46 C-1.75 -3.27, -1.5 -3.08, -1.17 -2.82 M-2 -3.46 C-1.76 -3.28, -1.51 -3.09, -1.17 -2.82 M-1.17 -2.82 C-1.01 -2.62, -0.86 -2.43, -0.54 -2 M-1.17 -2.82 C-1.01 -2.62, -0.86 -2.43, -0.54 -2 M-0.54 -2 C-0.41 -1.7, -0.29 -1.4, -0.14 -1.04 M-0.54 -2 C-0.39 -1.66, -0.25 -1.31, -0.14 -1.04 M-0.14 -1.04 C-0.09 -0.69, -0.04 -0.33, 0 0 M-0.14 -1.04 C-0.1 -0.77, -0.07 -0.5, 0 0 M0 0 C0 0, 0 0, 0 0 M0 0 C0 0, 0 0, 0 0" stroke="#000" stroke-width="2" fill="none"/></g></g><mask/><g stroke-linecap="round"><g transform="translate(742.6621135423347 142.29695163832534) rotate(0 12.5 0)"><path d="M0 0 C5.33 0, 10.65 0, 25 0 M0 0 C8.02 0, 16.04 0, 25 0" stroke="#000" stroke-width="2" fill="none"/></g></g><mask/><g stroke-linecap="round"><g transform="translate(703.6621135423347 132.29695163832534) rotate(0 -13 0)"><path d="M0 0 C-6.67 0, -13.34 0, -26 0 M0 0 C-7.19 0, -14.39 0, -26 0" stroke="#000" stroke-width="2" fill="none"/></g></g><mask/><g stroke-linecap="round"><g transform="translate(704.6621135423347 152.29695163832534) rotate(0 -13.5 0)"><path d="M0 0 C-9.51 0, -19.02 0, -27 0 M0 0 C-5.67 0, -11.33 0, -27 0" stroke="#000" stroke-width="2" fill="none"/></g></g><mask/><g stroke-linecap="round"><g transform="translate(702.6621135423347 122.29695163832534) rotate(0 20.238094329833984 20)" fill-rule="evenodd"><path d="M0 0 L0 40 L20.48 40 L20.48 40 L22.56 39.9 L24.57 39.59 L26.51 39.1 L28.35 38.42 L30.11 37.58 L31.76 36.57 L34.7 34.12 L37.12 31.16 L38.94 27.77 L39.6 25.93 L40.08 24.02 L40.38 22.04 L40.48 20 L40.38 17.96 L40.08 15.98 L39.6 14.07 L38.94 12.23 L37.12 8.84 L34.7 5.88 L31.76 3.43 L30.11 2.42 L28.35 1.58 L26.51 0.9 L24.57 0.41 L22.56 0.1 L20.48 0 L0 0 L0 0" stroke="none" stroke-width="0" fill="black" fill-rule="evenodd"/><path d="M0 0 C0 15.13, 0 30.25, 0 40 M0 0 C0 10.87, 0 21.73, 0 40 M0 40 C7.75 40, 15.5 40, 20.48 40 M0 40 C7.74 40, 15.48 40, 20.48 40 M20.48 40 C20.48 40, 20.48 40, 20.48 40 M20.48 40 C20.48 40, 20.48 40, 20.48 40 M20.48 40 C20.95 39.98, 21.43 39.95, 22.56 39.9 M20.48 40 C21.29 39.96, 22.1 39.92, 22.56 39.9 M22.56 39.9 C23.22 39.8, 23.89 39.69, 24.57 39.59 M22.56 39.9 C23.2 39.8, 23.84 39.7, 24.57 39.59 M24.57 39.59 C25.34 39.39, 26.12 39.2, 26.51 39.1 M24.57 39.59 C25.32 39.4, 26.08 39.21, 26.51 39.1 M26.51 39.1 C26.97 38.93, 27.43 38.76, 28.35 38.42 M26.51 39.1 C26.98 38.92, 27.45 38.75, 28.35 38.42 M28.35 38.42 C28.86 38.18, 29.36 37.94, 30.11 37.58 M28.35 38.42 C28.95 38.14, 29.54 37.85, 30.11 37.58 M30.11 37.58 C30.69 37.22, 31.28 36.86, 31.76 36.57 M30.11 37.58 C30.55 37.31, 30.99 37.04, 31.76 36.57 M31.76 36.57 C32.88 35.64, 34 34.71, 34.7 34.12 M31.76 36.57 C32.8 35.71, 33.84 34.84, 34.7 34.12 M34.7 34.12 C35.22 33.49, 35.73 32.86, 37.12 31.16 M34.7 34.12 C35.25 33.45, 35.8 32.78, 37.12 31.16 M37.12 31.16 C37.61 30.24, 38.1 29.33, 38.94 27.77 M37.12 31.16 C37.67 30.13, 38.23 29.09, 38.94 27.77 M38.94 27.77 C39.19 27.06, 39.44 26.36, 39.6 25.93 M38.94 27.77 C39.1 27.31, 39.26 26.85, 39.6 25.93 M39.6 25.93 C39.71 25.47, 39.83 25.02, 40.08 24.02 M39.6 25.93 C39.7 25.52, 39.8 25.11, 40.08 24.02 M40.08 24.02 C40.14 23.58, 40.21 23.14, 40.38 22.04 M40.08 24.02 C40.17 23.4, 40.26 22.79, 40.38 22.04 M40.38 22.04 C40.4 21.49, 40.43 20.95, 40.48 20 M40.38 22.04 C40.4 21.52, 40.43 20.99, 40.48 20 M40.48 20 C40.45 19.41, 40.42 18.83, 40.38 17.96 M40.48 20 C40.45 19.52, 40.43 19.03, 40.38 17.96 M40.38 17.96 C40.31 17.5, 40.24 17.03, 40.08 15.98 M40.38 17.96 C40.27 17.25, 40.16 16.54, 40.08 15.98 M40.08 15.98 C39.92 15.35, 39.76 14.72, 39.6 14.07 M40.08 15.98 C39.93 15.39, 39.78 14.79, 39.6 14.07 M39.6 14.07 C39.39 13.49, 39.18 12.9, 38.94 12.23 M39.6 14.07 C39.46 13.69, 39.32 13.31, 38.94 12.23 M38.94 12.23 C38.39 11.22, 37.85 10.2, 37.12 8.84 M38.94 12.23 C38.46 11.34, 37.98 10.45, 37.12 8.84 M37.12 8.84 C36.18 7.69, 35.24 6.54, 34.7 5.88 M37.12 8.84 C36.55 8.14, 35.99 7.45, 34.7 5.88 M34.7 5.88 C33.7 5.04, 32.69 4.21, 31.76 3.43 M34.7 5.88 C33.87 5.19, 33.04 4.5, 31.76 3.43 M31.76 3.43 C31.4 3.21, 31.05 3, 30.11 2.42 M31.76 3.43 C31.38 3.2, 31.01 2.97, 30.11 2.42 M30.11 2.42 C29.41 2.09, 28.72 1.75, 28.35 1.58 M30.11 2.42 C29.75 2.25, 29.39 2.08, 28.35 1.58 M28.35 1.58 C27.87 1.4, 27.39 1.23, 26.51 0.9 M28.35 1.58 C27.75 1.36, 27.15 1.14, 26.51 0.9 M26.51 0.9 C26.11 0.8, 25.71 0.7, 24.57 0.41 M26.51 0.9 C25.87 0.74, 25.24 0.58, 24.57 0.41 M24.57 0.41 C23.98 0.32, 23.39 0.23, 22.56 0.1 M24.57 0.41 C24.11 0.34, 23.66 0.27, 22.56 0.1 M22.56 0.1 C21.92 0.07, 21.29 0.04, 20.48 0 M22.56 0.1 C21.74 0.06, 20.93 0.02, 20.48 0 M20.48 0 C12.88 0, 5.29 0, 0 0 M20.48 0 C12.75 0, 5.03 0, 0 0 M0 0 C0 0, 0 0, 0 0 M0 0 C0 0, 0 0, 0 0 M0 0 C0 0, 0 0, 0 0 M0 0 C0 0, 0 0, 0 0" stroke="#00000000" stroke-width="2" fill="none"/></g></g><mask/><g stroke-linecap="round"><g transform="translate(704.6621135423347 125.29695163832534) rotate(0 17.142858505249023 17.14285683631897)" fill-rule="evenodd"><path d="M0 0 L17.62 0 L17.62 0 L21.14 0.35 L24.34 1.34 L27.18 2.92 L29.61 5.01 L31.59 7.54 L33.05 10.46 L33.97 13.68 L34.29 17.14 L33.95 20.61 L32.98 23.83 L31.44 26.74 L29.37 29.28 L26.86 31.37 L23.94 32.94 L20.68 33.94 L17.14 34.29 L0 34.29 L0 0 L0 0" stroke="none" stroke-width="0" fill="#FFFFFF" fill-rule="evenodd"/><path d="M0 0 C4.4 0, 8.8 0, 17.62 0 M0 0 C4.04 0, 8.09 0, 17.62 0 M17.62 0 C17.62 0, 17.62 0, 17.62 0 M17.62 0 C17.62 0, 17.62 0, 17.62 0 M17.62 0 C18.42 0.08, 19.22 0.16, 21.14 0.35 M17.62 0 C18.66 0.1, 19.7 0.2, 21.14 0.35 M21.14 0.35 C21.79 0.55, 22.44 0.75, 24.34 1.34 M21.14 0.35 C21.81 0.56, 22.48 0.76, 24.34 1.34 M24.34 1.34 C25.08 1.75, 25.83 2.17, 27.18 2.92 M24.34 1.34 C25.35 1.9, 26.35 2.46, 27.18 2.92 M27.18 2.92 C28.14 3.75, 29.11 4.57, 29.61 5.01 M27.18 2.92 C28.09 3.7, 28.99 4.47, 29.61 5.01 M29.61 5.01 C30.32 5.92, 31.04 6.84, 31.59 7.54 M29.61 5.01 C30.21 5.78, 30.81 6.54, 31.59 7.54 M31.59 7.54 C32.04 8.44, 32.49 9.33, 33.05 10.46 M31.59 7.54 C31.94 8.25, 32.3 8.95, 33.05 10.46 M33.05 10.46 C33.27 11.2, 33.48 11.95, 33.97 13.68 M33.05 10.46 C33.41 11.72, 33.77 12.99, 33.97 13.68 M33.97 13.68 C34.04 14.43, 34.11 15.19, 34.29 17.14 M33.97 13.68 C34.07 14.8, 34.17 15.92, 34.29 17.14 M34.29 17.14 C34.19 18.11, 34.1 19.08, 33.95 20.61 M34.29 17.14 C34.21 17.93, 34.13 18.71, 33.95 20.61 M33.95 20.61 C33.75 21.27, 33.55 21.93, 32.98 23.83 M33.95 20.61 C33.59 21.8, 33.23 23, 32.98 23.83 M32.98 23.83 C32.67 24.42, 32.35 25.01, 31.44 26.74 M32.98 23.83 C32.42 24.88, 31.86 25.94, 31.44 26.74 M31.44 26.74 C30.73 27.61, 30.03 28.48, 29.37 29.28 M31.44 26.74 C30.63 27.74, 29.82 28.74, 29.37 29.28 M29.37 29.28 C28.37 30.11, 27.36 30.95, 26.86 31.37 M29.37 29.28 C28.6 29.92, 27.83 30.56, 26.86 31.37 M26.86 31.37 C25.98 31.84, 25.11 32.31, 23.94 32.94 M26.86 31.37 C26.13 31.76, 25.4 32.16, 23.94 32.94 M23.94 32.94 C22.76 33.3, 21.58 33.67, 20.68 33.94 M23.94 32.94 C22.87 33.27, 21.81 33.59, 20.68 33.94 M20.68 33.94 C19.46 34.06, 18.24 34.18, 17.14 34.29 M20.68 33.94 C19.77 34.03, 18.86 34.12, 17.14 34.29 M17.14 34.29 C12.26 34.29, 7.37 34.29, 0 34.29 M17.14 34.29 C13.1 34.29, 9.05 34.29, 0 34.29 M0 34.29 C0 22.5, 0 10.71, 0 0 M0 34.29 C0 21.16, 0 8.02, 0 0 M0 0 C0 0, 0 0, 0 0 M0 0 C0 0, 0 0, 0 0 M0 0 C0 0, 0 0, 0 0 M0 0 C0 0, 0 0, 0 0" stroke="#00000000" stroke-width="2" fill="none"/></g></g><mask/><g stroke-linecap="round"><g transform="translate(81.66211354233474 24.29695163832534) rotate(0 298 54)"><path d="M0 0 C194.32 0, 388.63 0, 596 0 M0 0 C214.68 0, 429.36 0, 596 0 M596 0 C596 41.02, 596 82.04, 596 108 M596 0 C596 31.49, 596 62.98, 596 108" stroke="#1e1e1e" stroke-width="2" fill="none"/></g></g><mask/><g stroke-linecap="round"><g transform="translate(452.66211354233474 24.29695163832534) rotate(0 0 17)"><path d="M0 0 C0 7.34, 0 14.67, 0 34 M0 0 C0 11.69, 0 23.38, 0 34" stroke="#1e1e1e" stroke-width="2" fill="none"/></g></g><mask/><g stroke-linecap="round"><g transform="translate(542.6621135423347 58.29695163832534) rotate(0 13.5 30)"><path d="M0 0 C0 23.03, 0 46.06, 0 60 M0 0 C0 21.47, 0 42.93, 0 60 M0 60 C7 60, 14 60, 27 60 M0 60 C7.75 60, 15.5 60, 27 60" stroke="#1e1e1e" stroke-width="2" fill="none"/></g></g><mask/><g stroke-linecap="round"><g transform="translate(677.6621135423347 152.29695163832534) rotate(0 -19.507483392117308 0)"><path d="M0 0 C-13.94 0, -27.88 0, -39.01 0 M0 0 C-14.43 0, -28.87 0, -39.01 0" stroke="#1e1e1e" stroke-width="2" fill="none"/></g></g><mask/><g stroke-linecap="round"><g transform="translate(569.6621135423347 152.29695163832534) rotate(0 -50.71589473170445 0)"><path d="M0 0 C-33.68 0, -67.35 0, -101.43 0 M0 0 C-23.64 0, -47.28 0, -101.43 0" stroke="#1e1e1e" stroke-width="2" fill="none"/></g></g><mask/><g stroke-linecap="round"><g transform="translate(261.66211354233474 152.29695163832534) rotate(0 12.5 0)"><path d="M0 0 C0 0, 0 0, 0 0 M0 0 C0 0, 0 0, 0 0 M0 0 C0.82 0, 1.65 0, 3.58 0 M0 0 C0.88 0, 1.75 0, 3.58 0 M3.58 0 C4.32 0, 5.06 0, 6.82 0 M3.58 0 C4.84 0, 6.1 0, 6.82 0 M6.82 0 C7.78 0, 8.74 0, 9.73 0 M6.82 0 C7.75 0, 8.68 0, 9.73 0 M9.73 0 C10.78 0, 11.82 0, 12.34 0 M9.73 0 C10.75 0, 11.76 0, 12.34 0 M12.34 0 C12.92 0, 13.5 0, 14.66 0 M12.34 0 C12.94 0, 13.53 0, 14.66 0 M14.66 0 C15.25 0, 15.83 0, 16.7 0 M14.66 0 C15.35 0, 16.04 0, 16.7 0 M16.7 0 C17.33 0, 17.96 0, 18.47 0 M16.7 0 C17.18 0, 17.65 0, 18.47 0 M18.47 0 C19.06 0, 19.64 0, 20 0 M18.47 0 C19.01 0, 19.55 0, 20 0 M20 0 C20.28 0, 20.55 0, 21.29 0 M20 0 C20.29 0, 20.58 0, 21.29 0 M21.29 0 C21.58 0, 21.87 0, 22.36 0 M21.29 0 C21.62 0, 21.95 0, 22.36 0 M22.36 0 C22.7 0, 23.03 0, 23.23 0 M22.36 0 C22.58 0, 22.79 0, 23.23 0 M23.23 0 C23.39 0, 23.55 0, 23.91 0 M23.23 0 C23.37 0, 23.52 0, 23.91 0 M23.91 0 C24.09 0, 24.28 0, 24.75 0 M23.91 0 C24.17 0, 24.43 0, 24.75 0 M24.75 0 C24.81 0, 24.88 0, 25 0 M24.75 0 C24.81 0, 24.88 0, 25 0" stroke="#000000" stroke-width="2" fill="none"/></g></g><mask/><g stroke-linecap="round"><g transform="translate(222.66211354233474 142.29695163832534) rotate(0 -13 0)"><path d="M0 0 C-6.45 0, -12.9 0, -26 0 M0 0 C-8.01 0, -16.01 0, -26 0" stroke="#000000" stroke-width="2" fill="none"/></g></g><mask/><g stroke-linecap="round"><g transform="translate(223.66211354233474 162.29695163832534) rotate(0 -13.5 0)"><path d="M0 0 C-10.26 0, -20.51 0, -27 0 M0 0 C-7.87 0, -15.75 0, -27 0" stroke="#000000" stroke-width="2" fill="none"/></g></g><mask/><g stroke-linecap="round"><g transform="translate(221.66211354233474 132.29695163832534) rotate(0 20.238094329833984 20)"><path d="M0 0 C0 0.44, 0 0.87, 0 1.43 M0 0 C0 0.37, 0 0.74, 0 1.43 M0 1.43 C0 12.43, 0 23.43, 0 38.57 M0 1.43 C0 13.57, 0 25.71, 0 38.57 M0 38.57 C0 38.96, 0 39.35, 0 40 M0 38.57 C0 38.92, 0 39.26, 0 40 M0 40 C0.3 40, 0.59 40, 1.43 40 M0 40 C0.52 40, 1.04 40, 1.43 40 M1.43 40 C8.89 40, 16.34 40, 20.48 40 M1.43 40 C8.75 40, 16.07 40, 20.48 40 M20.48 40 C20.48 40, 20.48 40, 20.48 40 M20.48 40 C20.48 40, 20.48 40, 20.48 40 M20.48 40 C21.25 39.96, 22.02 39.92, 22.56 39.9 M20.48 40 C21.01 39.97, 21.54 39.95, 22.56 39.9 M22.56 39.9 C23.31 39.78, 24.05 39.67, 24.57 39.59 M22.56 39.9 C23.03 39.83, 23.5 39.75, 24.57 39.59 M24.57 39.59 C25.19 39.43, 25.81 39.28, 26.51 39.1 M24.57 39.59 C25.11 39.45, 25.65 39.32, 26.51 39.1 M26.51 39.1 C27.23 38.83, 27.95 38.57, 28.35 38.42 M26.51 39.1 C27.18 38.85, 27.85 38.61, 28.35 38.42 M28.35 38.42 C28.96 38.13, 29.56 37.84, 30.11 37.58 M28.35 38.42 C28.93 38.14, 29.51 37.86, 30.11 37.58 M30.11 37.58 C30.72 37.2, 31.34 36.83, 31.76 36.57 M30.11 37.58 C30.67 37.23, 31.23 36.89, 31.76 36.57 M31.76 36.57 C32.77 35.73, 33.78 34.89, 34.7 34.12 M31.76 36.57 C32.76 35.74, 33.76 34.9, 34.7 34.12 M34.7 34.12 C35.29 33.4, 35.88 32.68, 37.12 31.16 M34.7 34.12 C35.43 33.23, 36.17 32.33, 37.12 31.16 M37.12 31.16 C37.52 30.42, 37.92 29.67, 38.94 27.77 M37.12 31.16 C37.65 30.16, 38.19 29.16, 38.94 27.77 M38.94 27.77 C39.09 27.35, 39.23 26.94, 39.6 25.93 M38.94 27.77 C39.15 27.16, 39.37 26.55, 39.6 25.93 M39.6 25.93 C39.72 25.42, 39.85 24.91, 40.08 24.02 M39.6 25.93 C39.71 25.49, 39.82 25.06, 40.08 24.02 M40.08 24.02 C40.15 23.54, 40.22 23.07, 40.38 22.04 M40.08 24.02 C40.16 23.5, 40.23 22.98, 40.38 22.04 M40.38 22.04 C40.41 21.27, 40.45 20.5, 40.48 20 M40.38 22.04 C40.4 21.57, 40.42 21.1, 40.48 20 M40.48 20 C40.45 19.39, 40.42 18.79, 40.38 17.96 M40.48 20 C40.45 19.41, 40.42 18.82, 40.38 17.96 M40.38 17.96 C40.3 17.49, 40.23 17.01, 40.08 15.98 M40.38 17.96 C40.3 17.48, 40.23 17.01, 40.08 15.98 M40.08 15.98 C39.93 15.38, 39.77 14.78, 39.6 14.07 M40.08 15.98 C39.91 15.3, 39.73 14.61, 39.6 14.07 M39.6 14.07 C39.37 13.44, 39.14 12.81, 38.94 12.23 M39.6 14.07 C39.42 13.59, 39.25 13.11, 38.94 12.23 M38.94 12.23 C38.39 11.21, 37.84 10.19, 37.12 8.84 M38.94 12.23 C38.28 11, 37.62 9.77, 37.12 8.84 M37.12 8.84 C36.23 7.75, 35.34 6.66, 34.7 5.88 M37.12 8.84 C36.31 7.84, 35.5 6.85, 34.7 5.88 M34.7 5.88 C33.63 4.99, 32.56 4.1, 31.76 3.43 M34.7 5.88 C33.65 5, 32.61 4.13, 31.76 3.43 M31.76 3.43 C31.1 3.03, 30.45 2.63, 30.11 2.42 M31.76 3.43 C31.15 3.06, 30.54 2.69, 30.11 2.42 M30.11 2.42 C29.57 2.17, 29.04 1.91, 28.35 1.58 M30.11 2.42 C29.51 2.14, 28.92 1.85, 28.35 1.58 M28.35 1.58 C27.8 1.37, 27.24 1.17, 26.51 0.9 M28.35 1.58 C27.77 1.37, 27.19 1.15, 26.51 0.9 M26.51 0.9 C26.07 0.79, 25.64 0.68, 24.57 0.41 M26.51 0.9 C25.98 0.77, 25.46 0.64, 24.57 0.41 M24.57 0.41 C23.84 0.3, 23.11 0.19, 22.56 0.1 M24.57 0.41 C23.81 0.29, 23.04 0.18, 22.56 0.1 M22.56 0.1 C21.89 0.07, 21.23 0.04, 20.48 0 M22.56 0.1 C22.02 0.08, 21.48 0.05, 20.48 0 M20.48 0 C20.47 0, 20.46 0, 20.44 0 M20.48 0 C20.47 0, 20.46 0, 20.44 0 M20.44 0 C20.36 0, 20.29 0, 20.18 0 M20.44 0 C20.34 0, 20.25 0, 20.18 0 M20.18 0 C20.02 0, 19.87 0, 19.47 0 M20.18 0 C19.91 0, 19.65 0, 19.47 0 M19.47 0 C19.29 0, 19.1 0, 18.88 0 M19.47 0 C19.34 0, 19.22 0, 18.88 0 M18.88 0 C18.6 0, 18.33 0, 18.1 0 M18.88 0 C18.58 0, 18.27 0, 18.1 0 M18.1 0 C17.8 0, 17.51 0, 17.09 0 M18.1 0 C17.72 0, 17.35 0, 17.09 0 M17.09 0 C16.71 0, 16.33 0, 15.83 0 M17.09 0 C16.73 0, 16.38 0, 15.83 0 M15.83 0 C15.51 0, 15.2 0, 14.29 0 M15.83 0 C15.29 0, 14.76 0, 14.29 0 M14.29 0 C13.69 0, 13.09 0, 12.44 0 M14.29 0 C13.66 0, 13.04 0, 12.44 0 M12.44 0 C11.72 0, 11 0, 10.26 0 M12.44 0 C11.94 0, 11.43 0, 10.26 0 M10.26 0 C9.56 0, 8.85 0, 7.72 0 M10.26 0 C9.55 0, 8.84 0, 7.72 0 M7.72 0 C6.98 0, 6.25 0, 4.78 0 M7.72 0 C6.99 0, 6.26 0, 4.78 0 M4.78 0 C4.07 0, 3.36 0, 1.43 0 M4.78 0 C3.82 0, 2.86 0, 1.43 0 M1.43 0 C1.08 0, 0.74 0, 0 0 M1.43 0 C0.89 0, 0.35 0, 0 0 M0 0 C0 0, 0 0, 0 0 M0 0 C0 0, 0 0, 0 0" stroke="#000000" stroke-width="2" fill="none"/></g></g><mask/><g stroke-linecap="round"><g transform="translate(181.66211354233474 142.29695163832534) rotate(0 7.921543121337891 0)"><path d="M0 0 C3.74 0, 7.48 0, 15.84 0 M0 0 C5.91 0, 11.81 0, 15.84 0" stroke="#000" stroke-width="2" fill="none"/></g></g><mask/><g stroke-linecap="round"><g transform="translate(131.66211354233474 142.29695163832534) rotate(0 -12 0)"><path d="M0 0 C-4.95 0, -9.9 0, -24 0 M0 0 C-8.63 0, -17.26 0, -24 0" stroke="#000" stroke-width="2" fill="none"/></g></g><mask/><g stroke-linecap="round"><g transform="translate(130.66211354233474 120.29695163832534) rotate(0 20.882646461663285 22.40625)"><path d="M0 0 C0 13.27, 0 26.54, 0 44.81 M0 0 C0 15.05, 0 30.09, 0 44.81 M0 44.81 C0.55 44.53, 1.1 44.25, 2.09 43.75 M0 44.81 C0.7 44.46, 1.39 44.1, 2.09 43.75 M2.09 43.75 C14.19 37.65, 26.29 31.55, 41.77 23.75 M2.09 43.75 C10.21 39.66, 18.33 35.56, 41.77 23.75 M41.77 23.75 C41.77 22.9, 41.77 22.06, 41.77 21.06 M41.77 23.75 C41.77 22.9, 41.77 22.05, 41.77 21.06 M41.77 21.06 C25.9 13.07, 10.03 5.07, 2.09 1.06 M41.77 21.06 C29.03 14.64, 16.3 8.23, 2.09 1.06 M2.09 1.06 C1.37 0.7, 0.66 0.34, 0 0 M2.09 1.06 C1.27 0.65, 0.45 0.23, 0 0 M0 0 C0 0, 0 0, 0 0 M0 0 C0 0, 0 0, 0 0" stroke="#1e1e1e" stroke-width="2" fill="none"/></g></g><mask/><g stroke-linecap="round"><g transform="translate(180.66211354233474 142.29695163832534) rotate(0 -4 0)"><path d="M0 0 C0 0, 0 0, 0 0 M0 0 C0 0, 0 0, 0 0 M0 0 C-0.05 0.38, -0.1 0.76, -0.15 1.1 M0 0 C-0.04 0.28, -0.08 0.56, -0.15 1.1 M-0.15 1.1 C-0.28 1.39, -0.4 1.69, -0.56 2.06 M-0.15 1.1 C-0.28 1.4, -0.41 1.71, -0.56 2.06 M-0.56 2.06 C-0.79 2.34, -1.01 2.62, -1.2 2.86 M-0.56 2.06 C-0.72 2.25, -0.88 2.45, -1.2 2.86 M-1.2 2.86 C-1.49 3.08, -1.78 3.3, -2 3.46 M-1.2 2.86 C-1.39 3, -1.59 3.15, -2 3.46 M-2 3.46 C-2.35 3.61, -2.71 3.76, -2.93 3.86 M-2 3.46 C-2.24 3.56, -2.47 3.66, -2.93 3.86 M-2.93 3.86 C-3.2 3.9, -3.47 3.94, -3.94 4.01 M-2.93 3.86 C-3.32 3.91, -3.71 3.97, -3.94 4.01 M-3.94 4.01 C-4.33 3.96, -4.73 3.91, -4.98 3.88 M-3.94 4.01 C-4.33 3.96, -4.72 3.91, -4.98 3.88 M-4.98 3.88 C-5.37 3.72, -5.77 3.56, -6 3.46 M-4.98 3.88 C-5.2 3.79, -5.43 3.7, -6 3.46 M-6 3.46 C-6.3 3.23, -6.61 3, -6.83 2.82 M-6 3.46 C-6.18 3.33, -6.36 3.19, -6.83 2.82 M-6.83 2.82 C-6.98 2.64, -7.12 2.45, -7.46 2 M-6.83 2.82 C-6.97 2.65, -7.1 2.47, -7.46 2 M-7.46 2 C-7.62 1.62, -7.78 1.24, -7.86 1.04 M-7.46 2 C-7.57 1.75, -7.67 1.5, -7.86 1.04 M-7.86 1.04 C-7.9 0.78, -7.93 0.52, -8 0 M-7.86 1.04 C-7.89 0.8, -7.93 0.55, -8 0 M-8 0 C-7.94 -0.42, -7.89 -0.84, -7.85 -1.1 M-8 0 C-7.95 -0.33, -7.91 -0.67, -7.85 -1.1 M-7.85 -1.1 C-7.74 -1.35, -7.63 -1.61, -7.44 -2.06 M-7.85 -1.1 C-7.71 -1.43, -7.56 -1.77, -7.44 -2.06 M-7.44 -2.06 C-7.25 -2.3, -7.06 -2.54, -6.8 -2.86 M-7.44 -2.06 C-7.29 -2.24, -7.14 -2.43, -6.8 -2.86 M-6.8 -2.86 C-6.6 -3.01, -6.39 -3.17, -6 -3.46 M-6.8 -2.86 C-6.63 -2.99, -6.45 -3.13, -6 -3.46 M-6 -3.46 C-5.66 -3.61, -5.32 -3.75, -5.07 -3.86 M-6 -3.46 C-5.78 -3.56, -5.56 -3.65, -5.07 -3.86 M-5.07 -3.86 C-4.73 -3.91, -4.39 -3.96, -4.06 -4.01 M-5.07 -3.86 C-4.76 -3.9, -4.46 -3.95, -4.06 -4.01 M-4.06 -4.01 C-3.8 -3.97, -3.54 -3.94, -3.02 -3.88 M-4.06 -4.01 C-3.65 -3.96, -3.25 -3.91, -3.02 -3.88 M-3.02 -3.88 C-2.63 -3.72, -2.24 -3.56, -2 -3.46 M-3.02 -3.88 C-2.76 -3.78, -2.5 -3.67, -2 -3.46 M-2 -3.46 C-1.76 -3.28, -1.52 -3.1, -1.17 -2.82 M-2 -3.46 C-1.77 -3.28, -1.53 -3.1, -1.17 -2.82 M-1.17 -2.82 C-1.02 -2.64, -0.88 -2.45, -0.54 -2 M-1.17 -2.82 C-0.96 -2.55, -0.75 -2.29, -0.54 -2 M-0.54 -2 C-0.44 -1.76, -0.34 -1.52, -0.14 -1.04 M-0.54 -2 C-0.39 -1.64, -0.24 -1.29, -0.14 -1.04 M-0.14 -1.04 C-0.11 -0.79, -0.07 -0.54, 0 0 M-0.14 -1.04 C-0.09 -0.66, -0.04 -0.28, 0 0 M0 0 C0 0, 0 0, 0 0 M0 0 C0 0, 0 0, 0 0" stroke="#000" stroke-width="2" fill="none"/></g></g><mask/><g stroke-linecap="round" transform="translate(300.66211354233474 365.29695163832537) rotate(0 27.5 37.5)"><path d="M0 0 L55 0 L55 75 L0 75" stroke="none" stroke-width="0" fill="#a5d8ff"/><path d="M0 0 C20.44 0, 40.88 0, 55 0 M0 0 C11.49 0, 22.97 0, 55 0 M55 0 C55 23, 55 46, 55 75 M55 0 C55 21.23, 55 42.45, 55 75 M55 75 C33.79 75, 12.59 75, 0 75 M55 75 C36.61 75, 18.23 75, 0 75 M0 75 C0 46.58, 0 18.16, 0 0 M0 75 C0 59.73, 0 44.46, 0 0" stroke="#1e1e1e" stroke-width="2" fill="none"/></g><g stroke-linecap="round"><g transform="translate(300.66211354233474 385.29695163832537) rotate(0 -7.5 0)"><path d="M0 0 C-5.61 0, -11.21 0, -15 0 M0 0 C-4.87 0, -9.74 0, -15 0" stroke="#1e1e1e" stroke-width="2" fill="none"/></g></g><mask/><g stroke-linecap="round"><g transform="translate(300.66211354233474 415.29695163832537) rotate(0 5.5 5)"><path d="M0 0 C2.57 1.17, 5.14 2.34, 11 5 M0 0 C3.3 1.5, 6.6 3, 11 5 M11 5 C7.7 6.5, 4.4 8, 0 10 M11 5 C7.9 6.41, 4.8 7.82, 0 10" stroke="#1e1e1e" stroke-width="2" fill="none"/></g></g><mask/><g stroke-linecap="round"><g transform="translate(383.66211354233474 385.29695163832537) rotate(0 -14 0)"><path d="M0 0 C-7.26 0, -14.52 0, -28 0 M0 0 C-5.66 0, -11.32 0, -28 0" stroke="#1e1e1e" stroke-width="2" fill="none"/></g></g><mask/><g stroke-linecap="round"><g transform="translate(300.66211354233474 420.29695163832537) rotate(0 -7.5 0)"><path d="M0 0 C-5.7 0, -11.39 0, -15 0 M0 0 C-4.11 0, -8.22 0, -15 0" stroke="#1e1e1e" stroke-width="2" fill="none"/></g></g><mask/><g stroke-linecap="round" transform="translate(398.66211354233474 365.29695163832537) rotate(0 27.5 37.5)"><path d="M0 0 L55 0 L55 75 L0 75" stroke="none" stroke-width="0" fill="#a5d8ff"/><path d="M0 0 C18.83 0, 37.66 0, 55 0 M0 0 C16.28 0, 32.55 0, 55 0 M55 0 C55 23.86, 55 47.72, 55 75 M55 0 C55 27.33, 55 54.67, 55 75 M55 75 C38.89 75, 22.77 75, 0 75 M55 75 C37.15 75, 19.3 75, 0 75 M0 75 C0 50.07, 0 25.13, 0 0 M0 75 C0 52.24, 0 29.48, 0 0" stroke="#1e1e1e" stroke-width="2" fill="none"/></g><g stroke-linecap="round"><g transform="translate(398.66211354233474 385.29695163832537) rotate(0 -7.5 0)"><path d="M0 0 C-5.87 0, -11.74 0, -15 0 M0 0 C-3.25 0, -6.49 0, -15 0" stroke="#1e1e1e" stroke-width="2" fill="none"/></g></g><mask/><g stroke-linecap="round"><g transform="translate(398.66211354233474 415.29695163832537) rotate(0 5.5 5)"><path d="M0 0 C2.35 1.07, 4.7 2.14, 11 5 M0 0 C3.76 1.71, 7.51 3.41, 11 5 M11 5 C7.94 6.39, 4.87 7.79, 0 10 M11 5 C6.89 6.87, 2.79 8.73, 0 10" stroke="#1e1e1e" stroke-width="2" fill="none"/></g></g><mask/><g stroke-linecap="round"><g transform="translate(468.66211354233474 385.29695163832537) rotate(0 -7.5 0)"><path d="M0 0 C-3.84 0, -7.67 0, -15 0 M0 0 C-4.02 0, -8.04 0, -15 0" stroke="#1e1e1e" stroke-width="2" fill="none"/></g></g><mask/><g stroke-linecap="round"><g transform="translate(398.66211354233474 420.29695163832537) rotate(0 -7.5 0)"><path d="M0 0 C-4.87 0, -9.74 0, -15 0 M0 0 C-3.46 0, -6.91 0, -15 0" stroke="#1e1e1e" stroke-width="2" fill="none"/></g></g><mask/><g stroke-linecap="round" transform="translate(569.6621135423347 365.29695163832537) rotate(0 27 37)"><path d="M0 0 C15.63 0, 31.26 0, 54 0 M0 0 C15.05 0, 30.11 0, 54 0 M54 0 C54 20.13, 54 40.25, 54 74 M54 0 C54 26.58, 54 53.15, 54 74 M54 74 C41.74 74, 29.49 74, 0 74 M54 74 C37.19 74, 20.38 74, 0 74 M0 74 C0 44.43, 0 14.85, 0 0 M0 74 C0 55.61, 0 37.22, 0 0" stroke="#1e1e1e" stroke-width="2" fill="none"/></g><g stroke-linecap="round"><g transform="translate(569.6621135423347 385.29695163832537) rotate(0 -7 0)"><path d="M0 0 C-4.29 0, -8.57 0, -14 0 M0 0 C-4.83 0, -9.67 0, -14 0" stroke="#1e1e1e" stroke-width="2" fill="none"/></g></g><mask/><g stroke-linecap="round"><g transform="translate(569.6621135423347 414.29695163832537) rotate(0 5 4.5)"><path d="M0 0 C3.8 1.71, 7.6 3.42, 10 4.5 M0 0 C2.12 0.95, 4.23 1.9, 10 4.5 M10 4.5 C7.77 5.5, 5.54 6.51, 0 9 M10 4.5 C7.12 5.8, 4.24 7.09, 0 9" stroke="#1e1e1e" stroke-width="2" fill="none"/></g></g><mask/><g stroke-linecap="round"><g transform="translate(638.6621135423347 385.29695163832537) rotate(0 -7 0)"><path d="M0 0 C-3.81 0, -7.62 0, -14 0 M0 0 C-5.03 0, -10.06 0, -14 0" stroke="#1e1e1e" stroke-width="2" fill="none"/></g></g><mask/><g stroke-linecap="round"><g transform="translate(569.6621135423347 419.29695163832537) rotate(0 -7 0)"><path d="M0 0 C-4.78 0, -9.56 0, -14 0 M0 0 C-4.92 0, -9.85 0, -14 0" stroke="#1e1e1e" stroke-width="2" fill="none"/></g></g><mask/><g stroke-linecap="round"><g transform="translate(526.6621135423347 479.29695163832537) rotate(0 7.5 0)"><path d="M0 0 C4.23 0, 8.46 0, 15 0 M0 0 C4.59 0, 9.18 0, 15 0" stroke="#000" stroke-width="2" fill="none"/></g></g><mask/><g stroke-linecap="round"><g transform="translate(476.66211354233474 479.29695163832537) rotate(0 -12 0)"><path d="M0 0 C-8.19 0, -16.37 0, -24 0 M0 0 C-8.43 0, -16.87 0, -24 0" stroke="#000" stroke-width="2" fill="none"/></g></g><mask/><g stroke-linecap="round"><g transform="translate(475.66211354233474 501.29695163832537) rotate(0 20.882646461663285 -22.40625)"><path d="M0 0 C0 -13.83, 0 -27.65, 0 -44.81 M0 0 C0 -11.42, 0 -22.84, 0 -44.81 M0 -44.81 C0.71 -44.45, 1.43 -44.08, 2.09 -43.75 M0 -44.81 C0.49 -44.56, 0.98 -44.31, 2.09 -43.75 M2.09 -43.75 C13.78 -37.85, 25.48 -31.96, 41.77 -23.75 M2.09 -43.75 C13.17 -38.16, 24.26 -32.57, 41.77 -23.75 M41.77 -23.75 C41.77 -23, 41.77 -22.26, 41.77 -21.06 M41.77 -23.75 C41.77 -22.93, 41.77 -22.11, 41.77 -21.06 M41.77 -21.06 C26.52 -13.38, 11.28 -5.7, 2.09 -1.06 M41.77 -21.06 C27.91 -14.08, 14.05 -7.09, 2.09 -1.06 M2.09 -1.06 C1.38 -0.7, 0.67 -0.34, 0 0 M2.09 -1.06 C1.65 -0.84, 1.22 -0.62, 0 0 M0 0 C0 0, 0 0, 0 0 M0 0 C0 0, 0 0, 0 0" stroke="#1e1e1e" stroke-width="2" fill="none"/></g></g><mask/><g stroke-linecap="round"><g transform="translate(525.6621135423347 479.29695163832537) rotate(0 -4 0)"><path d="M0 0 C0 0, 0 0, 0 0 M0 0 C0 0, 0 0, 0 0 M0 0 C-0.04 -0.31, -0.08 -0.61, -0.15 -1.09 M0 0 C-0.04 -0.32, -0.09 -0.63, -0.15 -1.09 M-0.15 -1.09 C-0.31 -1.47, -0.47 -1.85, -0.56 -2.05 M-0.15 -1.09 C-0.28 -1.39, -0.4 -1.68, -0.56 -2.05 M-0.56 -2.05 C-0.81 -2.37, -1.06 -2.68, -1.2 -2.85 M-0.56 -2.05 C-0.73 -2.27, -0.91 -2.49, -1.2 -2.85 M-1.2 -2.85 C-1.42 -3.02, -1.65 -3.19, -2 -3.46 M-1.2 -2.85 C-1.39 -3, -1.58 -3.14, -2 -3.46 M-2 -3.46 C-2.35 -3.61, -2.71 -3.76, -2.93 -3.85 M-2 -3.46 C-2.21 -3.55, -2.43 -3.64, -2.93 -3.85 M-2.93 -3.85 C-3.14 -3.88, -3.35 -3.91, -3.94 -4 M-2.93 -3.85 C-3.22 -3.89, -3.51 -3.94, -3.94 -4 M-3.94 -4 C-4.26 -3.96, -4.59 -3.92, -4.98 -3.88 M-3.94 -4 C-4.25 -3.96, -4.56 -3.93, -4.98 -3.88 M-4.98 -3.88 C-5.33 -3.73, -5.69 -3.59, -6 -3.46 M-4.98 -3.88 C-5.24 -3.77, -5.51 -3.66, -6 -3.46 M-6 -3.46 C-6.26 -3.26, -6.53 -3.05, -6.83 -2.82 M-6 -3.46 C-6.26 -3.26, -6.52 -3.06, -6.83 -2.82 M-6.83 -2.82 C-6.98 -2.63, -7.12 -2.44, -7.46 -2 M-6.83 -2.82 C-7.07 -2.51, -7.3 -2.21, -7.46 -2 M-7.46 -2 C-7.61 -1.65, -7.76 -1.3, -7.86 -1.04 M-7.46 -2 C-7.62 -1.62, -7.78 -1.24, -7.86 -1.04 M-7.86 -1.04 C-7.91 -0.7, -7.95 -0.36, -8 0 M-7.86 -1.04 C-7.89 -0.82, -7.92 -0.6, -8 0 M-8 0 C-7.96 0.32, -7.91 0.64, -7.85 1.09 M-8 0 C-7.94 0.41, -7.89 0.82, -7.85 1.09 M-7.85 1.09 C-7.74 1.36, -7.62 1.62, -7.44 2.05 M-7.85 1.09 C-7.69 1.47, -7.53 1.84, -7.44 2.05 M-7.44 2.05 C-7.2 2.36, -6.96 2.66, -6.8 2.85 M-7.44 2.05 C-7.2 2.35, -6.96 2.65, -6.8 2.85 M-6.8 2.85 C-6.6 3.01, -6.39 3.16, -6 3.46 M-6.8 2.85 C-6.57 3.03, -6.33 3.21, -6 3.46 M-6 3.46 C-5.67 3.6, -5.33 3.74, -5.07 3.85 M-6 3.46 C-5.8 3.54, -5.6 3.63, -5.07 3.85 M-5.07 3.85 C-4.86 3.88, -4.65 3.91, -4.06 4 M-5.07 3.85 C-4.75 3.9, -4.42 3.95, -4.06 4 M-4.06 4 C-3.83 3.97, -3.59 3.94, -3.02 3.88 M-4.06 4 C-3.85 3.98, -3.64 3.95, -3.02 3.88 M-3.02 3.88 C-2.8 3.79, -2.57 3.69, -2 3.46 M-3.02 3.88 C-2.76 3.77, -2.49 3.66, -2 3.46 M-2 3.46 C-1.81 3.32, -1.63 3.17, -1.17 2.82 M-2 3.46 C-1.7 3.23, -1.4 2.99, -1.17 2.82 M-1.17 2.82 C-0.95 2.54, -0.73 2.25, -0.54 2 M-1.17 2.82 C-0.98 2.58, -0.79 2.33, -0.54 2 M-0.54 2 C-0.44 1.77, -0.34 1.53, -0.14 1.04 M-0.54 2 C-0.38 1.62, -0.22 1.24, -0.14 1.04 M-0.14 1.04 C-0.09 0.66, -0.04 0.27, 0 0 M-0.14 1.04 C-0.11 0.82, -0.08 0.61, 0 0 M0 0 C0 0, 0 0, 0 0 M0 0 C0 0, 0 0, 0 0" stroke="#000" stroke-width="2" fill="none"/></g></g><mask/><g stroke-linecap="round"><g transform="translate(742.6621135423347 395.29695163832537) rotate(0 12.5 0)"><path d="M0 0 C9.39 0, 18.79 0, 25 0 M0 0 C5.84 0, 11.68 0, 25 0" stroke="#000" stroke-width="2" fill="none"/></g></g><mask/><g stroke-linecap="round"><g transform="translate(703.6621135423347 405.29695163832537) rotate(0 -13 0)"><path d="M0 0 C-5.71 0, -11.42 0, -26 0 M0 0 C-8.56 0, -17.12 0, -26 0" stroke="#000" stroke-width="2" fill="none"/></g></g><mask/><g stroke-linecap="round"><g transform="translate(704.6621135423347 385.29695163832537) rotate(0 -13.5 0)"><path d="M0 0 C-8.05 0, -16.09 0, -27 0 M0 0 C-7.8 0, -15.59 0, -27 0" stroke="#000" stroke-width="2" fill="none"/></g></g><mask/><g stroke-linecap="round"><g transform="translate(702.6621135423347 415.29695163832537) rotate(0 20 -20)" fill-rule="evenodd"><path d="M0 0 L0 -40 L20.24 -40 L20.24 -40 L22.29 -39.9 L24.28 -39.59 L26.19 -39.1 L28.02 -38.42 L29.75 -37.58 L31.38 -36.57 L34.29 -34.12 L36.68 -31.16 L38.48 -27.77 L39.13 -25.93 L39.61 -24.02 L39.9 -22.04 L40 -20 L39.9 -17.96 L39.61 -15.98 L39.13 -14.07 L38.48 -12.23 L36.68 -8.84 L34.29 -5.88 L31.38 -3.43 L29.75 -2.42 L28.02 -1.58 L26.19 -0.9 L24.28 -0.41 L22.29 -0.1 L20.24 0 L0 0 L0 0" stroke="none" stroke-width="0" fill="black" fill-rule="evenodd"/><path d="M0 0 C0 -8.34, 0 -16.69, 0 -40 M0 0 C0 -11.71, 0 -23.42, 0 -40 M0 -40 C5.82 -40, 11.63 -40, 20.24 -40 M0 -40 C5.67 -40, 11.34 -40, 20.24 -40 M20.24 -40 C20.24 -40, 20.24 -40, 20.24 -40 M20.24 -40 C20.24 -40, 20.24 -40, 20.24 -40 M20.24 -40 C20.72 -39.98, 21.21 -39.95, 22.29 -39.9 M20.24 -40 C20.71 -39.98, 21.18 -39.95, 22.29 -39.9 M22.29 -39.9 C22.75 -39.83, 23.22 -39.75, 24.28 -39.59 M22.29 -39.9 C22.88 -39.81, 23.48 -39.71, 24.28 -39.59 M24.28 -39.59 C24.83 -39.45, 25.38 -39.31, 26.19 -39.1 M24.28 -39.59 C24.67 -39.49, 25.05 -39.39, 26.19 -39.1 M26.19 -39.1 C26.91 -38.83, 27.62 -38.57, 28.02 -38.42 M26.19 -39.1 C26.57 -38.96, 26.95 -38.82, 28.02 -38.42 M28.02 -38.42 C28.38 -38.25, 28.73 -38.08, 29.75 -37.58 M28.02 -38.42 C28.56 -38.16, 29.1 -37.9, 29.75 -37.58 M29.75 -37.58 C30.27 -37.26, 30.79 -36.94, 31.38 -36.57 M29.75 -37.58 C30.2 -37.3, 30.64 -37.03, 31.38 -36.57 M31.38 -36.57 C32.28 -35.82, 33.18 -35.06, 34.29 -34.12 M31.38 -36.57 C32.17 -35.91, 32.95 -35.25, 34.29 -34.12 M34.29 -34.12 C35.22 -32.97, 36.15 -31.82, 36.68 -31.16 M34.29 -34.12 C35.08 -33.15, 35.87 -32.17, 36.68 -31.16 M36.68 -31.16 C37.17 -30.24, 37.66 -29.32, 38.48 -27.77 M36.68 -31.16 C37.37 -29.85, 38.07 -28.54, 38.48 -27.77 M38.48 -27.77 C38.62 -27.36, 38.77 -26.95, 39.13 -25.93 M38.48 -27.77 C38.68 -27.2, 38.88 -26.63, 39.13 -25.93 M39.13 -25.93 C39.28 -25.32, 39.43 -24.72, 39.61 -24.02 M39.13 -25.93 C39.3 -25.23, 39.48 -24.54, 39.61 -24.02 M39.61 -24.02 C39.69 -23.43, 39.78 -22.84, 39.9 -22.04 M39.61 -24.02 C39.68 -23.54, 39.75 -23.07, 39.9 -22.04 M39.9 -22.04 C39.92 -21.58, 39.95 -21.11, 40 -20 M39.9 -22.04 C39.93 -21.41, 39.96 -20.79, 40 -20 M40 -20 C39.97 -19.3, 39.93 -18.59, 39.9 -17.96 M40 -20 C39.98 -19.5, 39.95 -18.99, 39.9 -17.96 M39.9 -17.96 C39.8 -17.31, 39.71 -16.66, 39.61 -15.98 M39.9 -17.96 C39.81 -17.35, 39.72 -16.73, 39.61 -15.98 M39.61 -15.98 C39.44 -15.32, 39.28 -14.65, 39.13 -14.07 M39.61 -15.98 C39.44 -15.31, 39.27 -14.63, 39.13 -14.07 M39.13 -14.07 C38.93 -13.5, 38.72 -12.92, 38.48 -12.23 M39.13 -14.07 C38.95 -13.56, 38.77 -13.06, 38.48 -12.23 M38.48 -12.23 C37.86 -11.07, 37.25 -9.91, 36.68 -8.84 M38.48 -12.23 C37.98 -11.3, 37.49 -10.36, 36.68 -8.84 M36.68 -8.84 C36.18 -8.21, 35.67 -7.58, 34.29 -5.88 M36.68 -8.84 C35.99 -7.98, 35.3 -7.12, 34.29 -5.88 M34.29 -5.88 C33.66 -5.34, 33.03 -4.81, 31.38 -3.43 M34.29 -5.88 C33.62 -5.3, 32.94 -4.73, 31.38 -3.43 M31.38 -3.43 C31.02 -3.21, 30.67 -2.99, 29.75 -2.42 M31.38 -3.43 C30.98 -3.18, 30.58 -2.93, 29.75 -2.42 M29.75 -2.42 C29.21 -2.16, 28.66 -1.89, 28.02 -1.58 M29.75 -2.42 C29.17 -2.14, 28.59 -1.85, 28.02 -1.58 M28.02 -1.58 C27.51 -1.39, 27 -1.2, 26.19 -0.9 M28.02 -1.58 C27.61 -1.42, 27.19 -1.27, 26.19 -0.9 M26.19 -0.9 C25.75 -0.79, 25.3 -0.67, 24.28 -0.41 M26.19 -0.9 C25.44 -0.71, 24.68 -0.51, 24.28 -0.41 M24.28 -0.41 C23.71 -0.32, 23.13 -0.23, 22.29 -0.1 M24.28 -0.41 C23.65 -0.31, 23.01 -0.21, 22.29 -0.1 M22.29 -0.1 C21.84 -0.08, 21.39 -0.06, 20.24 0 M22.29 -0.1 C21.64 -0.07, 20.98 -0.04, 20.24 0 M20.24 0 C14.17 0, 8.11 0, 0 0 M20.24 0 C16.15 0, 12.07 0, 0 0 M0 0 C0 0, 0 0, 0 0 M0 0 C0 0, 0 0, 0 0 M0 0 C0 0, 0 0, 0 0 M0 0 C0 0, 0 0, 0 0" stroke="#00000000" stroke-width="2" fill="none"/></g></g><mask/><g stroke-linecap="round"><g transform="translate(704.6621135423347 412.29695163832537) rotate(0 17.142858505249023 -17.14285683631897)" fill-rule="evenodd"><path d="M0 0 L17.62 0 L17.62 0 L21.14 -0.35 L24.34 -1.34 L27.18 -2.92 L29.61 -5.01 L31.59 -7.54 L33.05 -10.46 L33.97 -13.68 L34.29 -17.14 L33.95 -20.61 L32.98 -23.83 L31.44 -26.74 L29.37 -29.28 L26.86 -31.37 L23.94 -32.94 L20.68 -33.94 L17.14 -34.29 L0 -34.29 L0 0 L0 0" stroke="none" stroke-width="0" fill="#FFFFFF" fill-rule="evenodd"/><path d="M0 0 C4.89 0, 9.79 0, 17.62 0 M0 0 C5.11 0, 10.22 0, 17.62 0 M17.62 0 C17.62 0, 17.62 0, 17.62 0 M17.62 0 C17.62 0, 17.62 0, 17.62 0 M17.62 0 C18.53 -0.09, 19.43 -0.18, 21.14 -0.35 M17.62 0 C18.33 -0.07, 19.05 -0.14, 21.14 -0.35 M21.14 -0.35 C21.93 -0.59, 22.71 -0.84, 24.34 -1.34 M21.14 -0.35 C22.38 -0.73, 23.63 -1.12, 24.34 -1.34 M24.34 -1.34 C24.99 -1.7, 25.64 -2.06, 27.18 -2.92 M24.34 -1.34 C25.25 -1.85, 26.17 -2.36, 27.18 -2.92 M27.18 -2.92 C27.81 -3.46, 28.44 -4, 29.61 -5.01 M27.18 -2.92 C28.01 -3.63, 28.84 -4.35, 29.61 -5.01 M29.61 -5.01 C30.19 -5.75, 30.76 -6.49, 31.59 -7.54 M29.61 -5.01 C30.16 -5.71, 30.7 -6.41, 31.59 -7.54 M31.59 -7.54 C31.96 -8.29, 32.34 -9.04, 33.05 -10.46 M31.59 -7.54 C32 -8.37, 32.42 -9.19, 33.05 -10.46 M33.05 -10.46 C33.33 -11.42, 33.6 -12.39, 33.97 -13.68 M33.05 -10.46 C33.32 -11.4, 33.59 -12.35, 33.97 -13.68 M33.97 -13.68 C34.05 -14.53, 34.13 -15.39, 34.29 -17.14 M33.97 -13.68 C34.05 -14.58, 34.13 -15.49, 34.29 -17.14 M34.29 -17.14 C34.2 -18.04, 34.11 -18.94, 33.95 -20.61 M34.29 -17.14 C34.15 -18.52, 34.02 -19.9, 33.95 -20.61 M33.95 -20.61 C33.67 -21.53, 33.39 -22.46, 32.98 -23.83 M33.95 -20.61 C33.73 -21.33, 33.51 -22.06, 32.98 -23.83 M32.98 -23.83 C32.47 -24.79, 31.96 -25.75, 31.44 -26.74 M32.98 -23.83 C32.66 -24.44, 32.33 -25.05, 31.44 -26.74 M31.44 -26.74 C30.84 -27.48, 30.24 -28.21, 29.37 -29.28 M31.44 -26.74 C30.99 -27.29, 30.54 -27.84, 29.37 -29.28 M29.37 -29.28 C28.81 -29.75, 28.24 -30.22, 26.86 -31.37 M29.37 -29.28 C28.5 -30, 27.63 -30.73, 26.86 -31.37 M26.86 -31.37 C26.22 -31.71, 25.59 -32.05, 23.94 -32.94 M26.86 -31.37 C25.75 -31.97, 24.64 -32.56, 23.94 -32.94 M23.94 -32.94 C23.25 -33.15, 22.56 -33.36, 20.68 -33.94 M23.94 -32.94 C23.21 -33.17, 22.49 -33.39, 20.68 -33.94 M20.68 -33.94 C19.66 -34.04, 18.64 -34.14, 17.14 -34.29 M20.68 -33.94 C19.44 -34.06, 18.2 -34.18, 17.14 -34.29 M17.14 -34.29 C11.87 -34.29, 6.6 -34.29, 0 -34.29 M17.14 -34.29 C12.87 -34.29, 8.59 -34.29, 0 -34.29 M0 -34.29 C0 -21.49, 0 -8.69, 0 0 M0 -34.29 C0 -25.26, 0 -16.23, 0 0 M0 0 C0 0, 0 0, 0 0 M0 0 C0 0, 0 0, 0 0 M0 0 C0 0, 0 0, 0 0 M0 0 C0 0, 0 0, 0 0" stroke="#00000000" stroke-width="2" fill="none"/></g></g><mask/><g stroke-linecap="round"><g transform="translate(81.66211354233474 513.2969516383254) rotate(0 298 -54)"><path d="M0 0 C151.03 0, 302.06 0, 596 0 M0 0 C230.18 0, 460.35 0, 596 0 M596 0 C596 -34.92, 596 -69.85, 596 -108 M596 0 C596 -39.52, 596 -79.05, 596 -108" stroke="#1e1e1e" stroke-width="2" fill="none"/></g></g><mask/><g stroke-linecap="round"><g transform="translate(452.66211354233474 513.2969516383254) rotate(0 0 -17)"><path d="M0 0 C0 -13.41, 0 -26.82, 0 -34 M0 0 C0 -12.56, 0 -25.11, 0 -34" stroke="#1e1e1e" stroke-width="2" fill="none"/></g></g><mask/><g stroke-linecap="round"><g transform="translate(542.6621135423347 479.29695163832537) rotate(0 13.5 -30)"><path d="M0 0 C0 -19.63, 0 -39.26, 0 -60 M0 0 C0 -22.3, 0 -44.59, 0 -60 M0 -60 C9.19 -60, 18.38 -60, 27 -60 M0 -60 C5.55 -60, 11.1 -60, 27 -60" stroke="#1e1e1e" stroke-width="2" fill="none"/></g></g><mask/><g stroke-linecap="round"><g transform="translate(677.6621135423347 385.29695163832537) rotate(0 -19.507483392117308 0)"><path d="M0 0 C-14.17 0, -28.34 0, -39.01 0 M0 0 C-7.92 0, -15.83 0, -39.01 0" stroke="#1e1e1e" stroke-width="2" fill="none"/></g></g><mask/><g stroke-linecap="round"><g transform="translate(569.6621135423347 385.29695163832537) rotate(0 -50.71589473170445 0)"><path d="M0 0 C-36.38 0, -72.77 0, -101.43 0 M0 0 C-27.34 0, -54.68 0, -101.43 0" stroke="#1e1e1e" stroke-width="2" fill="none"/></g></g><mask/><g stroke-linecap="round"><g transform="translate(261.66211354233474 385.29695163832537) rotate(0 12.5 0)"><path d="M0 0 C0 0, 0 0, 0 0 M0 0 C0 0, 0 0, 0 0 M0 0 C1.14 0, 2.29 0, 3.58 0 M0 0 C0.86 0, 1.73 0, 3.58 0 M3.58 0 C4.78 0, 5.97 0, 6.82 0 M3.58 0 C4.44 0, 5.31 0, 6.82 0 M6.82 0 C7.74 0, 8.66 0, 9.73 0 M6.82 0 C7.49 0, 8.16 0, 9.73 0 M9.73 0 C10.27 0, 10.82 0, 12.34 0 M9.73 0 C10.65 0, 11.57 0, 12.34 0 M12.34 0 C13.13 0, 13.92 0, 14.66 0 M12.34 0 C12.94 0, 13.53 0, 14.66 0 M14.66 0 C15.28 0, 15.91 0, 16.7 0 M14.66 0 C15.12 0, 15.58 0, 16.7 0 M16.7 0 C17.11 0, 17.52 0, 18.47 0 M16.7 0 C17.16 0, 17.61 0, 18.47 0 M18.47 0 C18.82 0, 19.18 0, 20 0 M18.47 0 C18.97 0, 19.46 0, 20 0 M20 0 C20.3 0, 20.6 0, 21.29 0 M20 0 C20.29 0, 20.58 0, 21.29 0 M21.29 0 C21.55 0, 21.81 0, 22.36 0 M21.29 0 C21.56 0, 21.82 0, 22.36 0 M22.36 0 C22.69 0, 23.02 0, 23.23 0 M22.36 0 C22.54 0, 22.73 0, 23.23 0 M23.23 0 C23.44 0, 23.65 0, 23.91 0 M23.23 0 C23.46 0, 23.69 0, 23.91 0 M23.91 0 C24.16 0, 24.41 0, 24.75 0 M23.91 0 C24.16 0, 24.42 0, 24.75 0 M24.75 0 C24.82 0, 24.89 0, 25 0 M24.75 0 C24.82 0, 24.9 0, 25 0" stroke="#000000" stroke-width="2" fill="none"/></g></g><mask/><g stroke-linecap="round"><g transform="translate(222.66211354233474 395.29695163832537) rotate(0 -13 0)"><path d="M0 0 C-8.82 0, -17.64 0, -26 0 M0 0 C-9.71 0, -19.43 0, -26 0" stroke="#000000" stroke-width="2" fill="none"/></g></g><mask/><g stroke-linecap="round"><g transform="translate(223.66211354233474 375.29695163832537) rotate(0 -13.5 0)"><path d="M0 0 C-9.89 0, -19.79 0, -27 0 M0 0 C-10.55 0, -21.11 0, -27 0" stroke="#000000" stroke-width="2" fill="none"/></g></g><mask/><g stroke-linecap="round"><g transform="translate(221.66211354233474 405.29695163832537) rotate(0 20.238094329833984 -20)"><path d="M0 0 C0 -0.47, 0 -0.94, 0 -1.43 M0 0 C0 -0.31, 0 -0.63, 0 -1.43 M0 -1.43 C0 -13.74, 0 -26.06, 0 -38.57 M0 -1.43 C0 -14.1, 0 -26.77, 0 -38.57 M0 -38.57 C0 -39.07, 0 -39.58, 0 -40 M0 -38.57 C0 -38.89, 0 -39.21, 0 -40 M0 -40 C0.49 -40, 0.98 -40, 1.43 -40 M0 -40 C0.42 -40, 0.84 -40, 1.43 -40 M1.43 -40 C6.79 -40, 12.15 -40, 20.48 -40 M1.43 -40 C5.4 -40, 9.38 -40, 20.48 -40 M20.48 -40 C20.48 -40, 20.48 -40, 20.48 -40 M20.48 -40 C20.48 -40, 20.48 -40, 20.48 -40 M20.48 -40 C21.11 -39.97, 21.75 -39.94, 22.56 -39.9 M20.48 -40 C21.04 -39.97, 21.6 -39.94, 22.56 -39.9 M22.56 -39.9 C23.09 -39.82, 23.62 -39.74, 24.57 -39.59 M22.56 -39.9 C23.32 -39.78, 24.08 -39.67, 24.57 -39.59 M24.57 -39.59 C24.97 -39.49, 25.37 -39.39, 26.51 -39.1 M24.57 -39.59 C25.27 -39.41, 25.96 -39.24, 26.51 -39.1 M26.51 -39.1 C27.05 -38.9, 27.58 -38.7, 28.35 -38.42 M26.51 -39.1 C26.98 -38.92, 27.45 -38.75, 28.35 -38.42 M28.35 -38.42 C28.99 -38.11, 29.63 -37.81, 30.11 -37.58 M28.35 -38.42 C28.84 -38.19, 29.32 -37.96, 30.11 -37.58 M30.11 -37.58 C30.44 -37.37, 30.78 -37.17, 31.76 -36.57 M30.11 -37.58 C30.51 -37.33, 30.92 -37.08, 31.76 -36.57 M31.76 -36.57 C32.81 -35.7, 33.86 -34.82, 34.7 -34.12 M31.76 -36.57 C32.57 -35.9, 33.38 -35.23, 34.7 -34.12 M34.7 -34.12 C35.66 -32.95, 36.63 -31.77, 37.12 -31.16 M34.7 -34.12 C35.2 -33.52, 35.69 -32.91, 37.12 -31.16 M37.12 -31.16 C37.77 -29.95, 38.42 -28.73, 38.94 -27.77 M37.12 -31.16 C37.6 -30.26, 38.09 -29.35, 38.94 -27.77 M38.94 -27.77 C39.18 -27.08, 39.43 -26.39, 39.6 -25.93 M38.94 -27.77 C39.16 -27.14, 39.39 -26.52, 39.6 -25.93 M39.6 -25.93 C39.76 -25.29, 39.92 -24.64, 40.08 -24.02 M39.6 -25.93 C39.7 -25.53, 39.8 -25.13, 40.08 -24.02 M40.08 -24.02 C40.18 -23.37, 40.27 -22.73, 40.38 -22.04 M40.08 -24.02 C40.14 -23.59, 40.21 -23.16, 40.38 -22.04 M40.38 -22.04 C40.4 -21.51, 40.43 -20.97, 40.48 -20 M40.38 -22.04 C40.41 -21.38, 40.44 -20.73, 40.48 -20 M40.48 -20 C40.44 -19.3, 40.41 -18.6, 40.38 -17.96 M40.48 -20 C40.44 -19.28, 40.41 -18.57, 40.38 -17.96 M40.38 -17.96 C40.29 -17.38, 40.2 -16.79, 40.08 -15.98 M40.38 -17.96 C40.3 -17.43, 40.22 -16.91, 40.08 -15.98 M40.08 -15.98 C39.98 -15.57, 39.87 -15.16, 39.6 -14.07 M40.08 -15.98 C39.98 -15.58, 39.88 -15.17, 39.6 -14.07 M39.6 -14.07 C39.46 -13.7, 39.33 -13.33, 38.94 -12.23 M39.6 -14.07 C39.35 -13.39, 39.11 -12.72, 38.94 -12.23 M38.94 -12.23 C38.53 -11.47, 38.12 -10.71, 37.12 -8.84 M38.94 -12.23 C38.54 -11.49, 38.14 -10.74, 37.12 -8.84 M37.12 -8.84 C36.3 -7.83, 35.48 -6.83, 34.7 -5.88 M37.12 -8.84 C36.15 -7.65, 35.19 -6.47, 34.7 -5.88 M34.7 -5.88 C33.66 -5.01, 32.62 -4.14, 31.76 -3.43 M34.7 -5.88 C33.66 -5.01, 32.63 -4.15, 31.76 -3.43 M31.76 -3.43 C31.33 -3.17, 30.9 -2.9, 30.11 -2.42 M31.76 -3.43 C31.12 -3.04, 30.48 -2.65, 30.11 -2.42 M30.11 -2.42 C29.61 -2.18, 29.12 -1.95, 28.35 -1.58 M30.11 -2.42 C29.52 -2.14, 28.93 -1.85, 28.35 -1.58 M28.35 -1.58 C27.77 -1.36, 27.18 -1.15, 26.51 -0.9 M28.35 -1.58 C27.96 -1.44, 27.57 -1.29, 26.51 -0.9 M26.51 -0.9 C25.76 -0.71, 25.01 -0.52, 24.57 -0.41 M26.51 -0.9 C26.01 -0.78, 25.52 -0.65, 24.57 -0.41 M24.57 -0.41 C24.04 -0.33, 23.51 -0.25, 22.56 -0.1 M24.57 -0.41 C24.16 -0.35, 23.74 -0.28, 22.56 -0.1 M22.56 -0.1 C21.86 -0.07, 21.16 -0.03, 20.48 0 M22.56 -0.1 C21.84 -0.07, 21.13 -0.03, 20.48 0 M20.48 0 C20.47 0, 20.46 0, 20.44 0 M20.48 0 C20.46 0, 20.45 0, 20.44 0 M20.44 0 C20.36 0, 20.28 0, 20.18 0 M20.44 0 C20.34 0, 20.24 0, 20.18 0 M20.18 0 C19.91 0, 19.63 0, 19.47 0 M20.18 0 C19.96 0, 19.75 0, 19.47 0 M19.47 0 C19.27 0, 19.06 0, 18.88 0 M19.47 0 C19.28 0, 19.08 0, 18.88 0 M18.88 0 C18.69 0, 18.49 0, 18.1 0 M18.88 0 C18.62 0, 18.35 0, 18.1 0 M18.1 0 C17.86 0, 17.62 0, 17.09 0 M18.1 0 C17.83 0, 17.56 0, 17.09 0 M17.09 0 C16.63 0, 16.18 0, 15.83 0 M17.09 0 C16.83 0, 16.57 0, 15.83 0 M15.83 0 C15.47 0, 15.12 0, 14.29 0 M15.83 0 C15.45 0, 15.08 0, 14.29 0 M14.29 0 C13.82 0, 13.35 0, 12.44 0 M14.29 0 C13.72 0, 13.15 0, 12.44 0 M12.44 0 C11.82 0, 11.2 0, 10.26 0 M12.44 0 C11.88 0, 11.33 0, 10.26 0 M10.26 0 C9.6 0, 8.94 0, 7.72 0 M10.26 0 C9.51 0, 8.76 0, 7.72 0 M7.72 0 C6.98 0, 6.23 0, 4.78 0 M7.72 0 C6.94 0, 6.17 0, 4.78 0 M4.78 0 C3.76 0, 2.73 0, 1.43 0 M4.78 0 C3.87 0, 2.95 0, 1.43 0 M1.43 0 C1.02 0, 0.61 0, 0 0 M1.43 0 C0.9 0, 0.37 0, 0 0 M0 0 C0 0, 0 0, 0 0 M0 0 C0 0, 0 0, 0 0" stroke="#000000" stroke-width="2" fill="none"/></g></g><mask/><g stroke-linecap="round"><g transform="translate(836.7769583115144 275.29695163832537) rotate(0 11.084918115410233 0)"><path d="M0 0 C5.6 0, 11.2 0, 22.17 0 M0 0 C7.79 0, 15.59 0, 22.17 0" stroke="#000" stroke-width="2" fill="none"/></g></g><mask/><g stroke-linecap="round"><g transform="translate(793.6621135423347 265.29695163832537) rotate(0 -13 0)"><path d="M0 0 C-8.91 0, -17.82 0, -26 0 M0 0 C-7.9 0, -15.79 0, -26 0" stroke="#000" stroke-width="2" fill="none"/></g></g><mask/><g stroke-linecap="round"><g transform="translate(793.741612129299 285.29695163832537) rotate(0 -13.039749293482146 0)"><path d="M0 0 C-6.16 0, -12.32 0, -26.08 0 M0 0 C-10.21 0, -20.42 0, -26.08 0" stroke="#000" stroke-width="2" fill="none"/></g></g><mask/><g stroke-linecap="round"><g transform="translate(788.0405445423348 255.29695163832534) rotate(0 24.301616975389493 20)"><path d="M0 0 C0.77 0.94, 1.54 1.87, 2 2.44 M0 0 C0.48 0.58, 0.96 1.17, 2 2.44 M2 2.44 C2 2.44, 2 2.44, 2 2.44 M2 2.44 C2 2.44, 2 2.44, 2 2.44 M2 2.44 C2.02 2.47, 2.05 2.5, 2.06 2.52 M2 2.44 C2.02 2.46, 2.04 2.49, 2.06 2.52 M2.06 2.52 C2.13 2.61, 2.2 2.7, 2.24 2.76 M2.06 2.52 C2.11 2.58, 2.16 2.64, 2.24 2.76 M2.24 2.76 C2.41 3.01, 2.58 3.25, 2.88 3.7 M2.24 2.76 C2.46 3.08, 2.68 3.39, 2.88 3.7 M2.88 3.7 C3.17 4.18, 3.46 4.66, 3.79 5.21 M2.88 3.7 C3.1 4.05, 3.31 4.41, 3.79 5.21 M3.79 5.21 C4.2 6.01, 4.6 6.81, 4.83 7.26 M3.79 5.21 C4.1 5.83, 4.42 6.44, 4.83 7.26 M4.83 7.26 C5.11 7.96, 5.4 8.66, 5.87 9.8 M4.83 7.26 C5.05 7.81, 5.28 8.36, 5.87 9.8 M5.87 9.8 C6.23 10.99, 6.59 12.19, 6.77 12.8 M5.87 9.8 C6.09 10.53, 6.31 11.25, 6.77 12.8 M6.77 12.8 C6.94 13.68, 7.1 14.56, 7.41 16.21 M6.77 12.8 C6.93 13.66, 7.1 14.52, 7.41 16.21 M7.41 16.21 C7.48 17.31, 7.55 18.41, 7.66 20 M7.41 16.21 C7.51 17.67, 7.6 19.13, 7.66 20 M7.66 20 C7.58 21.23, 7.5 22.45, 7.41 23.79 M7.66 20 C7.59 21.09, 7.52 22.18, 7.41 23.79 M7.41 23.79 C7.27 24.57, 7.12 25.36, 6.77 27.2 M7.41 23.79 C7.19 24.99, 6.96 26.19, 6.77 27.2 M6.77 27.2 C6.42 28.36, 6.07 29.51, 5.87 30.2 M6.77 27.2 C6.44 28.3, 6.11 29.4, 5.87 30.2 M5.87 30.2 C5.53 31.03, 5.19 31.87, 4.83 32.74 M5.87 30.2 C5.49 31.11, 5.12 32.02, 4.83 32.74 M4.83 32.74 C4.61 33.17, 4.4 33.59, 3.79 34.79 M4.83 32.74 C4.59 33.22, 4.34 33.7, 3.79 34.79 M3.79 34.79 C3.56 35.17, 3.34 35.55, 2.88 36.3 M3.79 34.79 C3.59 35.12, 3.39 35.46, 2.88 36.3 M2.88 36.3 C2.75 36.5, 2.62 36.69, 2.24 37.24 M2.88 36.3 C2.68 36.61, 2.47 36.91, 2.24 37.24 M2.24 37.24 C2.2 37.29, 2.16 37.35, 2.06 37.48 M2.24 37.24 C2.18 37.32, 2.12 37.41, 2.06 37.48 M2.06 37.48 C2.05 37.5, 2.03 37.52, 2 37.56 M2.06 37.48 C2.04 37.51, 2.02 37.54, 2 37.56 M2 37.56 C1.6 38.05, 1.2 38.54, 0 40 M2 37.56 C1.3 38.42, 0.6 39.27, 0 40 M0 40 C4.78 40, 9.55 40, 17.16 40 M0 40 C3.54 40, 7.07 40, 17.16 40 M17.16 40 C17.16 40, 17.16 40, 17.16 40 M17.16 40 C17.16 40, 17.16 40, 17.16 40 M17.16 40 C17.41 40, 17.67 40, 18.19 40 M17.16 40 C17.53 40, 17.9 40, 18.19 40 M18.19 40 C18.54 39.99, 18.89 39.98, 19.47 39.97 M18.19 40 C18.7 39.98, 19.2 39.97, 19.47 39.97 M19.47 39.97 C20.06 39.93, 20.66 39.9, 20.96 39.88 M19.47 39.97 C19.86 39.94, 20.24 39.92, 20.96 39.88 M20.96 39.88 C21.42 39.83, 21.87 39.79, 22.65 39.71 M20.96 39.88 C21.36 39.84, 21.77 39.8, 22.65 39.71 M22.65 39.71 C23.04 39.65, 23.44 39.59, 24.5 39.42 M22.65 39.71 C23.06 39.64, 23.48 39.58, 24.5 39.42 M24.5 39.42 C25.1 39.29, 25.71 39.16, 26.49 39 M24.5 39.42 C25.21 39.27, 25.92 39.12, 26.49 39 M26.49 39 C26.96 38.86, 27.44 38.72, 28.59 38.4 M26.49 39 C27.06 38.83, 27.64 38.67, 28.59 38.4 M28.59 38.4 C29.28 38.14, 29.97 37.89, 30.78 37.59 M28.59 38.4 C29.35 38.12, 30.1 37.84, 30.78 37.59 M30.78 37.59 C31.29 37.36, 31.81 37.12, 33.03 36.56 M30.78 37.59 C31.51 37.26, 32.24 36.92, 33.03 36.56 M33.03 36.56 C33.93 36.06, 34.82 35.55, 35.32 35.27 M33.03 36.56 C33.93 36.06, 34.82 35.55, 35.32 35.27 M35.32 35.27 C35.92 34.86, 36.52 34.45, 37.63 33.7 M35.32 35.27 C36.22 34.66, 37.12 34.05, 37.63 33.7 M37.63 33.7 C38.49 32.99, 39.35 32.28, 39.92 31.82 M37.63 33.7 C38.27 33.17, 38.91 32.65, 39.92 31.82 M39.92 31.82 C40.42 31.33, 40.91 30.85, 42.17 29.61 M39.92 31.82 C40.77 30.99, 41.62 30.15, 42.17 29.61 M42.17 29.61 C42.76 28.91, 43.36 28.22, 44.37 27.03 M42.17 29.61 C43.04 28.59, 43.91 27.57, 44.37 27.03 M44.37 27.03 C44.91 26.28, 45.45 25.52, 46.47 24.08 M44.37 27.03 C44.99 26.17, 45.61 25.3, 46.47 24.08 M46.47 24.08 C46.91 23.34, 47.35 22.6, 48.47 20.72 M46.47 24.08 C47.11 23.01, 47.74 21.94, 48.47 20.72 M48.47 20.72 C48.52 20.45, 48.57 20.19, 48.6 20 M48.47 20.72 C48.5 20.54, 48.53 20.37, 48.6 20 M48.6 20 C48.56 19.76, 48.51 19.52, 48.47 19.28 M48.6 20 C48.57 19.84, 48.54 19.68, 48.47 19.28 M48.47 19.28 C48.47 19.28, 48.47 19.28, 48.47 19.28 M48.47 19.28 C48.47 19.28, 48.47 19.28, 48.47 19.28 M48.47 19.28 C47.94 18.39, 47.41 17.51, 46.47 15.92 M48.47 19.28 C47.89 18.31, 47.31 17.33, 46.47 15.92 M46.47 15.92 C45.83 15.02, 45.18 14.12, 44.36 12.98 M46.47 15.92 C45.74 14.9, 45.01 13.89, 44.36 12.98 M44.36 12.98 C43.87 12.41, 43.38 11.84, 42.16 10.42 M44.36 12.98 C43.74 12.25, 43.11 11.53, 42.16 10.42 M42.16 10.42 C41.26 9.55, 40.36 8.68, 39.9 8.23 M42.16 10.42 C41.29 9.57, 40.41 8.72, 39.9 8.23 M39.9 8.23 C39.04 7.53, 38.19 6.84, 37.6 6.36 M39.9 8.23 C39.04 7.53, 38.18 6.83, 37.6 6.36 M37.6 6.36 C36.89 5.88, 36.19 5.41, 35.29 4.8 M37.6 6.36 C37.03 5.98, 36.47 5.6, 35.29 4.8 M35.29 4.8 C34.76 4.51, 34.24 4.22, 32.99 3.52 M35.29 4.8 C34.54 4.39, 33.8 3.97, 32.99 3.52 M32.99 3.52 C32.31 3.21, 31.64 2.9, 30.73 2.49 M32.99 3.52 C32.3 3.21, 31.61 2.89, 30.73 2.49 M30.73 2.49 C30.16 2.28, 29.59 2.07, 28.54 1.68 M30.73 2.49 C30.09 2.25, 29.44 2.01, 28.54 1.68 M28.54 1.68 C27.91 1.5, 27.28 1.32, 26.44 1.07 M28.54 1.68 C28 1.53, 27.47 1.37, 26.44 1.07 M26.44 1.07 C25.86 0.94, 25.28 0.82, 24.45 0.63 M26.44 1.07 C25.95 0.96, 25.46 0.86, 24.45 0.63 M24.45 0.63 C23.94 0.55, 23.43 0.47, 22.61 0.33 M24.45 0.63 C23.94 0.55, 23.44 0.47, 22.61 0.33 M22.61 0.33 C22.11 0.28, 21.61 0.22, 20.93 0.15 M22.61 0.33 C22.05 0.27, 21.49 0.21, 20.93 0.15 M20.93 0.15 C20.54 0.12, 20.15 0.09, 19.44 0.05 M20.93 0.15 C20.57 0.12, 20.21 0.1, 19.44 0.05 M19.44 0.05 C19.19 0.04, 18.93 0.03, 18.18 0.01 M19.44 0.05 C19.06 0.03, 18.67 0.02, 18.18 0.01 M18.18 0.01 C17.84 0, 17.49 0, 17.16 0 M18.18 0.01 C17.83 0, 17.49 0, 17.16 0 M17.16 0 C12.07 0, 6.98 0, 0 0 M17.16 0 C11.76 0, 6.36 0, 0 0 M0 0 C0 0, 0 0, 0 0 M0 0 C0 0, 0 0, 0 0" stroke="#000000" stroke-width="2" fill="none"/></g></g><mask/><g stroke-linecap="round"><g transform="translate(767.6621135423347 142.29695163832534) rotate(0 0 61.5)"><path d="M0 0 C0 40.06, 0 80.12, 0 123 M0 0 C0 32.29, 0 64.58, 0 123" stroke="#1e1e1e" stroke-width="2" fill="none"/></g></g><mask/><g stroke-linecap="round"><g transform="translate(767.6621135423347 285.29695163832537) rotate(0 0 55)"><path d="M0 0 C0 37.61, 0 75.22, 0 110 M0 0 C0 37.24, 0 74.49, 0 110" stroke="#1e1e1e" stroke-width="2" fill="none"/></g></g><mask/><g stroke-linecap="round"><g transform="translate(107.66211354233474 142.29695163832534) rotate(0 44.5 126.5)"><path d="M0 0 C0 99.89, 0 199.78, 0 253 M0 0 C0 52.95, 0 105.9, 0 253 M0 253 C27.67 253, 55.33 253, 89 253 M0 253 C30.87 253, 61.75 253, 89 253" stroke="#1e1e1e" stroke-width="2" fill="none"/></g></g><mask/><g stroke-linecap="round"><g transform="translate(38.66211354233474 269.29695163832537) rotate(0 34.5 0)"><path d="M0 0 C25.97 0, 51.95 0, 69 0 M0 0 C23.07 0, 46.14 0, 69 0" stroke="#1e1e1e" stroke-width="2" fill="none"/></g></g><mask/><g stroke-linecap="round"><g transform="translate(390.5051997850105 223.29695163832534) rotate(0 -7.921543121337891 0)"><path d="M0 0 C-5.57 0, -11.14 0, -15.84 0 M0 0 C-4.76 0, -9.52 0, -15.84 0" stroke="#000" stroke-width="2" fill="none"/></g></g><mask/><g stroke-linecap="round"><g transform="translate(440.5051997850105 223.29695163832534) rotate(0 12 0)"><path d="M0 0 C7.41 0, 14.82 0, 24 0 M0 0 C7.26 0, 14.53 0, 24 0" stroke="#000" stroke-width="2" fill="none"/></g></g><mask/><g stroke-linecap="round"><g transform="translate(441.5051997850105 201.29695163832534) rotate(0 -20.882646461663285 22.40625)"><path d="M0 0 C0 11.2, 0 22.39, 0 44.81 M0 0 C0 15.86, 0 31.73, 0 44.81 M0 44.81 C-0.49 44.56, -0.99 44.31, -2.09 43.75 M0 44.81 C-0.8 44.4, -1.61 43.99, -2.09 43.75 M-2.09 43.75 C-14.22 37.64, -26.35 31.52, -41.77 23.75 M-2.09 43.75 C-13.3 38.1, -24.51 32.45, -41.77 23.75 M-41.77 23.75 C-41.77 22.97, -41.77 22.18, -41.77 21.06 M-41.77 23.75 C-41.77 22.68, -41.77 21.61, -41.77 21.06 M-41.77 21.06 C-28.22 14.23, -14.67 7.41, -2.09 1.06 M-41.77 21.06 C-32.75 16.52, -23.73 11.97, -2.09 1.06 M-2.09 1.06 C-1.34 0.68, -0.6 0.3, 0 0 M-2.09 1.06 C-1.55 0.79, -1.01 0.51, 0 0 M0 0 C0 0, 0 0, 0 0 M0 0 C0 0, 0 0, 0 0" stroke="#1e1e1e" stroke-width="2" fill="none"/></g></g><mask/><g stroke-linecap="round"><g transform="translate(391.5051997850105 223.29695163832534) rotate(0 4 0)"><path d="M0 0 C0 0, 0 0, 0 0 M0 0 C0 0, 0 0, 0 0 M0 0 C0.04 0.33, 0.09 0.65, 0.15 1.1 M0 0 C0.05 0.35, 0.1 0.71, 0.15 1.1 M0.15 1.1 C0.25 1.33, 0.35 1.56, 0.56 2.06 M0.15 1.1 C0.28 1.4, 0.41 1.7, 0.56 2.06 M0.56 2.06 C0.82 2.38, 1.07 2.69, 1.2 2.86 M0.56 2.06 C0.78 2.34, 1 2.61, 1.2 2.86 M1.2 2.86 C1.52 3.1, 1.84 3.34, 2 3.46 M1.2 2.86 C1.49 3.08, 1.79 3.3, 2 3.46 M2 3.46 C2.2 3.55, 2.41 3.64, 2.93 3.86 M2 3.46 C2.19 3.54, 2.37 3.62, 2.93 3.86 M2.93 3.86 C3.19 3.89, 3.45 3.93, 3.94 4.01 M2.93 3.86 C3.15 3.89, 3.38 3.92, 3.94 4.01 M3.94 4.01 C4.3 3.96, 4.67 3.92, 4.98 3.88 M3.94 4.01 C4.16 3.98, 4.38 3.95, 4.98 3.88 M4.98 3.88 C5.22 3.78, 5.47 3.68, 6 3.46 M4.98 3.88 C5.2 3.79, 5.42 3.7, 6 3.46 M6 3.46 C6.33 3.21, 6.66 2.96, 6.83 2.82 M6 3.46 C6.32 3.22, 6.63 2.98, 6.83 2.82 M6.83 2.82 C7 2.61, 7.16 2.39, 7.46 2 M6.83 2.82 C6.98 2.63, 7.13 2.43, 7.46 2 M7.46 2 C7.59 1.69, 7.72 1.37, 7.86 1.04 M7.46 2 C7.6 1.68, 7.73 1.35, 7.86 1.04 M7.86 1.04 C7.91 0.69, 7.95 0.34, 8 0 M7.86 1.04 C7.91 0.7, 7.95 0.36, 8 0 M8 0 C7.95 -0.38, 7.9 -0.75, 7.85 -1.1 M8 0 C7.94 -0.42, 7.89 -0.85, 7.85 -1.1 M7.85 -1.1 C7.7 -1.45, 7.55 -1.8, 7.44 -2.06 M7.85 -1.1 C7.73 -1.38, 7.61 -1.66, 7.44 -2.06 M7.44 -2.06 C7.3 -2.24, 7.15 -2.41, 6.8 -2.86 M7.44 -2.06 C7.26 -2.28, 7.09 -2.49, 6.8 -2.86 M6.8 -2.86 C6.51 -3.08, 6.21 -3.3, 6 -3.46 M6.8 -2.86 C6.58 -3.02, 6.36 -3.19, 6 -3.46 M6 -3.46 C5.68 -3.6, 5.35 -3.74, 5.07 -3.86 M6 -3.46 C5.81 -3.54, 5.63 -3.62, 5.07 -3.86 M5.07 -3.86 C4.83 -3.89, 4.58 -3.93, 4.06 -4.01 M5.07 -3.86 C4.69 -3.91, 4.3 -3.97, 4.06 -4.01 M4.06 -4.01 C3.75 -3.97, 3.45 -3.93, 3.02 -3.88 M4.06 -4.01 C3.83 -3.98, 3.6 -3.95, 3.02 -3.88 M3.02 -3.88 C2.63 -3.72, 2.24 -3.56, 2 -3.46 M3.02 -3.88 C2.75 -3.77, 2.47 -3.66, 2 -3.46 M2 -3.46 C1.8 -3.31, 1.6 -3.16, 1.17 -2.82 M2 -3.46 C1.79 -3.3, 1.58 -3.14, 1.17 -2.82 M1.17 -2.82 C0.98 -2.58, 0.79 -2.34, 0.54 -2 M1.17 -2.82 C0.95 -2.54, 0.73 -2.25, 0.54 -2 M0.54 -2 C0.4 -1.67, 0.26 -1.34, 0.14 -1.04 M0.54 -2 C0.44 -1.77, 0.34 -1.53, 0.14 -1.04 M0.14 -1.04 C0.09 -0.66, 0.04 -0.27, 0 0 M0.14 -1.04 C0.09 -0.65, 0.03 -0.25, 0 0 M0 0 C0 0, 0 0, 0 0 M0 0 C0 0, 0 0, 0 0" stroke="#000" stroke-width="2" fill="none"/></g></g><mask/><g stroke-linecap="round"><g transform="translate(390.5051997850105 310.29695163832537) rotate(0 -7.921543121337891 0)"><path d="M0 0 C-4.11 0, -8.22 0, -15.84 0 M0 0 C-4.55 0, -9.09 0, -15.84 0" stroke="#000" stroke-width="2" fill="none"/></g></g><mask/><g stroke-linecap="round"><g transform="translate(440.5051997850105 310.29695163832537) rotate(0 12 0)"><path d="M0 0 C9.06 0, 18.12 0, 24 0 M0 0 C7.42 0, 14.85 0, 24 0" stroke="#000" stroke-width="2" fill="none"/></g></g><mask/><g stroke-linecap="round"><g transform="translate(441.5051997850105 288.29695163832537) rotate(0 -20.882646461663285 22.40625)"><path d="M0 0 C0 13.95, 0 27.91, 0 44.81 M0 0 C0 17.66, 0 35.31, 0 44.81 M0 44.81 C-0.44 44.59, -0.87 44.37, -2.09 43.75 M0 44.81 C-0.55 44.53, -1.1 44.25, -2.09 43.75 M-2.09 43.75 C-17.89 35.78, -33.69 27.82, -41.77 23.75 M-2.09 43.75 C-14.49 37.5, -26.9 31.24, -41.77 23.75 M-41.77 23.75 C-41.77 22.8, -41.77 21.85, -41.77 21.06 M-41.77 23.75 C-41.77 22.78, -41.77 21.81, -41.77 21.06 M-41.77 21.06 C-30.08 15.17, -18.4 9.28, -2.09 1.06 M-41.77 21.06 C-32.2 16.24, -22.63 11.42, -2.09 1.06 M-2.09 1.06 C-1.62 0.82, -1.15 0.59, 0 0 M-2.09 1.06 C-1.56 0.8, -1.04 0.53, 0 0 M0 0 C0 0, 0 0, 0 0 M0 0 C0 0, 0 0, 0 0" stroke="#1e1e1e" stroke-width="2" fill="none"/></g></g><mask/><g stroke-linecap="round"><g transform="translate(391.5051997850105 310.29695163832537) rotate(0 4 0)"><path d="M0 0 C0 0, 0 0, 0 0 M0 0 C0 0, 0 0, 0 0 M0 0 C0.03 0.25, 0.07 0.5, 0.15 1.1 M0 0 C0.06 0.43, 0.12 0.85, 0.15 1.1 M0.15 1.1 C0.29 1.41, 0.42 1.73, 0.56 2.06 M0.15 1.1 C0.28 1.4, 0.41 1.71, 0.56 2.06 M0.56 2.06 C0.82 2.38, 1.07 2.7, 1.2 2.86 M0.56 2.06 C0.81 2.37, 1.05 2.68, 1.2 2.86 M1.2 2.86 C1.4 3.01, 1.6 3.16, 2 3.46 M1.2 2.86 C1.4 3.01, 1.61 3.17, 2 3.46 M2 3.46 C2.27 3.58, 2.53 3.69, 2.93 3.86 M2 3.46 C2.31 3.6, 2.63 3.73, 2.93 3.86 M2.93 3.86 C3.29 3.91, 3.65 3.96, 3.94 4.01 M2.93 3.86 C3.2 3.9, 3.47 3.94, 3.94 4.01 M3.94 4.01 C4.33 3.96, 4.73 3.91, 4.98 3.88 M3.94 4.01 C4.31 3.96, 4.67 3.92, 4.98 3.88 M4.98 3.88 C5.19 3.79, 5.41 3.7, 6 3.46 M4.98 3.88 C5.21 3.79, 5.44 3.69, 6 3.46 M6 3.46 C6.23 3.29, 6.45 3.12, 6.83 2.82 M6 3.46 C6.25 3.27, 6.51 3.07, 6.83 2.82 M6.83 2.82 C7.08 2.51, 7.32 2.19, 7.46 2 M6.83 2.82 C6.99 2.62, 7.15 2.41, 7.46 2 M7.46 2 C7.56 1.77, 7.65 1.54, 7.86 1.04 M7.46 2 C7.55 1.8, 7.63 1.59, 7.86 1.04 M7.86 1.04 C7.89 0.81, 7.92 0.58, 8 0 M7.86 1.04 C7.9 0.72, 7.95 0.4, 8 0 M8 0 C7.96 -0.29, 7.92 -0.59, 7.85 -1.1 M8 0 C7.96 -0.28, 7.92 -0.56, 7.85 -1.1 M7.85 -1.1 C7.73 -1.37, 7.61 -1.65, 7.44 -2.06 M7.85 -1.1 C7.75 -1.32, 7.65 -1.55, 7.44 -2.06 M7.44 -2.06 C7.29 -2.24, 7.14 -2.43, 6.8 -2.86 M7.44 -2.06 C7.21 -2.34, 6.98 -2.63, 6.8 -2.86 M6.8 -2.86 C6.54 -3.06, 6.27 -3.26, 6 -3.46 M6.8 -2.86 C6.55 -3.04, 6.3 -3.23, 6 -3.46 M6 -3.46 C5.7 -3.59, 5.41 -3.71, 5.07 -3.86 M6 -3.46 C5.81 -3.55, 5.61 -3.63, 5.07 -3.86 M5.07 -3.86 C4.77 -3.9, 4.47 -3.95, 4.06 -4.01 M5.07 -3.86 C4.8 -3.9, 4.54 -3.93, 4.06 -4.01 M4.06 -4.01 C3.66 -3.96, 3.26 -3.91, 3.02 -3.88 M4.06 -4.01 C3.82 -3.98, 3.58 -3.95, 3.02 -3.88 M3.02 -3.88 C2.67 -3.74, 2.33 -3.6, 2 -3.46 M3.02 -3.88 C2.74 -3.77, 2.45 -3.65, 2 -3.46 M2 -3.46 C1.82 -3.33, 1.64 -3.19, 1.17 -2.82 M2 -3.46 C1.81 -3.32, 1.62 -3.17, 1.17 -2.82 M1.17 -2.82 C0.92 -2.5, 0.67 -2.17, 0.54 -2 M1.17 -2.82 C1.04 -2.65, 0.91 -2.49, 0.54 -2 M0.54 -2 C0.43 -1.75, 0.33 -1.5, 0.14 -1.04 M0.54 -2 C0.41 -1.69, 0.28 -1.38, 0.14 -1.04 M0.14 -1.04 C0.11 -0.83, 0.08 -0.62, 0 0 M0.14 -1.04 C0.09 -0.7, 0.05 -0.36, 0 0 M0 0 C0 0, 0 0, 0 0 M0 0 C0 0, 0 0, 0 0" stroke="#000" stroke-width="2" fill="none"/></g></g><mask/><g stroke-linecap="round"><g transform="translate(643.6621135423347 152.29695163832534) rotate(0 -89.5 35.5)"><path d="M0 0 C0 25.92, 0 51.83, 0 71 M0 0 C0 23.9, 0 47.79, 0 71 M0 71 C-52.48 71, -104.96 71, -179 71 M0 71 C-52.36 71, -104.73 71, -179 71" stroke="#1e1e1e" stroke-width="2" fill="none"/></g></g><mask/><g stroke-linecap="round"><g transform="translate(643.6621135423347 384.29695163832537) rotate(0 -90 -37)"><path d="M0 0 C0 -17.97, 0 -35.95, 0 -74 M0 0 C0 -19.74, 0 -39.49, 0 -74 M0 -74 C-69.15 -74, -138.29 -74, -180 -74 M0 -74 C-36.31 -74, -72.61 -74, -180 -74" stroke="#1e1e1e" stroke-width="2" fill="none"/></g></g><mask/><g stroke-linecap="round"><g transform="translate(195.66211354233474 162.29695163832534) rotate(0 89.5 74)"><path d="M0 0 C0 7.34, 0 14.68, 0 28 M0 0 C0 6.25, 0 12.5, 0 28 M0 28 C40.45 55.12, 80.9 82.24, 179 148 M0 28 C69.96 74.9, 139.93 121.81, 179 148" stroke="#1e1e1e" stroke-width="2" fill="none"/></g></g><mask/><g stroke-linecap="round"><g transform="translate(195.66211354233474 375.29695163832537) rotate(0 90 -76)"><path d="M0 0 C0 -8.85, 0 -17.71, 0 -29 M0 0 C0 -9.3, 0 -18.61, 0 -29 M0 -29 C71.1 -77.58, 142.19 -126.17, 180 -152 M0 -29 C57.02 -67.96, 114.04 -106.92, 180 -152" stroke="#1e1e1e" stroke-width="2" fill="none"/></g></g><mask/><g transform="translate(31.217022445817634 10) rotate(0 23.4375 9.599999999999994)"><text x="0" y="15.45" font-family="Cascadia, Segoe UI Emoji" font-size="16px" fill="#1e1e1e" text-anchor="start" style="white-space: pre;" direction="ltr" dominant-baseline="alphabetic">CLK_A</text></g><g transform="translate(27.288037475927922 499.56647662419266) rotate(0 23.4375 9.600000000000023)"><text x="0" y="15.45" font-family="Cascadia, Segoe UI Emoji" font-size="16px" fill="#1e1e1e" text-anchor="start" style="white-space: pre;" direction="ltr" dominant-baseline="alphabetic">CLK_B</text></g><g transform="translate(10 240.24555476497736) rotate(0 14.0625 9.599999999999994)"><text x="0" y="15.45" font-family="Cascadia, Segoe UI Emoji" font-size="16px" fill="#1e1e1e" text-anchor="start" style="white-space: pre;" direction="ltr" dominant-baseline="alphabetic">sel</text></g><g stroke-linecap="round"><g transform="translate(265.43936743806387 24.29695163832534) rotate(0 10.111373052135434 46.5)"><path d="M0 0 C0 23.03, 0 46.07, 0 93 M0 0 C0 33.61, 0 67.21, 0 93 M0 93 C4.99 93, 9.97 93, 20.22 93 M0 93 C5.23 93, 10.45 93, 20.22 93" stroke="#1e1e1e" stroke-width="2" fill="none"/></g></g><mask/><g stroke-linecap="round"><g transform="translate(363.66211354233474 24.29695163832534) rotate(0 10.111373052135434 46.5)"><path d="M0 0 C0 29.86, 0 59.72, 0 93 M0 0 C0 24.21, 0 48.43, 0 93 M0 93 C4.5 93, 9 93, 20.22 93 M0 93 C7.5 93, 14.99 93, 20.22 93" stroke="#1e1e1e" stroke-width="2" fill="none"/></g></g><mask/><g stroke-linecap="round"><g transform="translate(264.66211354233474 513.2969516383254) rotate(0 10.111373052135434 -46.5)"><path d="M0 0 C0 -23.2, 0 -46.4, 0 -93 M0 0 C0 -33.89, 0 -67.77, 0 -93 M0 -93 C4.15 -93, 8.3 -93, 20.22 -93 M0 -93 C7.19 -93, 14.38 -93, 20.22 -93" stroke="#1e1e1e" stroke-width="2" fill="none"/></g></g><mask/><g stroke-linecap="round"><g transform="translate(363.66211354233474 513.2969516383254) rotate(0 10.111373052135434 -46.5)"><path d="M0 0 C0 -25.66, 0 -51.31, 0 -93 M0 0 C0 -35.26, 0 -70.53, 0 -93 M0 -93 C7.64 -93, 15.29 -93, 20.22 -93 M0 -93 C7.41 -93, 14.82 -93, 20.22 -93" stroke="#1e1e1e" stroke-width="2" fill="none"/></g></g><mask/></svg>