<svg version="1.1" xmlns="http://www.w3.org/2000/svg" viewBox="0 0 765 528.1999999999998" width="765" height="528.1999999999998" class="excalidraw-svg">
  <!-- svg-source:excalidraw -->
  
  <defs>
    <style class="style-fonts">
      @font-face {
        font-family: "Virgil";
        src: url("https://excalidraw.com/Virgil.woff2");
      }
      @font-face {
        font-family: "Cascadia";
        src: url("https://excalidraw.com/Cascadia.woff2");
      }
      @font-face {
        font-family: "Assistant";
        src: url("https://excalidraw.com/Assistant-Regular.woff2");
      }
    </style>
    
  </defs>
  <rect x="0" y="0" width="765" height="528.1999999999998" fill="#ffffff"/><g stroke-linecap="round" transform="translate(301 97) rotate(0 27.5 37.5)"><path d="M0 0 L55 0 L55 75 L0 75" stroke="none" stroke-width="0" fill="#b2f2bb"/><path d="M0 0 C14.8 0, 29.59 0, 55 0 M0 0 C18.41 0, 36.83 0, 55 0 M55 0 C55 28.38, 55 56.75, 55 75 M55 0 C55 28.39, 55 56.78, 55 75 M55 75 C38.11 75, 21.22 75, 0 75 M55 75 C35.23 75, 15.47 75, 0 75 M0 75 C0 53.44, 0 31.89, 0 0 M0 75 C0 51.64, 0 28.29, 0 0" stroke="#1e1e1e" stroke-width="2" fill="none"/></g><g stroke-linecap="round"><g transform="translate(301 152) rotate(0 -7.5 0)"><path d="M0 0 C-4.38 0, -8.75 0, -15 0 M0 0 C-4.09 0, -8.17 0, -15 0" stroke="#1e1e1e" stroke-width="2" fill="none"/></g></g><mask/><g stroke-linecap="round"><g transform="translate(301 122) rotate(0 5.5 -5)"><path d="M0 0 C2.25 -1.02, 4.49 -2.04, 11 -5 M0 0 C3.46 -1.57, 6.92 -3.15, 11 -5 M11 -5 C7.09 -6.78, 3.18 -8.56, 0 -10 M11 -5 C7.78 -6.46, 4.57 -7.92, 0 -10" stroke="#1e1e1e" stroke-width="2" fill="none"/></g></g><mask/><g stroke-linecap="round"><g transform="translate(384 152) rotate(0 -14 0)"><path d="M0 0 C-10.84 0, -21.68 0, -28 0 M0 0 C-8.29 0, -16.59 0, -28 0" stroke="#1e1e1e" stroke-width="2" fill="none"/></g></g><mask/><g stroke-linecap="round"><g transform="translate(301 117) rotate(0 -7.5 0)"><path d="M0 0 C-3.24 0, -6.48 0, -15 0 M0 0 C-3.89 0, -7.77 0, -15 0" stroke="#1e1e1e" stroke-width="2" fill="none"/></g></g><mask/><g stroke-linecap="round" transform="translate(398 97) rotate(0 27.5 37.5)"><path d="M0 0 L55 0 L55 75 L0 75" stroke="none" stroke-width="0" fill="#b2f2bb"/><path d="M0 0 C11.81 0, 23.61 0, 55 0 M0 0 C13.62 0, 27.24 0, 55 0 M55 0 C55 20.51, 55 41.02, 55 75 M55 0 C55 21.03, 55 42.06, 55 75 M55 75 C38.93 75, 22.87 75, 0 75 M55 75 C36.37 75, 17.75 75, 0 75 M0 75 C0 45.06, 0 15.11, 0 0 M0 75 C0 45.79, 0 16.58, 0 0" stroke="#1e1e1e" stroke-width="2" fill="none"/></g><g stroke-linecap="round"><g transform="translate(398 152) rotate(0 -7.5 0)"><path d="M0 0 C-4.63 0, -9.26 0, -15 0 M0 0 C-3.1 0, -6.21 0, -15 0" stroke="#1e1e1e" stroke-width="2" fill="none"/></g></g><mask/><g stroke-linecap="round"><g transform="translate(398 122) rotate(0 5.5 -5)"><path d="M0 0 C4.16 -1.89, 8.32 -3.78, 11 -5 M0 0 C4.16 -1.89, 8.33 -3.79, 11 -5 M11 -5 C7.62 -6.54, 4.24 -8.07, 0 -10 M11 -5 C7.05 -6.8, 3.09 -8.59, 0 -10" stroke="#1e1e1e" stroke-width="2" fill="none"/></g></g><mask/><g stroke-linecap="round"><g transform="translate(468 152) rotate(0 -7.5 0)"><path d="M0 0 C-4.67 0, -9.33 0, -15 0 M0 0 C-5.97 0, -11.95 0, -15 0" stroke="#1e1e1e" stroke-width="2" fill="none"/></g></g><mask/><g stroke-linecap="round"><g transform="translate(398 117) rotate(0 -7.5 0)"><path d="M0 0 C-5.33 0, -10.67 0, -15 0 M0 0 C-4.39 0, -8.77 0, -15 0" stroke="#1e1e1e" stroke-width="2" fill="none"/></g></g><mask/><g stroke-linecap="round"><g transform="translate(81 24) rotate(0 246.5 54)"><path d="M0 0 C186.72 0, 373.44 0, 493 0 M0 0 C117.68 0, 235.35 0, 493 0 M493 0 C493 35.91, 493 71.82, 493 108 M493 0 C493 25.54, 493 51.08, 493 108" stroke="#1e1e1e" stroke-width="2" fill="none"/></g></g><mask/><g stroke-linecap="round"><g transform="translate(575 152) rotate(0 -19.507483392117308 0)"><path d="M0 0 C-14.59 0, -29.19 0, -39.01 0 M0 0 C-9.85 0, -19.7 0, -39.01 0" stroke="#1e1e1e" stroke-width="2" fill="none"/></g></g><mask/><g stroke-linecap="round"><g transform="translate(569 152) rotate(0 -50.71589473170445 0)"><path d="M0 0 C-30.39 0, -60.79 0, -101.43 0 M0 0 C-27.57 0, -55.15 0, -101.43 0" stroke="#1e1e1e" stroke-width="2" fill="none"/></g></g><mask/><g stroke-linecap="round"><g transform="translate(181 395) rotate(0 7.921543121337891 0)"><path d="M0 0 C5.35 0, 10.69 0, 15.84 0 M0 0 C4.56 0, 9.11 0, 15.84 0" stroke="#000" stroke-width="2" fill="none"/></g></g><mask/><g stroke-linecap="round"><g transform="translate(131 395) rotate(0 -12 0)"><path d="M0 0 C-8.57 0, -17.15 0, -24 0 M0 0 C-9.37 0, -18.74 0, -24 0" stroke="#000" stroke-width="2" fill="none"/></g></g><mask/><g stroke-linecap="round"><g transform="translate(130 417) rotate(0 20.5 -22)"><path d="M0 0 C0 -15.15, 0 -30.31, 0 -44 M0 0 C0 -11.41, 0 -22.81, 0 -44 M0 -44 C0.44 -43.78, 0.88 -43.55, 2.05 -42.96 M0 -44 C0.72 -43.63, 1.44 -43.27, 2.05 -42.96 M2.05 -42.96 C16.32 -35.76, 30.58 -28.57, 41 -23.32 M2.05 -42.96 C12.36 -37.76, 22.67 -32.56, 41 -23.32 M41 -23.32 C41 -22.55, 41 -21.78, 41 -20.68 M41 -23.32 C41 -22.71, 41 -22.11, 41 -20.68 M41 -20.68 C25.67 -12.95, 10.35 -5.23, 2.05 -1.04 M41 -20.68 C26.5 -13.37, 12 -6.06, 2.05 -1.04 M2.05 -1.04 C1.33 -0.68, 0.62 -0.32, 0 0 M2.05 -1.04 C1.25 -0.64, 0.45 -0.23, 0 0 M0 0 C0 0, 0 0, 0 0 M0 0 C0 0, 0 0, 0 0" stroke="#1e1e1e" stroke-width="2" fill="none"/></g></g><mask/><g stroke-linecap="round"><g transform="translate(180 395) rotate(0 -4 0)"><path d="M0 0 C0 0, 0 0, 0 0 M0 0 C0 0, 0 0, 0 0 M0 0 C-0.05 -0.33, -0.09 -0.67, -0.15 -1.1 M0 0 C-0.03 -0.25, -0.07 -0.51, -0.15 -1.1 M-0.15 -1.1 C-0.28 -1.41, -0.42 -1.72, -0.56 -2.06 M-0.15 -1.1 C-0.27 -1.38, -0.39 -1.67, -0.56 -2.06 M-0.56 -2.06 C-0.71 -2.25, -0.86 -2.44, -1.2 -2.86 M-0.56 -2.06 C-0.77 -2.32, -0.98 -2.58, -1.2 -2.86 M-1.2 -2.86 C-1.46 -3.05, -1.72 -3.25, -2 -3.46 M-1.2 -2.86 C-1.41 -3.01, -1.62 -3.17, -2 -3.46 M-2 -3.46 C-2.37 -3.62, -2.73 -3.77, -2.93 -3.86 M-2 -3.46 C-2.28 -3.58, -2.57 -3.7, -2.93 -3.86 M-2.93 -3.86 C-3.28 -3.91, -3.64 -3.96, -3.94 -4.01 M-2.93 -3.86 C-3.14 -3.89, -3.36 -3.92, -3.94 -4.01 M-3.94 -4.01 C-4.24 -3.97, -4.54 -3.93, -4.98 -3.88 M-3.94 -4.01 C-4.21 -3.97, -4.47 -3.94, -4.98 -3.88 M-4.98 -3.88 C-5.23 -3.78, -5.48 -3.68, -6 -3.46 M-4.98 -3.88 C-5.31 -3.75, -5.64 -3.61, -6 -3.46 M-6 -3.46 C-6.23 -3.29, -6.46 -3.11, -6.83 -2.82 M-6 -3.46 C-6.23 -3.29, -6.46 -3.11, -6.83 -2.82 M-6.83 -2.82 C-6.98 -2.64, -7.12 -2.45, -7.46 -2 M-6.83 -2.82 C-6.98 -2.64, -7.12 -2.45, -7.46 -2 M-7.46 -2 C-7.55 -1.8, -7.63 -1.59, -7.86 -1.04 M-7.46 -2 C-7.6 -1.67, -7.74 -1.34, -7.86 -1.04 M-7.86 -1.04 C-7.91 -0.64, -7.97 -0.24, -8 0 M-7.86 -1.04 C-7.9 -0.73, -7.95 -0.41, -8 0 M-8 0 C-7.94 0.43, -7.88 0.87, -7.85 1.1 M-8 0 C-7.96 0.29, -7.92 0.59, -7.85 1.1 M-7.85 1.1 C-7.69 1.46, -7.54 1.83, -7.44 2.06 M-7.85 1.1 C-7.69 1.47, -7.53 1.83, -7.44 2.06 M-7.44 2.06 C-7.29 2.24, -7.14 2.43, -6.8 2.86 M-7.44 2.06 C-7.22 2.33, -7.01 2.6, -6.8 2.86 M-6.8 2.86 C-6.52 3.07, -6.23 3.29, -6 3.46 M-6.8 2.86 C-6.6 3.01, -6.39 3.17, -6 3.46 M-6 3.46 C-5.66 3.61, -5.32 3.75, -5.07 3.86 M-6 3.46 C-5.76 3.56, -5.53 3.66, -5.07 3.86 M-5.07 3.86 C-4.84 3.89, -4.61 3.92, -4.06 4.01 M-5.07 3.86 C-4.72 3.91, -4.36 3.96, -4.06 4.01 M-4.06 4.01 C-3.69 3.96, -3.32 3.92, -3.02 3.88 M-4.06 4.01 C-3.84 3.98, -3.62 3.95, -3.02 3.88 M-3.02 3.88 C-2.64 3.73, -2.26 3.57, -2 3.46 M-3.02 3.88 C-2.76 3.77, -2.49 3.67, -2 3.46 M-2 3.46 C-1.68 3.22, -1.36 2.97, -1.17 2.82 M-2 3.46 C-1.82 3.32, -1.64 3.18, -1.17 2.82 M-1.17 2.82 C-0.94 2.53, -0.72 2.25, -0.54 2 M-1.17 2.82 C-1.03 2.64, -0.89 2.46, -0.54 2 M-0.54 2 C-0.39 1.66, -0.25 1.31, -0.14 1.04 M-0.54 2 C-0.39 1.65, -0.24 1.3, -0.14 1.04 M-0.14 1.04 C-0.08 0.63, -0.03 0.22, 0 0 M-0.14 1.04 C-0.11 0.81, -0.08 0.58, 0 0 M0 0 C0 0, 0 0, 0 0 M0 0 C0 0, 0 0, 0 0" stroke="#000" stroke-width="2" fill="none"/></g></g><mask/><g stroke-linecap="round" transform="translate(300 365) rotate(0 27.5 37.5)"><path d="M0 0 L55 0 L55 75 L0 75" stroke="none" stroke-width="0" fill="#a5d8ff"/><path d="M0 0 C19.75 0, 39.49 0, 55 0 M0 0 C20.72 0, 41.45 0, 55 0 M55 0 C55 16.32, 55 32.64, 55 75 M55 0 C55 21.33, 55 42.66, 55 75 M55 75 C35.39 75, 15.79 75, 0 75 M55 75 C41.5 75, 28 75, 0 75 M0 75 C0 57.58, 0 40.16, 0 0 M0 75 C0 56.33, 0 37.66, 0 0" stroke="#1e1e1e" stroke-width="2" fill="none"/></g><g stroke-linecap="round"><g transform="translate(300 385) rotate(0 -7.5 0)"><path d="M0 0 C-4.94 0, -9.89 0, -15 0 M0 0 C-3.32 0, -6.64 0, -15 0" stroke="#1e1e1e" stroke-width="2" fill="none"/></g></g><mask/><g stroke-linecap="round"><g transform="translate(300 415) rotate(0 5.5 5)"><path d="M0 0 C3.96 1.8, 7.92 3.6, 11 5 M0 0 C3.49 1.59, 6.98 3.17, 11 5 M11 5 C7.5 6.59, 4 8.18, 0 10 M11 5 C7.46 6.61, 3.93 8.22, 0 10" stroke="#1e1e1e" stroke-width="2" fill="none"/></g></g><mask/><g stroke-linecap="round"><g transform="translate(383 385) rotate(0 -14 0)"><path d="M0 0 C-6.58 0, -13.16 0, -28 0 M0 0 C-7.09 0, -14.19 0, -28 0" stroke="#1e1e1e" stroke-width="2" fill="none"/></g></g><mask/><g stroke-linecap="round"><g transform="translate(300 420) rotate(0 -7.5 0)"><path d="M0 0 C-3 0, -6 0, -15 0 M0 0 C-4.64 0, -9.27 0, -15 0" stroke="#1e1e1e" stroke-width="2" fill="none"/></g></g><mask/><g stroke-linecap="round" transform="translate(398 365) rotate(0 27.5 37.5)"><path d="M0 0 L55 0 L55 75 L0 75" stroke="none" stroke-width="0" fill="#a5d8ff"/><path d="M0 0 C11.79 0, 23.59 0, 55 0 M0 0 C19.34 0, 38.68 0, 55 0 M55 0 C55 27.47, 55 54.94, 55 75 M55 0 C55 19.85, 55 39.7, 55 75 M55 75 C38.91 75, 22.82 75, 0 75 M55 75 C42.36 75, 29.72 75, 0 75 M0 75 C0 45.49, 0 15.98, 0 0 M0 75 C0 47.08, 0 19.17, 0 0" stroke="#1e1e1e" stroke-width="2" fill="none"/></g><g stroke-linecap="round"><g transform="translate(398 385) rotate(0 -7.5 0)"><path d="M0 0 C-4.57 0, -9.14 0, -15 0 M0 0 C-3.49 0, -6.97 0, -15 0" stroke="#1e1e1e" stroke-width="2" fill="none"/></g></g><mask/><g stroke-linecap="round"><g transform="translate(398 415) rotate(0 5.5 5)"><path d="M0 0 C2.39 1.09, 4.79 2.18, 11 5 M0 0 C3.13 1.42, 6.26 2.84, 11 5 M11 5 C7.08 6.78, 3.16 8.56, 0 10 M11 5 C8.3 6.23, 5.6 7.45, 0 10" stroke="#1e1e1e" stroke-width="2" fill="none"/></g></g><mask/><g stroke-linecap="round"><g transform="translate(468 385) rotate(0 -7.5 0)"><path d="M0 0 C-5.6 0, -11.2 0, -15 0 M0 0 C-4.78 0, -9.56 0, -15 0" stroke="#1e1e1e" stroke-width="2" fill="none"/></g></g><mask/><g stroke-linecap="round"><g transform="translate(398 420) rotate(0 -7.5 0)"><path d="M0 0 C-4.77 0, -9.54 0, -15 0 M0 0 C-4.82 0, -9.65 0, -15 0" stroke="#1e1e1e" stroke-width="2" fill="none"/></g></g><mask/><g stroke-linecap="round"><g transform="translate(81 513) rotate(0 247 -54)"><path d="M0 0 C181.04 0, 362.08 0, 494 0 M0 0 C142.29 0, 284.58 0, 494 0 M494 0 C494 -34.45, 494 -68.9, 494 -108 M494 0 C494 -40.82, 494 -81.64, 494 -108" stroke="#1e1e1e" stroke-width="2" fill="none"/></g></g><mask/><g stroke-linecap="round"><g transform="translate(575 385) rotate(0 -53.71589473170445 0)"><path d="M0 0 C-23.19 0, -46.38 0, -107.43 0 M0 0 C-29.17 0, -58.34 0, -107.43 0" stroke="#1e1e1e" stroke-width="2" fill="none"/></g></g><mask/><g stroke-linecap="round"><g transform="translate(665 142) rotate(0 0 61.5)"><path d="M0 0 C0 32.64, 0 65.29, 0 123 M0 0 C0 33.08, 0 66.17, 0 123" stroke="#1e1e1e" stroke-width="2" fill="none"/></g></g><mask/><g stroke-linecap="round"><g transform="translate(665 285) rotate(0 0 55)"><path d="M0 0 C0 30.4, 0 60.8, 0 110 M0 0 C0 28.38, 0 56.76, 0 110" stroke="#1e1e1e" stroke-width="2" fill="none"/></g></g><mask/><g stroke-linecap="round"><g transform="translate(107 395) rotate(0 44.5 -126.5)"><path d="M0 0 C0 -95.85, 0 -191.69, 0 -253 M0 0 C0 -81.68, 0 -163.35, 0 -253 M0 -253 C27.57 -253, 55.14 -253, 89 -253 M0 -253 C32.47 -253, 64.94 -253, 89 -253" stroke="#1e1e1e" stroke-width="2" fill="none"/></g></g><mask/><g stroke-linecap="round"><g transform="translate(38 269) rotate(0 34.5 0)"><path d="M0 0 C26.89 0, 53.79 0, 69 0 M0 0 C22.61 0, 45.22 0, 69 0" stroke="#1e1e1e" stroke-width="2" fill="none"/></g></g><mask/><g stroke-linecap="round"><g transform="translate(390 223) rotate(0 -7.921543121337891 0)"><path d="M0 0 C-5.58 0, -11.17 0, -15.84 0 M0 0 C-3.36 0, -6.72 0, -15.84 0" stroke="#000" stroke-width="2" fill="none"/></g></g><mask/><g stroke-linecap="round"><g transform="translate(440 223) rotate(0 12 0)"><path d="M0 0 C6.96 0, 13.93 0, 24 0 M0 0 C9.29 0, 18.58 0, 24 0" stroke="#000" stroke-width="2" fill="none"/></g></g><mask/><g stroke-linecap="round"><g transform="translate(441 201) rotate(0 -20.882646461663285 22.40625)"><path d="M0 0 C0 11.58, 0 23.15, 0 44.81 M0 0 C0 10.44, 0 20.87, 0 44.81 M0 44.81 C-0.8 44.4, -1.61 43.99, -2.09 43.75 M0 44.81 C-0.6 44.51, -1.2 44.2, -2.09 43.75 M-2.09 43.75 C-12.39 38.56, -22.69 33.36, -41.77 23.75 M-2.09 43.75 C-13.95 37.77, -25.82 31.79, -41.77 23.75 M-41.77 23.75 C-41.77 22.99, -41.77 22.23, -41.77 21.06 M-41.77 23.75 C-41.77 23.2, -41.77 22.65, -41.77 21.06 M-41.77 21.06 C-31.56 15.92, -21.36 10.78, -2.09 1.06 M-41.77 21.06 C-30.03 15.15, -18.29 9.23, -2.09 1.06 M-2.09 1.06 C-1.56 0.79, -1.03 0.53, 0 0 M-2.09 1.06 C-1.26 0.64, -0.43 0.22, 0 0 M0 0 C0 0, 0 0, 0 0 M0 0 C0 0, 0 0, 0 0" stroke="#1e1e1e" stroke-width="2" fill="none"/></g></g><mask/><g stroke-linecap="round"><g transform="translate(391 223) rotate(0 4 0)"><path d="M0 0 C0 0, 0 0, 0 0 M0 0 C0 0, 0 0, 0 0 M0 0 C0.04 0.29, 0.08 0.57, 0.15 1.1 M0 0 C0.03 0.24, 0.06 0.48, 0.15 1.1 M0.15 1.1 C0.31 1.46, 0.46 1.83, 0.56 2.06 M0.15 1.1 C0.27 1.37, 0.38 1.64, 0.56 2.06 M0.56 2.06 C0.73 2.27, 0.9 2.48, 1.2 2.86 M0.56 2.06 C0.7 2.22, 0.83 2.39, 1.2 2.86 M1.2 2.86 C1.5 3.08, 1.8 3.31, 2 3.46 M1.2 2.86 C1.49 3.08, 1.79 3.3, 2 3.46 M2 3.46 C2.37 3.62, 2.73 3.77, 2.93 3.86 M2 3.46 C2.24 3.56, 2.47 3.66, 2.93 3.86 M2.93 3.86 C3.23 3.9, 3.53 3.95, 3.94 4.01 M2.93 3.86 C3.2 3.9, 3.48 3.94, 3.94 4.01 M3.94 4.01 C4.28 3.96, 4.63 3.92, 4.98 3.88 M3.94 4.01 C4.16 3.98, 4.38 3.95, 4.98 3.88 M4.98 3.88 C5.26 3.77, 5.55 3.65, 6 3.46 M4.98 3.88 C5.2 3.79, 5.43 3.7, 6 3.46 M6 3.46 C6.2 3.31, 6.4 3.16, 6.83 2.82 M6 3.46 C6.25 3.27, 6.49 3.09, 6.83 2.82 M6.83 2.82 C7.01 2.59, 7.19 2.36, 7.46 2 M6.83 2.82 C6.99 2.62, 7.14 2.43, 7.46 2 M7.46 2 C7.56 1.76, 7.66 1.53, 7.86 1.04 M7.46 2 C7.61 1.65, 7.76 1.3, 7.86 1.04 M7.86 1.04 C7.92 0.64, 7.97 0.23, 8 0 M7.86 1.04 C7.9 0.78, 7.93 0.51, 8 0 M8 0 C7.95 -0.4, 7.89 -0.8, 7.85 -1.1 M8 0 C7.96 -0.27, 7.93 -0.54, 7.85 -1.1 M7.85 -1.1 C7.73 -1.39, 7.6 -1.68, 7.44 -2.06 M7.85 -1.1 C7.69 -1.48, 7.52 -1.86, 7.44 -2.06 M7.44 -2.06 C7.2 -2.35, 6.97 -2.65, 6.8 -2.86 M7.44 -2.06 C7.19 -2.37, 6.94 -2.69, 6.8 -2.86 M6.8 -2.86 C6.6 -3.01, 6.39 -3.17, 6 -3.46 M6.8 -2.86 C6.57 -3.04, 6.33 -3.22, 6 -3.46 M6 -3.46 C5.7 -3.59, 5.4 -3.72, 5.07 -3.86 M6 -3.46 C5.78 -3.56, 5.57 -3.65, 5.07 -3.86 M5.07 -3.86 C4.77 -3.9, 4.46 -3.95, 4.06 -4.01 M5.07 -3.86 C4.69 -3.91, 4.3 -3.97, 4.06 -4.01 M4.06 -4.01 C3.81 -3.98, 3.55 -3.95, 3.02 -3.88 M4.06 -4.01 C3.82 -3.98, 3.58 -3.95, 3.02 -3.88 M3.02 -3.88 C2.8 -3.79, 2.59 -3.7, 2 -3.46 M3.02 -3.88 C2.63 -3.72, 2.23 -3.56, 2 -3.46 M2 -3.46 C1.8 -3.31, 1.6 -3.16, 1.17 -2.82 M2 -3.46 C1.82 -3.33, 1.64 -3.19, 1.17 -2.82 M1.17 -2.82 C0.92 -2.5, 0.67 -2.17, 0.54 -2 M1.17 -2.82 C1.01 -2.62, 0.85 -2.41, 0.54 -2 M0.54 -2 C0.39 -1.64, 0.24 -1.28, 0.14 -1.04 M0.54 -2 C0.43 -1.76, 0.33 -1.51, 0.14 -1.04 M0.14 -1.04 C0.09 -0.66, 0.04 -0.28, 0 0 M0.14 -1.04 C0.11 -0.83, 0.08 -0.62, 0 0 M0 0 C0 0, 0 0, 0 0 M0 0 C0 0, 0 0, 0 0" stroke="#000" stroke-width="2" fill="none"/></g></g><mask/><g stroke-linecap="round"><g transform="translate(390 310) rotate(0 -7.921543121337891 0)"><path d="M0 0 C-4.62 0, -9.24 0, -15.84 0 M0 0 C-6.08 0, -12.15 0, -15.84 0" stroke="#000" stroke-width="2" fill="none"/></g></g><mask/><g stroke-linecap="round"><g transform="translate(440 310) rotate(0 12 0)"><path d="M0 0 C7.43 0, 14.87 0, 24 0 M0 0 C8.76 0, 17.51 0, 24 0" stroke="#000" stroke-width="2" fill="none"/></g></g><mask/><g stroke-linecap="round"><g transform="translate(441 288) rotate(0 -20.882646461663285 22.40625)"><path d="M0 0 C0 12.15, 0 24.29, 0 44.81 M0 0 C0 11.81, 0 23.63, 0 44.81 M0 44.81 C-0.71 44.45, -1.43 44.08, -2.09 43.75 M0 44.81 C-0.58 44.52, -1.16 44.22, -2.09 43.75 M-2.09 43.75 C-14.82 37.33, -27.55 30.91, -41.77 23.75 M-2.09 43.75 C-15.54 36.97, -29 30.18, -41.77 23.75 M-41.77 23.75 C-41.77 22.78, -41.77 21.8, -41.77 21.06 M-41.77 23.75 C-41.77 23.01, -41.77 22.28, -41.77 21.06 M-41.77 21.06 C-32.51 16.4, -23.25 11.73, -2.09 1.06 M-41.77 21.06 C-31.72 16, -21.68 10.94, -2.09 1.06 M-2.09 1.06 C-1.29 0.66, -0.49 0.25, 0 0 M-2.09 1.06 C-1.32 0.68, -0.56 0.29, 0 0 M0 0 C0 0, 0 0, 0 0 M0 0 C0 0, 0 0, 0 0" stroke="#1e1e1e" stroke-width="2" fill="none"/></g></g><mask/><g stroke-linecap="round"><g transform="translate(391 310) rotate(0 4 0)"><path d="M0 0 C0 0, 0 0, 0 0 M0 0 C0 0, 0 0, 0 0 M0 0 C0.04 0.27, 0.07 0.54, 0.15 1.1 M0 0 C0.05 0.35, 0.1 0.71, 0.15 1.1 M0.15 1.1 C0.26 1.36, 0.38 1.63, 0.56 2.06 M0.15 1.1 C0.26 1.36, 0.37 1.62, 0.56 2.06 M0.56 2.06 C0.71 2.24, 0.85 2.42, 1.2 2.86 M0.56 2.06 C0.71 2.24, 0.85 2.42, 1.2 2.86 M1.2 2.86 C1.37 2.99, 1.54 3.12, 2 3.46 M1.2 2.86 C1.47 3.07, 1.75 3.28, 2 3.46 M2 3.46 C2.36 3.61, 2.71 3.77, 2.93 3.86 M2 3.46 C2.28 3.58, 2.56 3.7, 2.93 3.86 M2.93 3.86 C3.33 3.92, 3.73 3.97, 3.94 4.01 M2.93 3.86 C3.2 3.9, 3.47 3.94, 3.94 4.01 M3.94 4.01 C4.33 3.96, 4.73 3.91, 4.98 3.88 M3.94 4.01 C4.34 3.96, 4.74 3.91, 4.98 3.88 M4.98 3.88 C5.22 3.79, 5.45 3.69, 6 3.46 M4.98 3.88 C5.32 3.74, 5.67 3.6, 6 3.46 M6 3.46 C6.3 3.23, 6.6 3, 6.83 2.82 M6 3.46 C6.21 3.3, 6.43 3.14, 6.83 2.82 M6.83 2.82 C7.07 2.52, 7.3 2.22, 7.46 2 M6.83 2.82 C7 2.61, 7.16 2.4, 7.46 2 M7.46 2 C7.55 1.78, 7.65 1.56, 7.86 1.04 M7.46 2 C7.6 1.66, 7.74 1.33, 7.86 1.04 M7.86 1.04 C7.91 0.67, 7.96 0.3, 8 0 M7.86 1.04 C7.89 0.82, 7.92 0.6, 8 0 M8 0 C7.94 -0.41, 7.89 -0.82, 7.85 -1.1 M8 0 C7.96 -0.28, 7.92 -0.57, 7.85 -1.1 M7.85 -1.1 C7.69 -1.46, 7.53 -1.83, 7.44 -2.06 M7.85 -1.1 C7.76 -1.31, 7.67 -1.51, 7.44 -2.06 M7.44 -2.06 C7.22 -2.34, 6.99 -2.62, 6.8 -2.86 M7.44 -2.06 C7.3 -2.23, 7.16 -2.41, 6.8 -2.86 M6.8 -2.86 C6.52 -3.07, 6.23 -3.29, 6 -3.46 M6.8 -2.86 C6.51 -3.08, 6.21 -3.3, 6 -3.46 M6 -3.46 C5.63 -3.62, 5.27 -3.77, 5.07 -3.86 M6 -3.46 C5.79 -3.55, 5.59 -3.64, 5.07 -3.86 M5.07 -3.86 C4.86 -3.89, 4.64 -3.92, 4.06 -4.01 M5.07 -3.86 C4.7 -3.91, 4.33 -3.97, 4.06 -4.01 M4.06 -4.01 C3.74 -3.97, 3.42 -3.93, 3.02 -3.88 M4.06 -4.01 C3.74 -3.97, 3.42 -3.93, 3.02 -3.88 M3.02 -3.88 C2.62 -3.72, 2.21 -3.55, 2 -3.46 M3.02 -3.88 C2.79 -3.79, 2.56 -3.7, 2 -3.46 M2 -3.46 C1.69 -3.22, 1.37 -2.98, 1.17 -2.82 M2 -3.46 C1.77 -3.29, 1.55 -3.12, 1.17 -2.82 M1.17 -2.82 C0.92 -2.5, 0.67 -2.17, 0.54 -2 M1.17 -2.82 C0.95 -2.54, 0.73 -2.26, 0.54 -2 M0.54 -2 C0.44 -1.77, 0.34 -1.53, 0.14 -1.04 M0.54 -2 C0.39 -1.66, 0.25 -1.32, 0.14 -1.04 M0.14 -1.04 C0.11 -0.83, 0.08 -0.62, 0 0 M0.14 -1.04 C0.11 -0.8, 0.07 -0.56, 0 0 M0 0 C0 0, 0 0, 0 0 M0 0 C0 0, 0 0, 0 0" stroke="#000" stroke-width="2" fill="none"/></g></g><mask/><g stroke-linecap="round"><g transform="translate(545 152) rotate(0 -40.5 35.5)"><path d="M0 0 C0 24.07, 0 48.13, 0 71 M0 0 C0 26.57, 0 53.13, 0 71 M0 71 C-20.7 71, -41.4 71, -81 71 M0 71 C-18.24 71, -36.49 71, -81 71" stroke="#1e1e1e" stroke-width="2" fill="none"/></g></g><mask/><g stroke-linecap="round"><g transform="translate(545 385) rotate(0 -41 -37.5)"><path d="M0 0 C0 -28.91, 0 -57.82, 0 -75 M0 0 C0 -21.61, 0 -43.22, 0 -75 M0 -75 C-21.3 -75, -42.59 -75, -82 -75 M0 -75 C-24.52 -75, -49.04 -75, -82 -75" stroke="#1e1e1e" stroke-width="2" fill="none"/></g></g><mask/><g stroke-linecap="round"><g transform="translate(195 162) rotate(0 89.5 74)"><path d="M0 0 C0 7.31, 0 14.62, 0 28 M0 0 C0 6.1, 0 12.2, 0 28 M0 28 C68.18 73.71, 136.36 119.42, 179 148 M0 28 C50.66 61.96, 101.33 95.93, 179 148" stroke="#1e1e1e" stroke-width="2" fill="none"/></g></g><mask/><g stroke-linecap="round"><g transform="translate(195 375) rotate(0 90 -76)"><path d="M0 0 C0 -5.98, 0 -11.97, 0 -29 M0 0 C0 -9.36, 0 -18.71, 0 -29 M0 -29 C40.2 -56.47, 80.41 -83.94, 180 -152 M0 -29 C42.12 -57.78, 84.24 -86.56, 180 -152" stroke="#1e1e1e" stroke-width="2" fill="none"/></g></g><mask/><g transform="translate(31 10) rotate(0 23.4375 9.599999999999909)"><text x="0" y="15.45" font-family="Cascadia, Segoe UI Emoji" font-size="16px" fill="#1e1e1e" text-anchor="start" style="white-space: pre;" direction="ltr" dominant-baseline="alphabetic">CLK_A</text></g><g transform="translate(27 499) rotate(0 23.4375 9.599999999999909)"><text x="0" y="15.45" font-family="Cascadia, Segoe UI Emoji" font-size="16px" fill="#1e1e1e" text-anchor="start" style="white-space: pre;" direction="ltr" dominant-baseline="alphabetic">CLK_B</text></g><g transform="translate(10 240) rotate(0 14.0625 9.599999999999909)"><text x="0" y="15.45" font-family="Cascadia, Segoe UI Emoji" font-size="16px" fill="#1e1e1e" text-anchor="start" style="white-space: pre;" direction="ltr" dominant-baseline="alphabetic">sel</text></g><g stroke-linecap="round"><g transform="translate(265 24) rotate(0 10.111373052135434 46.5)"><path d="M0 0 C0 23.77, 0 47.54, 0 93 M0 0 C0 20.95, 0 41.89, 0 93 M0 93 C7.25 93, 14.51 93, 20.22 93 M0 93 C4.58 93, 9.17 93, 20.22 93" stroke="#1e1e1e" stroke-width="2" fill="none"/></g></g><mask/><g stroke-linecap="round"><g transform="translate(363 24) rotate(0 10.111373052135434 46.5)"><path d="M0 0 C0 24.15, 0 48.3, 0 93 M0 0 C0 27.81, 0 55.62, 0 93 M0 93 C5.73 93, 11.46 93, 20.22 93 M0 93 C4.13 93, 8.26 93, 20.22 93" stroke="#1e1e1e" stroke-width="2" fill="none"/></g></g><mask/><g stroke-linecap="round"><g transform="translate(264 513) rotate(0 10.111373052135434 -46.5)"><path d="M0 0 C0 -35.42, 0 -70.85, 0 -93 M0 0 C0 -26.32, 0 -52.65, 0 -93 M0 -93 C5.38 -93, 10.77 -93, 20.22 -93 M0 -93 C4.25 -93, 8.49 -93, 20.22 -93" stroke="#1e1e1e" stroke-width="2" fill="none"/></g></g><mask/><g stroke-linecap="round"><g transform="translate(363 513) rotate(0 10.111373052135434 -46.5)"><path d="M0 0 C0 -20.77, 0 -41.54, 0 -93 M0 0 C0 -21.76, 0 -43.52, 0 -93 M0 -93 C7.64 -93, 15.29 -93, 20.22 -93 M0 -93 C4.96 -93, 9.91 -93, 20.22 -93" stroke="#1e1e1e" stroke-width="2" fill="none"/></g></g><mask/><g stroke-linecap="round"><g transform="translate(265 152) rotate(0 11.084918115410233 0)"><path d="M0 0 C5.98 0, 11.95 0, 22.17 0 M0 0 C8.55 0, 17.1 0, 22.17 0" stroke="#000" stroke-width="2" fill="none"/></g></g><mask/><g stroke-linecap="round"><g transform="translate(222 142) rotate(0 -13 0)"><path d="M0 0 C-5.28 0, -10.56 0, -26 0 M0 0 C-7.29 0, -14.57 0, -26 0" stroke="#000" stroke-width="2" fill="none"/></g></g><mask/><g stroke-linecap="round"><g transform="translate(222 162) rotate(0 -13.039749293482146 0)"><path d="M0 0 C-10.3 0, -20.6 0, -26.08 0 M0 0 C-8.35 0, -16.69 0, -26.08 0" stroke="#000" stroke-width="2" fill="none"/></g></g><mask/><g stroke-linecap="round"><g transform="translate(216 132) rotate(0 24.301616975389493 20)"><path d="M0 0 C0.64 0.78, 1.28 1.56, 2 2.44 M0 0 C0.46 0.56, 0.92 1.12, 2 2.44 M2 2.44 C2 2.44, 2 2.44, 2 2.44 M2 2.44 C2 2.44, 2 2.44, 2 2.44 M2 2.44 C2.02 2.46, 2.04 2.49, 2.06 2.52 M2 2.44 C2.01 2.45, 2.03 2.47, 2.06 2.52 M2.06 2.52 C2.13 2.61, 2.19 2.69, 2.24 2.76 M2.06 2.52 C2.12 2.6, 2.18 2.68, 2.24 2.76 M2.24 2.76 C2.37 2.95, 2.5 3.14, 2.88 3.7 M2.24 2.76 C2.39 2.98, 2.54 3.2, 2.88 3.7 M2.88 3.7 C3.18 4.19, 3.48 4.69, 3.79 5.21 M2.88 3.7 C3.08 4.02, 3.27 4.34, 3.79 5.21 M3.79 5.21 C4.05 5.72, 4.31 6.23, 4.83 7.26 M3.79 5.21 C4.2 6.02, 4.61 6.83, 4.83 7.26 M4.83 7.26 C5.1 7.93, 5.38 8.61, 5.87 9.8 M4.83 7.26 C5.14 8.03, 5.46 8.8, 5.87 9.8 M5.87 9.8 C6.16 10.78, 6.46 11.75, 6.77 12.8 M5.87 9.8 C6.15 10.74, 6.44 11.69, 6.77 12.8 M6.77 12.8 C6.91 13.55, 7.06 14.31, 7.41 16.21 M6.77 12.8 C6.93 13.65, 7.09 14.49, 7.41 16.21 M7.41 16.21 C7.48 17.19, 7.54 18.17, 7.66 20 M7.41 16.21 C7.47 17.08, 7.52 17.94, 7.66 20 M7.66 20 C7.6 20.9, 7.54 21.8, 7.41 23.79 M7.66 20 C7.59 20.99, 7.53 21.98, 7.41 23.79 M7.41 23.79 C7.2 24.92, 6.99 26.05, 6.77 27.2 M7.41 23.79 C7.22 24.82, 7.03 25.85, 6.77 27.2 M6.77 27.2 C6.54 27.98, 6.3 28.77, 5.87 30.2 M6.77 27.2 C6.56 27.89, 6.35 28.59, 5.87 30.2 M5.87 30.2 C5.47 31.16, 5.08 32.12, 4.83 32.74 M5.87 30.2 C5.53 31.02, 5.2 31.84, 4.83 32.74 M4.83 32.74 C4.58 33.23, 4.33 33.73, 3.79 34.79 M4.83 32.74 C4.6 33.19, 4.37 33.64, 3.79 34.79 M3.79 34.79 C3.53 35.22, 3.27 35.66, 2.88 36.3 M3.79 34.79 C3.61 35.1, 3.42 35.4, 2.88 36.3 M2.88 36.3 C2.74 36.51, 2.6 36.72, 2.24 37.24 M2.88 36.3 C2.65 36.64, 2.42 36.98, 2.24 37.24 M2.24 37.24 C2.19 37.31, 2.14 37.38, 2.06 37.48 M2.24 37.24 C2.19 37.31, 2.15 37.37, 2.06 37.48 M2.06 37.48 C2.05 37.5, 2.03 37.52, 2 37.56 M2.06 37.48 C2.04 37.51, 2.02 37.54, 2 37.56 M2 37.56 C1.43 38.26, 0.86 38.95, 0 40 M2 37.56 C1.21 38.52, 0.43 39.48, 0 40 M0 40 C5.21 40, 10.42 40, 17.16 40 M0 40 C3.62 40, 7.23 40, 17.16 40 M17.16 40 C17.16 40, 17.16 40, 17.16 40 M17.16 40 C17.16 40, 17.16 40, 17.16 40 M17.16 40 C17.47 40, 17.79 40, 18.19 40 M17.16 40 C17.42 40, 17.68 40, 18.19 40 M18.19 40 C18.5 39.99, 18.81 39.98, 19.47 39.97 M18.19 40 C18.48 39.99, 18.77 39.98, 19.47 39.97 M19.47 39.97 C19.96 39.94, 20.45 39.91, 20.96 39.88 M19.47 39.97 C19.96 39.94, 20.45 39.91, 20.96 39.88 M20.96 39.88 C21.54 39.82, 22.12 39.76, 22.65 39.71 M20.96 39.88 C21.6 39.81, 22.23 39.75, 22.65 39.71 M22.65 39.71 C23.05 39.65, 23.46 39.58, 24.5 39.42 M22.65 39.71 C23.07 39.64, 23.5 39.58, 24.5 39.42 M24.5 39.42 C25.1 39.29, 25.71 39.16, 26.49 39 M24.5 39.42 C24.97 39.32, 25.45 39.22, 26.49 39 M26.49 39 C27.21 38.79, 27.93 38.58, 28.59 38.4 M26.49 39 C26.98 38.85, 27.48 38.71, 28.59 38.4 M28.59 38.4 C29.4 38.1, 30.2 37.81, 30.78 37.59 M28.59 38.4 C29.45 38.08, 30.31 37.77, 30.78 37.59 M30.78 37.59 C31.36 37.33, 31.95 37.06, 33.03 36.56 M30.78 37.59 C31.68 37.18, 32.57 36.77, 33.03 36.56 M33.03 36.56 C33.57 36.26, 34.11 35.96, 35.32 35.27 M33.03 36.56 C33.79 36.14, 34.55 35.71, 35.32 35.27 M35.32 35.27 C35.84 34.92, 36.36 34.56, 37.63 33.7 M35.32 35.27 C35.86 34.9, 36.4 34.54, 37.63 33.7 M37.63 33.7 C38.44 33.04, 39.25 32.37, 39.92 31.82 M37.63 33.7 C38.5 32.99, 39.36 32.28, 39.92 31.82 M39.92 31.82 C40.61 31.14, 41.31 30.46, 42.17 29.61 M39.92 31.82 C40.47 31.28, 41.01 30.74, 42.17 29.61 M42.17 29.61 C42.67 29.02, 43.17 28.44, 44.37 27.03 M42.17 29.61 C43.01 28.63, 43.84 27.65, 44.37 27.03 M44.37 27.03 C44.94 26.24, 45.51 25.44, 46.47 24.08 M44.37 27.03 C45.2 25.87, 46.03 24.71, 46.47 24.08 M46.47 24.08 C47.08 23.05, 47.7 22.02, 48.47 20.72 M46.47 24.08 C46.88 23.39, 47.29 22.7, 48.47 20.72 M48.47 20.72 C48.51 20.52, 48.54 20.32, 48.6 20 M48.47 20.72 C48.5 20.55, 48.53 20.39, 48.6 20 M48.6 20 C48.56 19.79, 48.52 19.57, 48.47 19.28 M48.6 20 C48.57 19.82, 48.54 19.65, 48.47 19.28 M48.47 19.28 C48.47 19.28, 48.47 19.28, 48.47 19.28 M48.47 19.28 C48.47 19.28, 48.47 19.28, 48.47 19.28 M48.47 19.28 C47.96 18.42, 47.44 17.55, 46.47 15.92 M48.47 19.28 C47.84 18.23, 47.22 17.18, 46.47 15.92 M46.47 15.92 C45.81 15.01, 45.16 14.09, 44.36 12.98 M46.47 15.92 C45.65 14.77, 44.82 13.62, 44.36 12.98 M44.36 12.98 C43.72 12.23, 43.08 11.49, 42.16 10.42 M44.36 12.98 C43.59 12.08, 42.82 11.19, 42.16 10.42 M42.16 10.42 C41.32 9.6, 40.47 8.78, 39.9 8.23 M42.16 10.42 C41.33 9.61, 40.49 8.8, 39.9 8.23 M39.9 8.23 C39.3 7.74, 38.7 7.26, 37.6 6.36 M39.9 8.23 C39.17 7.63, 38.43 7.04, 37.6 6.36 M37.6 6.36 C36.76 5.8, 35.92 5.23, 35.29 4.8 M37.6 6.36 C36.82 5.83, 36.04 5.31, 35.29 4.8 M35.29 4.8 C34.66 4.45, 34.03 4.1, 32.99 3.52 M35.29 4.8 C34.59 4.41, 33.89 4.02, 32.99 3.52 M32.99 3.52 C32.19 3.16, 31.4 2.8, 30.73 2.49 M32.99 3.52 C32.52 3.31, 32.06 3.1, 30.73 2.49 M30.73 2.49 C29.87 2.17, 29 1.85, 28.54 1.68 M30.73 2.49 C30.26 2.32, 29.79 2.14, 28.54 1.68 M28.54 1.68 C28.08 1.55, 27.62 1.42, 26.44 1.07 M28.54 1.68 C28 1.53, 27.46 1.37, 26.44 1.07 M26.44 1.07 C25.77 0.92, 25.09 0.77, 24.45 0.63 M26.44 1.07 C25.87 0.95, 25.31 0.82, 24.45 0.63 M24.45 0.63 C23.82 0.53, 23.2 0.43, 22.61 0.33 M24.45 0.63 C23.99 0.56, 23.53 0.48, 22.61 0.33 M22.61 0.33 C21.99 0.26, 21.37 0.19, 20.93 0.15 M22.61 0.33 C21.99 0.26, 21.37 0.19, 20.93 0.15 M20.93 0.15 C20.49 0.12, 20.06 0.09, 19.44 0.05 M20.93 0.15 C20.47 0.11, 20.01 0.08, 19.44 0.05 M19.44 0.05 C19.19 0.04, 18.94 0.03, 18.18 0.01 M19.44 0.05 C19.13 0.04, 18.82 0.03, 18.18 0.01 M18.18 0.01 C17.81 0, 17.44 0, 17.16 0 M18.18 0.01 C17.93 0.01, 17.68 0, 17.16 0 M17.16 0 C11.89 0, 6.61 0, 0 0 M17.16 0 C11.62 0, 6.09 0, 0 0 M0 0 C0 0, 0 0, 0 0 M0 0 C0 0, 0 0, 0 0" stroke="#000000" stroke-width="2" fill="none"/></g></g><mask/><g stroke-linecap="round"><g transform="translate(264.0794985869643 385) rotate(0 11.084918115410233 0)"><path d="M0 0 C5.9 0, 11.8 0, 22.17 0 M0 0 C7.24 0, 14.48 0, 22.17 0" stroke="#000" stroke-width="2" fill="none"/></g></g><mask/><g stroke-linecap="round"><g transform="translate(221.0794985869643 375) rotate(0 -13 0)"><path d="M0 0 C-7.17 0, -14.33 0, -26 0 M0 0 C-5.72 0, -11.43 0, -26 0" stroke="#000" stroke-width="2" fill="none"/></g></g><mask/><g stroke-linecap="round"><g transform="translate(221.0794985869643 395) rotate(0 -13.039749293482146 0)"><path d="M0 0 C-6.47 0, -12.93 0, -26.08 0 M0 0 C-7.41 0, -14.82 0, -26.08 0" stroke="#000" stroke-width="2" fill="none"/></g></g><mask/><g stroke-linecap="round"><g transform="translate(215.0794985869643 365) rotate(0 24.301616975389493 20)"><path d="M0 0 C0.53 0.64, 1.05 1.28, 2 2.44 M0 0 C0.74 0.91, 1.49 1.81, 2 2.44 M2 2.44 C2 2.44, 2 2.44, 2 2.44 M2 2.44 C2 2.44, 2 2.44, 2 2.44 M2 2.44 C2.02 2.46, 2.04 2.48, 2.06 2.52 M2 2.44 C2.02 2.46, 2.03 2.48, 2.06 2.52 M2.06 2.52 C2.11 2.58, 2.16 2.65, 2.24 2.76 M2.06 2.52 C2.1 2.57, 2.14 2.62, 2.24 2.76 M2.24 2.76 C2.44 3.04, 2.63 3.33, 2.88 3.7 M2.24 2.76 C2.43 3.03, 2.61 3.29, 2.88 3.7 M2.88 3.7 C3.17 4.17, 3.45 4.64, 3.79 5.21 M2.88 3.7 C3.07 4.01, 3.26 4.33, 3.79 5.21 M3.79 5.21 C4.04 5.71, 4.3 6.22, 4.83 7.26 M3.79 5.21 C4.08 5.79, 4.38 6.37, 4.83 7.26 M4.83 7.26 C5.19 8.14, 5.55 9.03, 5.87 9.8 M4.83 7.26 C5.06 7.84, 5.3 8.42, 5.87 9.8 M5.87 9.8 C6.18 10.82, 6.48 11.84, 6.77 12.8 M5.87 9.8 C6.19 10.89, 6.52 11.97, 6.77 12.8 M6.77 12.8 C6.96 13.81, 7.15 14.81, 7.41 16.21 M6.77 12.8 C6.95 13.74, 7.13 14.68, 7.41 16.21 M7.41 16.21 C7.47 17.03, 7.52 17.85, 7.66 20 M7.41 16.21 C7.46 16.97, 7.51 17.73, 7.66 20 M7.66 20 C7.58 21.2, 7.5 22.41, 7.41 23.79 M7.66 20 C7.59 21.07, 7.52 22.14, 7.41 23.79 M7.41 23.79 C7.28 24.48, 7.15 25.16, 6.77 27.2 M7.41 23.79 C7.19 24.99, 6.96 26.19, 6.77 27.2 M6.77 27.2 C6.47 28.21, 6.16 29.21, 5.87 30.2 M6.77 27.2 C6.59 27.8, 6.41 28.4, 5.87 30.2 M5.87 30.2 C5.63 30.78, 5.39 31.37, 4.83 32.74 M5.87 30.2 C5.51 31.08, 5.15 31.95, 4.83 32.74 M4.83 32.74 C4.5 33.4, 4.17 34.05, 3.79 34.79 M4.83 32.74 C4.51 33.37, 4.19 34, 3.79 34.79 M3.79 34.79 C3.49 35.3, 3.18 35.8, 2.88 36.3 M3.79 34.79 C3.45 35.36, 3.1 35.94, 2.88 36.3 M2.88 36.3 C2.63 36.67, 2.39 37.03, 2.24 37.24 M2.88 36.3 C2.69 36.59, 2.5 36.87, 2.24 37.24 M2.24 37.24 C2.18 37.33, 2.12 37.41, 2.06 37.48 M2.24 37.24 C2.2 37.3, 2.16 37.35, 2.06 37.48 M2.06 37.48 C2.04 37.51, 2.02 37.53, 2 37.56 M2.06 37.48 C2.05 37.5, 2.04 37.51, 2 37.56 M2 37.56 C1.58 38.08, 1.15 38.6, 0 40 M2 37.56 C1.32 38.39, 0.64 39.22, 0 40 M0 40 C4.02 40, 8.05 40, 17.16 40 M0 40 C4.62 40, 9.25 40, 17.16 40 M17.16 40 C17.16 40, 17.16 40, 17.16 40 M17.16 40 C17.16 40, 17.16 40, 17.16 40 M17.16 40 C17.48 40, 17.8 40, 18.19 40 M17.16 40 C17.43 40, 17.69 40, 18.19 40 M18.19 40 C18.62 39.99, 19.04 39.98, 19.47 39.97 M18.19 40 C18.59 39.99, 18.98 39.98, 19.47 39.97 M19.47 39.97 C19.88 39.94, 20.3 39.92, 20.96 39.88 M19.47 39.97 C20.02 39.93, 20.58 39.9, 20.96 39.88 M20.96 39.88 C21.42 39.83, 21.88 39.79, 22.65 39.71 M20.96 39.88 C21.52 39.82, 22.07 39.77, 22.65 39.71 M22.65 39.71 C23.22 39.62, 23.8 39.53, 24.5 39.42 M22.65 39.71 C23.24 39.62, 23.84 39.52, 24.5 39.42 M24.5 39.42 C24.94 39.33, 25.38 39.23, 26.49 39 M24.5 39.42 C25.16 39.28, 25.83 39.14, 26.49 39 M26.49 39 C27.22 38.79, 27.95 38.58, 28.59 38.4 M26.49 39 C27.02 38.84, 27.55 38.69, 28.59 38.4 M28.59 38.4 C29.3 38.13, 30.02 37.87, 30.78 37.59 M28.59 38.4 C29.12 38.2, 29.65 38.01, 30.78 37.59 M30.78 37.59 C31.6 37.22, 32.43 36.84, 33.03 36.56 M30.78 37.59 C31.29 37.36, 31.79 37.13, 33.03 36.56 M33.03 36.56 C33.56 36.27, 34.08 35.97, 35.32 35.27 M33.03 36.56 C33.58 36.25, 34.13 35.94, 35.32 35.27 M35.32 35.27 C36.02 34.8, 36.71 34.33, 37.63 33.7 M35.32 35.27 C36.08 34.76, 36.83 34.25, 37.63 33.7 M37.63 33.7 C38.49 32.99, 39.35 32.28, 39.92 31.82 M37.63 33.7 C38.29 33.16, 38.95 32.62, 39.92 31.82 M39.92 31.82 C40.68 31.07, 41.44 30.33, 42.17 29.61 M39.92 31.82 C40.75 31, 41.58 30.19, 42.17 29.61 M42.17 29.61 C42.88 28.78, 43.59 27.95, 44.37 27.03 M42.17 29.61 C42.66 29.04, 43.15 28.47, 44.37 27.03 M44.37 27.03 C44.82 26.4, 45.27 25.77, 46.47 24.08 M44.37 27.03 C45.18 25.9, 45.99 24.76, 46.47 24.08 M46.47 24.08 C46.9 23.36, 47.33 22.64, 48.47 20.72 M46.47 24.08 C46.97 23.24, 47.47 22.4, 48.47 20.72 M48.47 20.72 C48.51 20.49, 48.55 20.26, 48.6 20 M48.47 20.72 C48.51 20.48, 48.56 20.24, 48.6 20 M48.6 20 C48.56 19.78, 48.52 19.56, 48.47 19.28 M48.6 20 C48.57 19.82, 48.53 19.63, 48.47 19.28 M48.47 19.28 C48.47 19.28, 48.47 19.28, 48.47 19.28 M48.47 19.28 C48.47 19.28, 48.47 19.28, 48.47 19.28 M48.47 19.28 C47.97 18.45, 47.48 17.61, 46.47 15.92 M48.47 19.28 C47.89 18.3, 47.31 17.33, 46.47 15.92 M46.47 15.92 C45.98 15.24, 45.49 14.56, 44.36 12.98 M46.47 15.92 C45.89 15.11, 45.3 14.29, 44.36 12.98 M44.36 12.98 C43.48 11.96, 42.6 10.94, 42.16 10.42 M44.36 12.98 C43.73 12.25, 43.1 11.51, 42.16 10.42 M42.16 10.42 C41.32 9.6, 40.47 8.78, 39.9 8.23 M42.16 10.42 C41.47 9.75, 40.79 9.09, 39.9 8.23 M39.9 8.23 C39.17 7.64, 38.45 7.05, 37.6 6.36 M39.9 8.23 C39.11 7.58, 38.31 6.94, 37.6 6.36 M37.6 6.36 C37.1 6.03, 36.61 5.69, 35.29 4.8 M37.6 6.36 C36.84 5.85, 36.09 5.34, 35.29 4.8 M35.29 4.8 C34.7 4.48, 34.12 4.15, 32.99 3.52 M35.29 4.8 C34.73 4.49, 34.18 4.18, 32.99 3.52 M32.99 3.52 C32.31 3.21, 31.63 2.9, 30.73 2.49 M32.99 3.52 C32.49 3.29, 31.99 3.06, 30.73 2.49 M30.73 2.49 C30.13 2.27, 29.52 2.04, 28.54 1.68 M30.73 2.49 C30.02 2.23, 29.31 1.97, 28.54 1.68 M28.54 1.68 C28.05 1.54, 27.55 1.4, 26.44 1.07 M28.54 1.68 C27.73 1.45, 26.91 1.21, 26.44 1.07 M26.44 1.07 C25.75 0.92, 25.07 0.77, 24.45 0.63 M26.44 1.07 C26.01 0.98, 25.58 0.88, 24.45 0.63 M24.45 0.63 C23.78 0.52, 23.11 0.41, 22.61 0.33 M24.45 0.63 C24 0.56, 23.55 0.49, 22.61 0.33 M22.61 0.33 C22.24 0.29, 21.87 0.25, 20.93 0.15 M22.61 0.33 C22.08 0.27, 21.56 0.22, 20.93 0.15 M20.93 0.15 C20.5 0.12, 20.08 0.09, 19.44 0.05 M20.93 0.15 C20.43 0.11, 19.93 0.08, 19.44 0.05 M19.44 0.05 C18.98 0.03, 18.52 0.02, 18.18 0.01 M19.44 0.05 C19.09 0.04, 18.73 0.02, 18.18 0.01 M18.18 0.01 C17.81 0, 17.44 0, 17.16 0 M18.18 0.01 C17.94 0.01, 17.69 0, 17.16 0 M17.16 0 C12.83 0, 8.51 0, 0 0 M17.16 0 C10.76 0, 4.37 0, 0 0 M0 0 C0 0, 0 0, 0 0 M0 0 C0 0, 0 0, 0 0" stroke="#000000" stroke-width="2" fill="none"/></g></g><mask/><g stroke-linecap="round"><g transform="translate(730 275) rotate(0 12.5 0)"><path d="M0 0 C7.3 0, 14.61 0, 25 0 M0 0 C8.47 0, 16.93 0, 25 0" stroke="#000" stroke-width="2" fill="none"/></g></g><mask/><g stroke-linecap="round"><g transform="translate(691 265) rotate(0 -13 0)"><path d="M0 0 C-9.12 0, -18.25 0, -26 0 M0 0 C-8.07 0, -16.13 0, -26 0" stroke="#000" stroke-width="2" fill="none"/></g></g><mask/><g stroke-linecap="round"><g transform="translate(692 285) rotate(0 -13.5 0)"><path d="M0 0 C-7.76 0, -15.52 0, -27 0 M0 0 C-8.41 0, -16.82 0, -27 0" stroke="#000" stroke-width="2" fill="none"/></g></g><mask/><g stroke-linecap="round"><g transform="translate(690 255) rotate(0 20.238094329833984 20)" fill-rule="evenodd"><path d="M0 0 L0 40 L20.48 40 L20.48 40 L22.56 39.9 L24.57 39.59 L26.51 39.1 L28.35 38.42 L30.11 37.58 L31.76 36.57 L34.7 34.12 L37.12 31.16 L38.94 27.77 L39.6 25.93 L40.08 24.02 L40.38 22.04 L40.48 20 L40.38 17.96 L40.08 15.98 L39.6 14.07 L38.94 12.23 L37.12 8.84 L34.7 5.88 L31.76 3.43 L30.11 2.42 L28.35 1.58 L26.51 0.9 L24.57 0.41 L22.56 0.1 L20.48 0 L0 0 L0 0" stroke="none" stroke-width="0" fill="black" fill-rule="evenodd"/><path d="M0 0 C0 11.03, 0 22.05, 0 40 M0 0 C0 10.55, 0 21.1, 0 40 M0 40 C8.14 40, 16.28 40, 20.48 40 M0 40 C4.75 40, 9.51 40, 20.48 40 M20.48 40 C20.48 40, 20.48 40, 20.48 40 M20.48 40 C20.48 40, 20.48 40, 20.48 40 M20.48 40 C21.11 39.97, 21.74 39.94, 22.56 39.9 M20.48 40 C20.96 39.98, 21.44 39.95, 22.56 39.9 M22.56 39.9 C23.21 39.8, 23.86 39.7, 24.57 39.59 M22.56 39.9 C23.15 39.81, 23.75 39.72, 24.57 39.59 M24.57 39.59 C25.03 39.47, 25.49 39.36, 26.51 39.1 M24.57 39.59 C25.2 39.43, 25.84 39.27, 26.51 39.1 M26.51 39.1 C27.11 38.88, 27.71 38.66, 28.35 38.42 M26.51 39.1 C26.99 38.92, 27.48 38.74, 28.35 38.42 M28.35 38.42 C29.04 38.09, 29.73 37.76, 30.11 37.58 M28.35 38.42 C28.89 38.16, 29.43 37.9, 30.11 37.58 M30.11 37.58 C30.69 37.22, 31.27 36.87, 31.76 36.57 M30.11 37.58 C30.46 37.36, 30.81 37.15, 31.76 36.57 M31.76 36.57 C32.61 35.86, 33.47 35.15, 34.7 34.12 M31.76 36.57 C32.51 35.94, 33.27 35.31, 34.7 34.12 M34.7 34.12 C35.3 33.39, 35.9 32.66, 37.12 31.16 M34.7 34.12 C35.48 33.17, 36.27 32.21, 37.12 31.16 M37.12 31.16 C37.62 30.22, 38.12 29.29, 38.94 27.77 M37.12 31.16 C37.61 30.23, 38.11 29.31, 38.94 27.77 M38.94 27.77 C39.09 27.35, 39.24 26.93, 39.6 25.93 M38.94 27.77 C39.09 27.35, 39.24 26.93, 39.6 25.93 M39.6 25.93 C39.7 25.52, 39.8 25.11, 40.08 24.02 M39.6 25.93 C39.76 25.27, 39.93 24.61, 40.08 24.02 M40.08 24.02 C40.19 23.26, 40.31 22.5, 40.38 22.04 M40.08 24.02 C40.17 23.42, 40.26 22.82, 40.38 22.04 M40.38 22.04 C40.42 21.23, 40.45 20.43, 40.48 20 M40.38 22.04 C40.4 21.49, 40.43 20.94, 40.48 20 M40.48 20 C40.44 19.22, 40.4 18.44, 40.38 17.96 M40.48 20 C40.44 19.22, 40.4 18.43, 40.38 17.96 M40.38 17.96 C40.31 17.5, 40.24 17.04, 40.08 15.98 M40.38 17.96 C40.27 17.29, 40.17 16.62, 40.08 15.98 M40.08 15.98 C39.91 15.29, 39.73 14.61, 39.6 14.07 M40.08 15.98 C39.96 15.49, 39.83 15.01, 39.6 14.07 M39.6 14.07 C39.35 13.4, 39.11 12.72, 38.94 12.23 M39.6 14.07 C39.43 13.6, 39.26 13.13, 38.94 12.23 M38.94 12.23 C38.52 11.46, 38.11 10.69, 37.12 8.84 M38.94 12.23 C38.3 11.04, 37.66 9.85, 37.12 8.84 M37.12 8.84 C36.26 7.79, 35.4 6.73, 34.7 5.88 M37.12 8.84 C36.6 8.2, 36.08 7.57, 34.7 5.88 M34.7 5.88 C33.61 4.96, 32.51 4.05, 31.76 3.43 M34.7 5.88 C33.94 5.24, 33.17 4.61, 31.76 3.43 M31.76 3.43 C31.12 3.04, 30.49 2.66, 30.11 2.42 M31.76 3.43 C31.4 3.21, 31.04 2.99, 30.11 2.42 M30.11 2.42 C29.49 2.13, 28.88 1.83, 28.35 1.58 M30.11 2.42 C29.72 2.24, 29.34 2.05, 28.35 1.58 M28.35 1.58 C27.69 1.34, 27.03 1.09, 26.51 0.9 M28.35 1.58 C27.67 1.33, 26.99 1.08, 26.51 0.9 M26.51 0.9 C25.74 0.71, 24.98 0.51, 24.57 0.41 M26.51 0.9 C26.08 0.79, 25.65 0.68, 24.57 0.41 M24.57 0.41 C24.14 0.34, 23.71 0.28, 22.56 0.1 M24.57 0.41 C23.83 0.3, 23.09 0.18, 22.56 0.1 M22.56 0.1 C21.91 0.07, 21.27 0.04, 20.48 0 M22.56 0.1 C21.92 0.07, 21.28 0.04, 20.48 0 M20.48 0 C12.31 0, 4.14 0, 0 0 M20.48 0 C15.89 0, 11.3 0, 0 0 M0 0 C0 0, 0 0, 0 0 M0 0 C0 0, 0 0, 0 0 M0 0 C0 0, 0 0, 0 0 M0 0 C0 0, 0 0, 0 0" stroke="#00000000" stroke-width="2" fill="none"/></g></g><mask/><g stroke-linecap="round"><g transform="translate(692 258) rotate(0 17.142858505249023 17.14285683631897)" fill-rule="evenodd"><path d="M0 0 L17.62 0 L17.62 0 L21.14 0.35 L24.34 1.34 L27.18 2.92 L29.61 5.01 L31.59 7.54 L33.05 10.46 L33.97 13.68 L34.29 17.14 L33.95 20.61 L32.98 23.83 L31.44 26.74 L29.37 29.28 L26.86 31.37 L23.94 32.94 L20.68 33.94 L17.14 34.29 L0 34.29 L0 0 L0 0" stroke="none" stroke-width="0" fill="#FFFFFF" fill-rule="evenodd"/><path d="M0 0 C5.18 0, 10.36 0, 17.62 0 M0 0 C5.91 0, 11.82 0, 17.62 0 M17.62 0 C17.62 0, 17.62 0, 17.62 0 M17.62 0 C17.62 0, 17.62 0, 17.62 0 M17.62 0 C18.88 0.12, 20.15 0.25, 21.14 0.35 M17.62 0 C18.94 0.13, 20.27 0.26, 21.14 0.35 M21.14 0.35 C21.83 0.56, 22.53 0.78, 24.34 1.34 M21.14 0.35 C22.05 0.63, 22.96 0.91, 24.34 1.34 M24.34 1.34 C25.35 1.9, 26.37 2.47, 27.18 2.92 M24.34 1.34 C25.04 1.73, 25.74 2.12, 27.18 2.92 M27.18 2.92 C27.75 3.4, 28.31 3.89, 29.61 5.01 M27.18 2.92 C27.79 3.44, 28.39 3.96, 29.61 5.01 M29.61 5.01 C30.04 5.56, 30.46 6.1, 31.59 7.54 M29.61 5.01 C30.15 5.7, 30.68 6.38, 31.59 7.54 M31.59 7.54 C32.12 8.6, 32.65 9.66, 33.05 10.46 M31.59 7.54 C32.11 8.58, 32.63 9.61, 33.05 10.46 M33.05 10.46 C33.32 11.39, 33.59 12.33, 33.97 13.68 M33.05 10.46 C33.41 11.7, 33.76 12.95, 33.97 13.68 M33.97 13.68 C34.08 14.85, 34.18 16.03, 34.29 17.14 M33.97 13.68 C34.09 14.97, 34.21 16.27, 34.29 17.14 M34.29 17.14 C34.2 18.03, 34.11 18.91, 33.95 20.61 M34.29 17.14 C34.21 17.92, 34.13 18.7, 33.95 20.61 M33.95 20.61 C33.6 21.76, 33.25 22.92, 32.98 23.83 M33.95 20.61 C33.73 21.34, 33.51 22.07, 32.98 23.83 M32.98 23.83 C32.65 24.45, 32.32 25.07, 31.44 26.74 M32.98 23.83 C32.64 24.47, 32.3 25.12, 31.44 26.74 M31.44 26.74 C30.62 27.75, 29.8 28.75, 29.37 29.28 M31.44 26.74 C30.85 27.47, 30.26 28.19, 29.37 29.28 M29.37 29.28 C28.41 30.08, 27.45 30.88, 26.86 31.37 M29.37 29.28 C28.59 29.93, 27.81 30.58, 26.86 31.37 M26.86 31.37 C25.98 31.84, 25.1 32.31, 23.94 32.94 M26.86 31.37 C26.05 31.8, 25.24 32.24, 23.94 32.94 M23.94 32.94 C23.24 33.16, 22.54 33.37, 20.68 33.94 M23.94 32.94 C23.18 33.18, 22.41 33.41, 20.68 33.94 M20.68 33.94 C19.65 34.04, 18.62 34.14, 17.14 34.29 M20.68 33.94 C19.35 34.07, 18.01 34.2, 17.14 34.29 M17.14 34.29 C12.4 34.29, 7.66 34.29, 0 34.29 M17.14 34.29 C13.22 34.29, 9.29 34.29, 0 34.29 M0 34.29 C0 25.27, 0 16.26, 0 0 M0 34.29 C0 23.54, 0 12.79, 0 0 M0 0 C0 0, 0 0, 0 0 M0 0 C0 0, 0 0, 0 0 M0 0 C0 0, 0 0, 0 0 M0 0 C0 0, 0 0, 0 0" stroke="#00000000" stroke-width="2" fill="none"/></g></g><mask/><g stroke-linecap="round"><g transform="translate(644.0794985869643 395) rotate(0 10.460250706517854 0)"><path d="M0 0 C6.9 0, 13.79 0, 20.92 0 M0 0 C5.49 0, 10.97 0, 20.92 0" stroke="#000" stroke-width="2" fill="none"/></g></g><mask/><g stroke-linecap="round"><g transform="translate(601.0794985869643 385) rotate(0 -13 0)"><path d="M0 0 C-7.02 0, -14.04 0, -26 0 M0 0 C-6.84 0, -13.69 0, -26 0" stroke="#000" stroke-width="2" fill="none"/></g></g><mask/><g stroke-linecap="round"><g transform="translate(601.0794985869643 405) rotate(0 -13.039749293482146 0)"><path d="M0 0 C-9.13 0, -18.26 0, -26.08 0 M0 0 C-8.12 0, -16.24 0, -26.08 0" stroke="#000" stroke-width="2" fill="none"/></g></g><mask/><g stroke-linecap="round"><g transform="translate(595.0794985869643 375) rotate(0 24.301616975389493 20)"><path d="M0 0 C0.63 0.77, 1.26 1.54, 2 2.44 M0 0 C0.54 0.66, 1.08 1.32, 2 2.44 M2 2.44 C2 2.44, 2 2.44, 2 2.44 M2 2.44 C2 2.44, 2 2.44, 2 2.44 M2 2.44 C2.02 2.47, 2.05 2.5, 2.06 2.52 M2 2.44 C2.02 2.47, 2.04 2.49, 2.06 2.52 M2.06 2.52 C2.11 2.58, 2.16 2.64, 2.24 2.76 M2.06 2.52 C2.12 2.6, 2.18 2.67, 2.24 2.76 M2.24 2.76 C2.49 3.12, 2.74 3.48, 2.88 3.7 M2.24 2.76 C2.39 2.97, 2.53 3.18, 2.88 3.7 M2.88 3.7 C3.07 4.02, 3.27 4.33, 3.79 5.21 M2.88 3.7 C3.1 4.05, 3.31 4.4, 3.79 5.21 M3.79 5.21 C4.09 5.81, 4.4 6.41, 4.83 7.26 M3.79 5.21 C4.16 5.93, 4.52 6.66, 4.83 7.26 M4.83 7.26 C5.09 7.89, 5.34 8.52, 5.87 9.8 M4.83 7.26 C5.11 7.96, 5.4 8.66, 5.87 9.8 M5.87 9.8 C6.08 10.5, 6.29 11.19, 6.77 12.8 M5.87 9.8 C6.2 10.89, 6.53 11.99, 6.77 12.8 M6.77 12.8 C6.96 13.81, 7.15 14.83, 7.41 16.21 M6.77 12.8 C6.98 13.92, 7.19 15.04, 7.41 16.21 M7.41 16.21 C7.48 17.26, 7.55 18.3, 7.66 20 M7.41 16.21 C7.51 17.73, 7.61 19.24, 7.66 20 M7.66 20 C7.57 21.32, 7.49 22.65, 7.41 23.79 M7.66 20 C7.6 20.82, 7.55 21.65, 7.41 23.79 M7.41 23.79 C7.21 24.87, 7.01 25.96, 6.77 27.2 M7.41 23.79 C7.16 25.15, 6.9 26.52, 6.77 27.2 M6.77 27.2 C6.43 28.32, 6.09 29.45, 5.87 30.2 M6.77 27.2 C6.57 27.87, 6.37 28.55, 5.87 30.2 M5.87 30.2 C5.48 31.15, 5.09 32.11, 4.83 32.74 M5.87 30.2 C5.65 30.73, 5.44 31.26, 4.83 32.74 M4.83 32.74 C4.61 33.18, 4.39 33.61, 3.79 34.79 M4.83 32.74 C4.43 33.52, 4.04 34.3, 3.79 34.79 M3.79 34.79 C3.53 35.23, 3.27 35.66, 2.88 36.3 M3.79 34.79 C3.55 35.2, 3.3 35.6, 2.88 36.3 M2.88 36.3 C2.7 36.57, 2.53 36.83, 2.24 37.24 M2.88 36.3 C2.65 36.65, 2.41 36.99, 2.24 37.24 M2.24 37.24 C2.2 37.29, 2.16 37.35, 2.06 37.48 M2.24 37.24 C2.18 37.32, 2.13 37.4, 2.06 37.48 M2.06 37.48 C2.05 37.5, 2.03 37.52, 2 37.56 M2.06 37.48 C2.05 37.5, 2.04 37.52, 2 37.56 M2 37.56 C1.29 38.43, 0.57 39.3, 0 40 M2 37.56 C1.34 38.36, 0.68 39.17, 0 40 M0 40 C3.8 40, 7.61 40, 17.16 40 M0 40 C3.8 40, 7.61 40, 17.16 40 M17.16 40 C17.16 40, 17.16 40, 17.16 40 M17.16 40 C17.16 40, 17.16 40, 17.16 40 M17.16 40 C17.46 40, 17.76 40, 18.19 40 M17.16 40 C17.38 40, 17.6 40, 18.19 40 M18.19 40 C18.6 39.99, 19 39.98, 19.47 39.97 M18.19 40 C18.66 39.99, 19.13 39.97, 19.47 39.97 M19.47 39.97 C20.05 39.93, 20.63 39.9, 20.96 39.88 M19.47 39.97 C19.89 39.94, 20.31 39.92, 20.96 39.88 M20.96 39.88 C21.52 39.82, 22.08 39.77, 22.65 39.71 M20.96 39.88 C21.31 39.84, 21.67 39.81, 22.65 39.71 M22.65 39.71 C23.17 39.63, 23.7 39.55, 24.5 39.42 M22.65 39.71 C23.14 39.63, 23.64 39.56, 24.5 39.42 M24.5 39.42 C25.17 39.28, 25.84 39.13, 26.49 39 M24.5 39.42 C24.9 39.34, 25.3 39.25, 26.49 39 M26.49 39 C27.2 38.79, 27.91 38.59, 28.59 38.4 M26.49 39 C27.04 38.84, 27.6 38.68, 28.59 38.4 M28.59 38.4 C29.33 38.12, 30.07 37.85, 30.78 37.59 M28.59 38.4 C29.46 38.08, 30.34 37.76, 30.78 37.59 M30.78 37.59 C31.63 37.2, 32.49 36.81, 33.03 36.56 M30.78 37.59 C31.49 37.27, 32.19 36.95, 33.03 36.56 M33.03 36.56 C33.86 36.1, 34.68 35.63, 35.32 35.27 M33.03 36.56 C33.63 36.23, 34.22 35.89, 35.32 35.27 M35.32 35.27 C35.8 34.94, 36.28 34.62, 37.63 33.7 M35.32 35.27 C36.04 34.78, 36.76 34.3, 37.63 33.7 M37.63 33.7 C38.44 33.03, 39.25 32.37, 39.92 31.82 M37.63 33.7 C38.41 33.06, 39.19 32.42, 39.92 31.82 M39.92 31.82 C40.6 31.15, 41.28 30.48, 42.17 29.61 M39.92 31.82 C40.6 31.15, 41.29 30.48, 42.17 29.61 M42.17 29.61 C42.83 28.84, 43.48 28.07, 44.37 27.03 M42.17 29.61 C42.62 29.08, 43.07 28.55, 44.37 27.03 M44.37 27.03 C45.02 26.12, 45.67 25.21, 46.47 24.08 M44.37 27.03 C45.19 25.88, 46.01 24.73, 46.47 24.08 M46.47 24.08 C47.05 23.11, 47.63 22.14, 48.47 20.72 M46.47 24.08 C47.1 23.03, 47.72 21.98, 48.47 20.72 M48.47 20.72 C48.52 20.47, 48.56 20.21, 48.6 20 M48.47 20.72 C48.5 20.56, 48.53 20.4, 48.6 20 M48.6 20 C48.57 19.82, 48.54 19.64, 48.47 19.28 M48.6 20 C48.56 19.77, 48.52 19.53, 48.47 19.28 M48.47 19.28 C48.47 19.28, 48.47 19.28, 48.47 19.28 M48.47 19.28 C48.47 19.28, 48.47 19.28, 48.47 19.28 M48.47 19.28 C48.03 18.54, 47.59 17.81, 46.47 15.92 M48.47 19.28 C48.05 18.58, 47.63 17.87, 46.47 15.92 M46.47 15.92 C46.04 15.33, 45.62 14.73, 44.36 12.98 M46.47 15.92 C45.91 15.14, 45.35 14.36, 44.36 12.98 M44.36 12.98 C43.76 12.28, 43.16 11.58, 42.16 10.42 M44.36 12.98 C43.63 12.13, 42.9 11.29, 42.16 10.42 M42.16 10.42 C41.43 9.72, 40.71 9.01, 39.9 8.23 M42.16 10.42 C41.62 9.9, 41.08 9.37, 39.9 8.23 M39.9 8.23 C39.44 7.85, 38.97 7.48, 37.6 6.36 M39.9 8.23 C39.08 7.56, 38.25 6.89, 37.6 6.36 M37.6 6.36 C36.9 5.89, 36.21 5.42, 35.29 4.8 M37.6 6.36 C36.97 5.94, 36.35 5.52, 35.29 4.8 M35.29 4.8 C34.79 4.52, 34.29 4.24, 32.99 3.52 M35.29 4.8 C34.47 4.34, 33.64 3.89, 32.99 3.52 M32.99 3.52 C32.25 3.18, 31.5 2.84, 30.73 2.49 M32.99 3.52 C32.38 3.24, 31.78 2.97, 30.73 2.49 M30.73 2.49 C30.16 2.28, 29.58 2.07, 28.54 1.68 M30.73 2.49 C30.07 2.25, 29.4 2, 28.54 1.68 M28.54 1.68 C27.97 1.52, 27.4 1.35, 26.44 1.07 M28.54 1.68 C27.93 1.51, 27.31 1.33, 26.44 1.07 M26.44 1.07 C25.84 0.94, 25.25 0.81, 24.45 0.63 M26.44 1.07 C25.71 0.91, 24.98 0.75, 24.45 0.63 M24.45 0.63 C23.79 0.52, 23.12 0.42, 22.61 0.33 M24.45 0.63 C23.99 0.56, 23.53 0.48, 22.61 0.33 M22.61 0.33 C22.25 0.29, 21.9 0.25, 20.93 0.15 M22.61 0.33 C22.23 0.29, 21.86 0.25, 20.93 0.15 M20.93 0.15 C20.47 0.11, 20.01 0.08, 19.44 0.05 M20.93 0.15 C20.62 0.13, 20.31 0.1, 19.44 0.05 M19.44 0.05 C19.06 0.03, 18.67 0.02, 18.18 0.01 M19.44 0.05 C19.01 0.03, 18.57 0.02, 18.18 0.01 M18.18 0.01 C17.97 0.01, 17.77 0, 17.16 0 M18.18 0.01 C17.9 0.01, 17.61 0, 17.16 0 M17.16 0 C13.35 0, 9.54 0, 0 0 M17.16 0 C11.79 0, 6.43 0, 0 0 M0 0 C0 0, 0 0, 0 0 M0 0 C0 0, 0 0, 0 0" stroke="#000000" stroke-width="2" fill="none"/></g></g><mask/><g stroke-linecap="round"><g transform="translate(644.0794985869643 142) rotate(0 10.460250706517854 0)"><path d="M0 0 C7.3 0, 14.59 0, 20.92 0 M0 0 C8.14 0, 16.28 0, 20.92 0" stroke="#000" stroke-width="2" fill="none"/></g></g><mask/><g stroke-linecap="round"><g transform="translate(601.0794985869643 132) rotate(0 -13 0)"><path d="M0 0 C-10.23 0, -20.45 0, -26 0 M0 0 C-7.96 0, -15.92 0, -26 0" stroke="#000" stroke-width="2" fill="none"/></g></g><mask/><g stroke-linecap="round"><g transform="translate(601.0794985869643 152) rotate(0 -13.039749293482146 0)"><path d="M0 0 C-9.49 0, -18.97 0, -26.08 0 M0 0 C-9.27 0, -18.54 0, -26.08 0" stroke="#000" stroke-width="2" fill="none"/></g></g><mask/><g stroke-linecap="round"><g transform="translate(595.0794985869643 122) rotate(0 24.301616975389493 20)"><path d="M0 0 C0.6 0.74, 1.21 1.47, 2 2.44 M0 0 C0.54 0.66, 1.08 1.31, 2 2.44 M2 2.44 C2 2.44, 2 2.44, 2 2.44 M2 2.44 C2 2.44, 2 2.44, 2 2.44 M2 2.44 C2.02 2.47, 2.05 2.5, 2.06 2.52 M2 2.44 C2.02 2.46, 2.04 2.48, 2.06 2.52 M2.06 2.52 C2.11 2.58, 2.16 2.64, 2.24 2.76 M2.06 2.52 C2.12 2.59, 2.17 2.66, 2.24 2.76 M2.24 2.76 C2.42 3.02, 2.61 3.29, 2.88 3.7 M2.24 2.76 C2.37 2.95, 2.5 3.14, 2.88 3.7 M2.88 3.7 C3.12 4.09, 3.35 4.47, 3.79 5.21 M2.88 3.7 C3.15 4.14, 3.42 4.59, 3.79 5.21 M3.79 5.21 C4.05 5.73, 4.31 6.24, 4.83 7.26 M3.79 5.21 C4.2 6.02, 4.61 6.83, 4.83 7.26 M4.83 7.26 C5.22 8.23, 5.62 9.2, 5.87 9.8 M4.83 7.26 C5.18 8.12, 5.53 8.99, 5.87 9.8 M5.87 9.8 C6.11 10.61, 6.36 11.43, 6.77 12.8 M5.87 9.8 C6.18 10.84, 6.49 11.88, 6.77 12.8 M6.77 12.8 C6.92 13.6, 7.07 14.4, 7.41 16.21 M6.77 12.8 C6.97 13.83, 7.16 14.85, 7.41 16.21 M7.41 16.21 C7.5 17.51, 7.58 18.81, 7.66 20 M7.41 16.21 C7.49 17.48, 7.58 18.74, 7.66 20 M7.66 20 C7.56 21.5, 7.46 23, 7.41 23.79 M7.66 20 C7.58 21.13, 7.51 22.25, 7.41 23.79 M7.41 23.79 C7.16 25.13, 6.91 26.48, 6.77 27.2 M7.41 23.79 C7.19 24.96, 6.97 26.13, 6.77 27.2 M6.77 27.2 C6.49 28.14, 6.2 29.08, 5.87 30.2 M6.77 27.2 C6.59 27.81, 6.41 28.41, 5.87 30.2 M5.87 30.2 C5.48 31.15, 5.09 32.11, 4.83 32.74 M5.87 30.2 C5.49 31.12, 5.12 32.03, 4.83 32.74 M4.83 32.74 C4.61 33.18, 4.38 33.62, 3.79 34.79 M4.83 32.74 C4.48 33.44, 4.12 34.13, 3.79 34.79 M3.79 34.79 C3.46 35.33, 3.14 35.88, 2.88 36.3 M3.79 34.79 C3.54 35.2, 3.3 35.61, 2.88 36.3 M2.88 36.3 C2.63 36.67, 2.38 37.04, 2.24 37.24 M2.88 36.3 C2.64 36.66, 2.4 37.02, 2.24 37.24 M2.24 37.24 C2.2 37.3, 2.16 37.36, 2.06 37.48 M2.24 37.24 C2.18 37.33, 2.11 37.42, 2.06 37.48 M2.06 37.48 C2.04 37.51, 2.02 37.53, 2 37.56 M2.06 37.48 C2.05 37.5, 2.03 37.52, 2 37.56 M2 37.56 C1.52 38.15, 1.03 38.74, 0 40 M2 37.56 C1.55 38.11, 1.1 38.66, 0 40 M0 40 C5.96 40, 11.91 40, 17.16 40 M0 40 C4.14 40, 8.28 40, 17.16 40 M17.16 40 C17.16 40, 17.16 40, 17.16 40 M17.16 40 C17.16 40, 17.16 40, 17.16 40 M17.16 40 C17.55 40, 17.95 40, 18.19 40 M17.16 40 C17.43 40, 17.71 40, 18.19 40 M18.19 40 C18.57 39.99, 18.96 39.98, 19.47 39.97 M18.19 40 C18.61 39.99, 19.04 39.98, 19.47 39.97 M19.47 39.97 C19.8 39.95, 20.13 39.93, 20.96 39.88 M19.47 39.97 C19.78 39.95, 20.1 39.93, 20.96 39.88 M20.96 39.88 C21.49 39.83, 22.02 39.77, 22.65 39.71 M20.96 39.88 C21.57 39.82, 22.19 39.76, 22.65 39.71 M22.65 39.71 C23.07 39.64, 23.49 39.58, 24.5 39.42 M22.65 39.71 C23.04 39.65, 23.43 39.59, 24.5 39.42 M24.5 39.42 C25.22 39.27, 25.94 39.11, 26.49 39 M24.5 39.42 C25.17 39.28, 25.85 39.13, 26.49 39 M26.49 39 C27 38.85, 27.5 38.71, 28.59 38.4 M26.49 39 C27.23 38.78, 27.96 38.57, 28.59 38.4 M28.59 38.4 C29.43 38.09, 30.27 37.78, 30.78 37.59 M28.59 38.4 C29.16 38.19, 29.73 37.98, 30.78 37.59 M30.78 37.59 C31.39 37.31, 32.01 37.03, 33.03 36.56 M30.78 37.59 C31.6 37.22, 32.42 36.84, 33.03 36.56 M33.03 36.56 C33.57 36.26, 34.11 35.96, 35.32 35.27 M33.03 36.56 C33.54 36.28, 34.05 35.99, 35.32 35.27 M35.32 35.27 C35.8 34.95, 36.27 34.63, 37.63 33.7 M35.32 35.27 C36.1 34.74, 36.87 34.22, 37.63 33.7 M37.63 33.7 C38.09 33.32, 38.55 32.94, 39.92 31.82 M37.63 33.7 C38.37 33.09, 39.12 32.47, 39.92 31.82 M39.92 31.82 C40.59 31.16, 41.26 30.5, 42.17 29.61 M39.92 31.82 C40.39 31.36, 40.86 30.9, 42.17 29.61 M42.17 29.61 C42.82 28.85, 43.46 28.1, 44.37 27.03 M42.17 29.61 C43 28.64, 43.82 27.68, 44.37 27.03 M44.37 27.03 C44.96 26.2, 45.56 25.36, 46.47 24.08 M44.37 27.03 C44.94 26.23, 45.51 25.43, 46.47 24.08 M46.47 24.08 C47.15 22.94, 47.83 21.8, 48.47 20.72 M46.47 24.08 C47.22 22.83, 47.96 21.57, 48.47 20.72 M48.47 20.72 C48.5 20.53, 48.54 20.33, 48.6 20 M48.47 20.72 C48.5 20.53, 48.54 20.34, 48.6 20 M48.6 20 C48.56 19.79, 48.52 19.58, 48.47 19.28 M48.6 20 C48.57 19.84, 48.54 19.68, 48.47 19.28 M48.47 19.28 C48.47 19.28, 48.47 19.28, 48.47 19.28 M48.47 19.28 C48.47 19.28, 48.47 19.28, 48.47 19.28 M48.47 19.28 C47.8 18.15, 47.12 17.02, 46.47 15.92 M48.47 19.28 C47.99 18.48, 47.52 17.68, 46.47 15.92 M46.47 15.92 C45.8 14.99, 45.13 14.06, 44.36 12.98 M46.47 15.92 C45.88 15.1, 45.29 14.27, 44.36 12.98 M44.36 12.98 C43.55 12.04, 42.74 11.1, 42.16 10.42 M44.36 12.98 C43.88 12.42, 43.39 11.85, 42.16 10.42 M42.16 10.42 C41.35 9.63, 40.53 8.84, 39.9 8.23 M42.16 10.42 C41.39 9.67, 40.62 8.92, 39.9 8.23 M39.9 8.23 C39.18 7.64, 38.47 7.06, 37.6 6.36 M39.9 8.23 C39.02 7.51, 38.14 6.8, 37.6 6.36 M37.6 6.36 C36.78 5.81, 35.95 5.25, 35.29 4.8 M37.6 6.36 C37.1 6.02, 36.59 5.68, 35.29 4.8 M35.29 4.8 C34.79 4.52, 34.29 4.25, 32.99 3.52 M35.29 4.8 C34.75 4.5, 34.21 4.2, 32.99 3.52 M32.99 3.52 C32.14 3.13, 31.28 2.74, 30.73 2.49 M32.99 3.52 C32.52 3.31, 32.04 3.09, 30.73 2.49 M30.73 2.49 C29.95 2.2, 29.17 1.92, 28.54 1.68 M30.73 2.49 C30.1 2.26, 29.46 2.02, 28.54 1.68 M28.54 1.68 C27.97 1.52, 27.4 1.35, 26.44 1.07 M28.54 1.68 C27.97 1.52, 27.41 1.36, 26.44 1.07 M26.44 1.07 C25.8 0.93, 25.16 0.79, 24.45 0.63 M26.44 1.07 C25.71 0.91, 24.99 0.75, 24.45 0.63 M24.45 0.63 C23.8 0.53, 23.14 0.42, 22.61 0.33 M24.45 0.63 C23.9 0.54, 23.35 0.45, 22.61 0.33 M22.61 0.33 C22.04 0.27, 21.48 0.21, 20.93 0.15 M22.61 0.33 C22.15 0.28, 21.69 0.23, 20.93 0.15 M20.93 0.15 C20.45 0.11, 19.97 0.08, 19.44 0.05 M20.93 0.15 C20.55 0.12, 20.18 0.1, 19.44 0.05 M19.44 0.05 C19.02 0.03, 18.59 0.02, 18.18 0.01 M19.44 0.05 C19.02 0.03, 18.59 0.02, 18.18 0.01 M18.18 0.01 C17.83 0, 17.48 0, 17.16 0 M18.18 0.01 C17.93 0.01, 17.69 0, 17.16 0 M17.16 0 C12.1 0, 7.05 0, 0 0 M17.16 0 C12.51 0, 7.87 0, 0 0 M0 0 C0 0, 0 0, 0 0 M0 0 C0 0, 0 0, 0 0" stroke="#000000" stroke-width="2" fill="none"/></g></g><mask/></svg>