<svg version="1.1" xmlns="http://www.w3.org/2000/svg" viewBox="0 0 908.8547466843143 554.8125" width="908.8547466843143" height="554.8125" class="excalidraw-svg">
  <!-- svg-source:excalidraw -->
  
  <defs>
    <style class="style-fonts">
      @font-face {
        font-family: "Virgil";
        src: url("https://excalidraw.com/Virgil.woff2");
      }
      @font-face {
        font-family: "Cascadia";
        src: url("https://excalidraw.com/Cascadia.woff2");
      }
      @font-face {
        font-family: "Assistant";
        src: url("https://excalidraw.com/Assistant-Regular.woff2");
      }
    </style>
    
  </defs>
  <rect x="0" y="0" width="908.8547466843143" height="554.8125" fill="#ffffff"/><g stroke-linecap="round" transform="translate(300 105) rotate(0 27.5 37.5)"><path d="M0 0 L55 0 L55 75 L0 75" stroke="none" stroke-width="0" fill="#b2f2bb"/><path d="M0 0 C13.69 0, 27.38 0, 55 0 M0 0 C16.95 0, 33.9 0, 55 0 M55 0 C55 20.04, 55 40.09, 55 75 M55 0 C55 26.57, 55 53.13, 55 75 M55 75 C34.16 75, 13.31 75, 0 75 M55 75 C36.67 75, 18.34 75, 0 75 M0 75 C0 50.53, 0 26.06, 0 0 M0 75 C0 59.04, 0 43.08, 0 0" stroke="#1e1e1e" stroke-width="2" fill="none"/></g><g stroke-linecap="round"><g transform="translate(300 160) rotate(0 -7.5 0)"><path d="M0 0 C-4.29 0, -8.58 0, -15 0 M0 0 C-4.58 0, -9.16 0, -15 0" stroke="#1e1e1e" stroke-width="2" fill="none"/></g></g><mask/><g stroke-linecap="round"><g transform="translate(300 130) rotate(0 5.5 -5)"><path d="M0 0 C4.3 -1.96, 8.61 -3.91, 11 -5 M0 0 C3.15 -1.43, 6.29 -2.86, 11 -5 M11 -5 C7.05 -6.8, 3.1 -8.59, 0 -10 M11 -5 C8.06 -6.34, 5.13 -7.67, 0 -10" stroke="#1e1e1e" stroke-width="2" fill="none"/></g></g><mask/><g stroke-linecap="round"><g transform="translate(383 160) rotate(0 -14 0)"><path d="M0 0 C-6.3 0, -12.59 0, -28 0 M0 0 C-7.13 0, -14.26 0, -28 0" stroke="#1e1e1e" stroke-width="2" fill="none"/></g></g><mask/><g stroke-linecap="round"><g transform="translate(300 125) rotate(0 -7.5 0)"><path d="M0 0 C-3.58 0, -7.15 0, -15 0 M0 0 C-3.72 0, -7.44 0, -15 0" stroke="#1e1e1e" stroke-width="2" fill="none"/></g></g><mask/><g stroke-linecap="round" transform="translate(398 105) rotate(0 27.5 37.5)"><path d="M0 0 L55 0 L55 75 L0 75" stroke="none" stroke-width="0" fill="#b2f2bb"/><path d="M0 0 C20.39 0, 40.78 0, 55 0 M0 0 C15.92 0, 31.83 0, 55 0 M55 0 C55 18.78, 55 37.55, 55 75 M55 0 C55 29.99, 55 59.98, 55 75 M55 75 C42.28 75, 29.56 75, 0 75 M55 75 C37.31 75, 19.62 75, 0 75 M0 75 C0 53.1, 0 31.2, 0 0 M0 75 C0 57.65, 0 40.31, 0 0" stroke="#1e1e1e" stroke-width="2" fill="none"/></g><g stroke-linecap="round"><g transform="translate(398 160) rotate(0 -7.5 0)"><path d="M0 0 C-3.68 0, -7.36 0, -15 0 M0 0 C-3.6 0, -7.2 0, -15 0" stroke="#1e1e1e" stroke-width="2" fill="none"/></g></g><mask/><g stroke-linecap="round"><g transform="translate(398 130) rotate(0 5.5 -5)"><path d="M0 0 C2.94 -1.34, 5.88 -2.67, 11 -5 M0 0 C3.9 -1.77, 7.79 -3.54, 11 -5 M11 -5 C6.83 -6.89, 2.66 -8.79, 0 -10 M11 -5 C7.33 -6.67, 3.67 -8.33, 0 -10" stroke="#1e1e1e" stroke-width="2" fill="none"/></g></g><mask/><g stroke-linecap="round"><g transform="translate(468 160) rotate(0 -7.5 0)"><path d="M0 0 C-3.29 0, -6.57 0, -15 0 M0 0 C-4.96 0, -9.92 0, -15 0" stroke="#1e1e1e" stroke-width="2" fill="none"/></g></g><mask/><g stroke-linecap="round"><g transform="translate(398 125) rotate(0 -7.5 0)"><path d="M0 0 C-5.39 0, -10.78 0, -15 0 M0 0 C-4.01 0, -8.01 0, -15 0" stroke="#1e1e1e" stroke-width="2" fill="none"/></g></g><mask/><g stroke-linecap="round"><g transform="translate(534 32) rotate(0 7.921543121337891 0)"><path d="M0 0 C4.44 0, 8.87 0, 15.84 0 M0 0 C4.36 0, 8.72 0, 15.84 0" stroke="#000" stroke-width="2" fill="none"/></g></g><mask/><g stroke-linecap="round"><g transform="translate(484 32) rotate(0 -12 0)"><path d="M0 0 C-5.19 0, -10.38 0, -24 0 M0 0 C-6.59 0, -13.18 0, -24 0" stroke="#000" stroke-width="2" fill="none"/></g></g><mask/><g stroke-linecap="round"><g transform="translate(483 10) rotate(0 20.882646461663285 22.40625)"><path d="M0 0 C0 14.97, 0 29.93, 0 44.81 M0 0 C0 14.72, 0 29.45, 0 44.81 M0 44.81 C0.45 44.59, 0.89 44.36, 2.09 43.75 M0 44.81 C0.82 44.4, 1.63 43.98, 2.09 43.75 M2.09 43.75 C12.98 38.26, 23.88 32.77, 41.77 23.75 M2.09 43.75 C11.35 39.08, 20.61 34.41, 41.77 23.75 M41.77 23.75 C41.77 22.97, 41.77 22.19, 41.77 21.06 M41.77 23.75 C41.77 23.2, 41.77 22.65, 41.77 21.06 M41.77 21.06 C31.05 15.66, 20.34 10.26, 2.09 1.06 M41.77 21.06 C28.19 14.22, 14.61 7.37, 2.09 1.06 M2.09 1.06 C1.6 0.81, 1.11 0.56, 0 0 M2.09 1.06 C1.36 0.69, 0.64 0.32, 0 0 M0 0 C0 0, 0 0, 0 0 M0 0 C0 0, 0 0, 0 0" stroke="#1e1e1e" stroke-width="2" fill="none"/></g></g><mask/><g stroke-linecap="round"><g transform="translate(533 32) rotate(0 -4 0)"><path d="M0 0 C0 0, 0 0, 0 0 M0 0 C0 0, 0 0, 0 0 M0 0 C-0.03 0.26, -0.07 0.51, -0.15 1.1 M0 0 C-0.04 0.32, -0.09 0.64, -0.15 1.1 M-0.15 1.1 C-0.31 1.47, -0.47 1.84, -0.56 2.06 M-0.15 1.1 C-0.29 1.42, -0.42 1.74, -0.56 2.06 M-0.56 2.06 C-0.75 2.3, -0.95 2.54, -1.2 2.86 M-0.56 2.06 C-0.74 2.28, -0.91 2.49, -1.2 2.86 M-1.2 2.86 C-1.47 3.06, -1.75 3.27, -2 3.46 M-1.2 2.86 C-1.51 3.1, -1.83 3.34, -2 3.46 M-2 3.46 C-2.25 3.57, -2.5 3.67, -2.93 3.86 M-2 3.46 C-2.28 3.58, -2.55 3.7, -2.93 3.86 M-2.93 3.86 C-3.16 3.89, -3.39 3.92, -3.94 4.01 M-2.93 3.86 C-3.19 3.89, -3.44 3.93, -3.94 4.01 M-3.94 4.01 C-4.19 3.98, -4.45 3.95, -4.98 3.88 M-3.94 4.01 C-4.26 3.97, -4.59 3.93, -4.98 3.88 M-4.98 3.88 C-5.36 3.73, -5.75 3.57, -6 3.46 M-4.98 3.88 C-5.22 3.78, -5.46 3.69, -6 3.46 M-6 3.46 C-6.17 3.33, -6.35 3.2, -6.83 2.82 M-6 3.46 C-6.33 3.21, -6.66 2.95, -6.83 2.82 M-6.83 2.82 C-6.97 2.64, -7.11 2.46, -7.46 2 M-6.83 2.82 C-7.05 2.54, -7.26 2.26, -7.46 2 M-7.46 2 C-7.57 1.74, -7.68 1.47, -7.86 1.04 M-7.46 2 C-7.56 1.76, -7.66 1.52, -7.86 1.04 M-7.86 1.04 C-7.92 0.63, -7.97 0.22, -8 0 M-7.86 1.04 C-7.91 0.69, -7.96 0.34, -8 0 M-8 0 C-7.97 -0.25, -7.93 -0.49, -7.85 -1.1 M-8 0 C-7.96 -0.33, -7.91 -0.65, -7.85 -1.1 M-7.85 -1.1 C-7.76 -1.32, -7.66 -1.54, -7.44 -2.06 M-7.85 -1.1 C-7.73 -1.37, -7.62 -1.64, -7.44 -2.06 M-7.44 -2.06 C-7.2 -2.36, -6.96 -2.65, -6.8 -2.86 M-7.44 -2.06 C-7.19 -2.36, -6.95 -2.67, -6.8 -2.86 M-6.8 -2.86 C-6.58 -3.02, -6.36 -3.19, -6 -3.46 M-6.8 -2.86 C-6.49 -3.09, -6.17 -3.33, -6 -3.46 M-6 -3.46 C-5.72 -3.58, -5.43 -3.7, -5.07 -3.86 M-6 -3.46 C-5.74 -3.57, -5.48 -3.68, -5.07 -3.86 M-5.07 -3.86 C-4.71 -3.91, -4.34 -3.96, -4.06 -4.01 M-5.07 -3.86 C-4.71 -3.91, -4.35 -3.96, -4.06 -4.01 M-4.06 -4.01 C-3.7 -3.96, -3.35 -3.92, -3.02 -3.88 M-4.06 -4.01 C-3.67 -3.96, -3.28 -3.91, -3.02 -3.88 M-3.02 -3.88 C-2.68 -3.74, -2.34 -3.6, -2 -3.46 M-3.02 -3.88 C-2.76 -3.78, -2.5 -3.67, -2 -3.46 M-2 -3.46 C-1.77 -3.29, -1.55 -3.12, -1.17 -2.82 M-2 -3.46 C-1.67 -3.21, -1.35 -2.96, -1.17 -2.82 M-1.17 -2.82 C-0.95 -2.55, -0.74 -2.27, -0.54 -2 M-1.17 -2.82 C-1.03 -2.64, -0.89 -2.46, -0.54 -2 M-0.54 -2 C-0.45 -1.79, -0.36 -1.59, -0.14 -1.04 M-0.54 -2 C-0.43 -1.74, -0.32 -1.49, -0.14 -1.04 M-0.14 -1.04 C-0.1 -0.72, -0.05 -0.4, 0 0 M-0.14 -1.04 C-0.09 -0.67, -0.04 -0.29, 0 0 M0 0 C0 0, 0 0, 0 0 M0 0 C0 0, 0 0, 0 0" stroke="#000" stroke-width="2" fill="none"/></g></g><mask/><g stroke-linecap="round"><g transform="translate(534 522) rotate(0 7.921543121337891 0)"><path d="M0 0 C3.37 0, 6.74 0, 15.84 0 M0 0 C3.72 0, 7.43 0, 15.84 0" stroke="#000" stroke-width="2" fill="none"/></g></g><mask/><g stroke-linecap="round"><g transform="translate(484 522) rotate(0 -12 0)"><path d="M0 0 C-6.32 0, -12.64 0, -24 0 M0 0 C-8.95 0, -17.91 0, -24 0" stroke="#000" stroke-width="2" fill="none"/></g></g><mask/><g stroke-linecap="round"><g transform="translate(483 500) rotate(0 20.882646461663285 22.40625)"><path d="M0 0 C0 12.91, 0 25.81, 0 44.81 M0 0 C0 9.17, 0 18.34, 0 44.81 M0 44.81 C0.46 44.58, 0.92 44.35, 2.09 43.75 M0 44.81 C0.42 44.6, 0.84 44.39, 2.09 43.75 M2.09 43.75 C16.24 36.61, 30.4 29.48, 41.77 23.75 M2.09 43.75 C14.92 37.28, 27.75 30.82, 41.77 23.75 M41.77 23.75 C41.77 23.12, 41.77 22.5, 41.77 21.06 M41.77 23.75 C41.77 22.93, 41.77 22.1, 41.77 21.06 M41.77 21.06 C32.69 16.49, 23.61 11.91, 2.09 1.06 M41.77 21.06 C27.51 13.88, 13.25 6.69, 2.09 1.06 M2.09 1.06 C1.35 0.69, 0.62 0.32, 0 0 M2.09 1.06 C1.37 0.7, 0.66 0.34, 0 0 M0 0 C0 0, 0 0, 0 0 M0 0 C0 0, 0 0, 0 0" stroke="#1e1e1e" stroke-width="2" fill="none"/></g></g><mask/><g stroke-linecap="round"><g transform="translate(533 522) rotate(0 -4 0)"><path d="M0 0 C0 0, 0 0, 0 0 M0 0 C0 0, 0 0, 0 0 M0 0 C-0.06 0.44, -0.12 0.87, -0.15 1.1 M0 0 C-0.04 0.33, -0.09 0.66, -0.15 1.1 M-0.15 1.1 C-0.26 1.35, -0.37 1.6, -0.56 2.06 M-0.15 1.1 C-0.28 1.41, -0.42 1.72, -0.56 2.06 M-0.56 2.06 C-0.73 2.27, -0.9 2.48, -1.2 2.86 M-0.56 2.06 C-0.75 2.3, -0.95 2.54, -1.2 2.86 M-1.2 2.86 C-1.38 2.99, -1.56 3.13, -2 3.46 M-1.2 2.86 C-1.51 3.1, -1.83 3.34, -2 3.46 M-2 3.46 C-2.34 3.61, -2.69 3.75, -2.93 3.86 M-2 3.46 C-2.25 3.57, -2.5 3.68, -2.93 3.86 M-2.93 3.86 C-3.27 3.91, -3.61 3.96, -3.94 4.01 M-2.93 3.86 C-3.2 3.9, -3.47 3.94, -3.94 4.01 M-3.94 4.01 C-4.2 3.98, -4.46 3.94, -4.98 3.88 M-3.94 4.01 C-4.23 3.97, -4.52 3.94, -4.98 3.88 M-4.98 3.88 C-5.25 3.77, -5.53 3.66, -6 3.46 M-4.98 3.88 C-5.28 3.76, -5.59 3.63, -6 3.46 M-6 3.46 C-6.25 3.27, -6.51 3.07, -6.83 2.82 M-6 3.46 C-6.27 3.26, -6.54 3.05, -6.83 2.82 M-6.83 2.82 C-7.07 2.51, -7.31 2.21, -7.46 2 M-6.83 2.82 C-7.03 2.57, -7.22 2.32, -7.46 2 M-7.46 2 C-7.58 1.72, -7.69 1.45, -7.86 1.04 M-7.46 2 C-7.56 1.78, -7.65 1.56, -7.86 1.04 M-7.86 1.04 C-7.89 0.81, -7.92 0.58, -8 0 M-7.86 1.04 C-7.9 0.74, -7.94 0.44, -8 0 M-8 0 C-7.94 -0.44, -7.88 -0.87, -7.85 -1.1 M-8 0 C-7.95 -0.38, -7.9 -0.76, -7.85 -1.1 M-7.85 -1.1 C-7.74 -1.35, -7.63 -1.61, -7.44 -2.06 M-7.85 -1.1 C-7.72 -1.4, -7.59 -1.7, -7.44 -2.06 M-7.44 -2.06 C-7.19 -2.37, -6.95 -2.68, -6.8 -2.86 M-7.44 -2.06 C-7.29 -2.24, -7.14 -2.43, -6.8 -2.86 M-6.8 -2.86 C-6.49 -3.09, -6.18 -3.33, -6 -3.46 M-6.8 -2.86 C-6.62 -2.99, -6.44 -3.13, -6 -3.46 M-6 -3.46 C-5.76 -3.57, -5.51 -3.67, -5.07 -3.86 M-6 -3.46 C-5.64 -3.61, -5.29 -3.77, -5.07 -3.86 M-5.07 -3.86 C-4.72 -3.91, -4.38 -3.96, -4.06 -4.01 M-5.07 -3.86 C-4.73 -3.91, -4.39 -3.96, -4.06 -4.01 M-4.06 -4.01 C-3.67 -3.96, -3.28 -3.91, -3.02 -3.88 M-4.06 -4.01 C-3.73 -3.97, -3.4 -3.93, -3.02 -3.88 M-3.02 -3.88 C-2.71 -3.75, -2.4 -3.63, -2 -3.46 M-3.02 -3.88 C-2.67 -3.74, -2.32 -3.6, -2 -3.46 M-2 -3.46 C-1.71 -3.24, -1.43 -3.02, -1.17 -2.82 M-2 -3.46 C-1.77 -3.29, -1.54 -3.11, -1.17 -2.82 M-1.17 -2.82 C-0.95 -2.54, -0.73 -2.25, -0.54 -2 M-1.17 -2.82 C-1.04 -2.66, -0.91 -2.49, -0.54 -2 M-0.54 -2 C-0.41 -1.7, -0.29 -1.4, -0.14 -1.04 M-0.54 -2 C-0.41 -1.7, -0.29 -1.41, -0.14 -1.04 M-0.14 -1.04 C-0.09 -0.69, -0.04 -0.33, 0 0 M-0.14 -1.04 C-0.1 -0.78, -0.07 -0.52, 0 0 M0 0 C0 0, 0 0, 0 0 M0 0 C0 0, 0 0, 0 0" stroke="#000" stroke-width="2" fill="none"/></g></g><mask/><g stroke-linecap="round"><g transform="translate(665 150) rotate(0 12.5 0)"><path d="M0 0 C5.78 0, 11.57 0, 25 0 M0 0 C8.04 0, 16.08 0, 25 0" stroke="#000" stroke-width="2" fill="none"/></g></g><mask/><g stroke-linecap="round"><g transform="translate(626 140) rotate(0 -13 0)"><path d="M0 0 C-5.88 0, -11.75 0, -26 0 M0 0 C-9.07 0, -18.14 0, -26 0" stroke="#000" stroke-width="2" fill="none"/></g></g><mask/><g stroke-linecap="round"><g transform="translate(627 160) rotate(0 -13.5 0)"><path d="M0 0 C-8.81 0, -17.62 0, -27 0 M0 0 C-5.75 0, -11.49 0, -27 0" stroke="#000" stroke-width="2" fill="none"/></g></g><mask/><g stroke-linecap="round"><g transform="translate(625 130) rotate(0 20.238094329833984 20)" fill-rule="evenodd"><path d="M0 0 L0 40 L20.48 40 L20.48 40 L22.56 39.9 L24.57 39.59 L26.51 39.1 L28.35 38.42 L30.11 37.58 L31.76 36.57 L34.7 34.12 L37.12 31.16 L38.94 27.77 L39.6 25.93 L40.08 24.02 L40.38 22.04 L40.48 20 L40.38 17.96 L40.08 15.98 L39.6 14.07 L38.94 12.23 L37.12 8.84 L34.7 5.88 L31.76 3.43 L30.11 2.42 L28.35 1.58 L26.51 0.9 L24.57 0.41 L22.56 0.1 L20.48 0 L0 0 L0 0" stroke="none" stroke-width="0" fill="black" fill-rule="evenodd"/><path d="M0 0 C0 11.28, 0 22.56, 0 40 M0 0 C0 8.96, 0 17.91, 0 40 M0 40 C6.61 40, 13.21 40, 20.48 40 M0 40 C6.18 40, 12.36 40, 20.48 40 M20.48 40 C20.48 40, 20.48 40, 20.48 40 M20.48 40 C20.48 40, 20.48 40, 20.48 40 M20.48 40 C21.1 39.97, 21.73 39.94, 22.56 39.9 M20.48 40 C21.04 39.97, 21.6 39.94, 22.56 39.9 M22.56 39.9 C23.28 39.79, 24.01 39.68, 24.57 39.59 M22.56 39.9 C23.06 39.82, 23.57 39.74, 24.57 39.59 M24.57 39.59 C25.26 39.42, 25.94 39.24, 26.51 39.1 M24.57 39.59 C25.32 39.4, 26.07 39.21, 26.51 39.1 M26.51 39.1 C27.02 38.91, 27.53 38.72, 28.35 38.42 M26.51 39.1 C27.2 38.84, 27.89 38.59, 28.35 38.42 M28.35 38.42 C29.01 38.11, 29.67 37.79, 30.11 37.58 M28.35 38.42 C28.85 38.18, 29.35 37.94, 30.11 37.58 M30.11 37.58 C30.63 37.26, 31.16 36.94, 31.76 36.57 M30.11 37.58 C30.64 37.25, 31.17 36.93, 31.76 36.57 M31.76 36.57 C32.64 35.84, 33.52 35.1, 34.7 34.12 M31.76 36.57 C32.68 35.81, 33.6 35.04, 34.7 34.12 M34.7 34.12 C35.64 32.97, 36.59 31.82, 37.12 31.16 M34.7 34.12 C35.35 33.33, 36 32.53, 37.12 31.16 M37.12 31.16 C37.53 30.39, 37.94 29.62, 38.94 27.77 M37.12 31.16 C37.58 30.29, 38.05 29.42, 38.94 27.77 M38.94 27.77 C39.2 27.04, 39.46 26.31, 39.6 25.93 M38.94 27.77 C39.18 27.08, 39.43 26.4, 39.6 25.93 M39.6 25.93 C39.74 25.36, 39.89 24.78, 40.08 24.02 M39.6 25.93 C39.7 25.52, 39.8 25.12, 40.08 24.02 M40.08 24.02 C40.18 23.33, 40.28 22.65, 40.38 22.04 M40.08 24.02 C40.15 23.52, 40.23 23.02, 40.38 22.04 M40.38 22.04 C40.4 21.6, 40.42 21.15, 40.48 20 M40.38 22.04 C40.41 21.41, 40.44 20.79, 40.48 20 M40.48 20 C40.45 19.49, 40.43 18.98, 40.38 17.96 M40.48 20 C40.44 19.37, 40.41 18.73, 40.38 17.96 M40.38 17.96 C40.28 17.32, 40.18 16.68, 40.08 15.98 M40.38 17.96 C40.26 17.2, 40.15 16.43, 40.08 15.98 M40.08 15.98 C39.97 15.56, 39.86 15.13, 39.6 14.07 M40.08 15.98 C39.97 15.56, 39.87 15.14, 39.6 14.07 M39.6 14.07 C39.38 13.48, 39.17 12.89, 38.94 12.23 M39.6 14.07 C39.38 13.47, 39.16 12.87, 38.94 12.23 M38.94 12.23 C38.26 10.97, 37.59 9.71, 37.12 8.84 M38.94 12.23 C38.52 11.46, 38.11 10.69, 37.12 8.84 M37.12 8.84 C36.24 7.76, 35.37 6.69, 34.7 5.88 M37.12 8.84 C36.35 7.89, 35.58 6.95, 34.7 5.88 M34.7 5.88 C33.78 5.11, 32.85 4.34, 31.76 3.43 M34.7 5.88 C33.97 5.27, 33.24 4.66, 31.76 3.43 M31.76 3.43 C31.18 3.08, 30.61 2.73, 30.11 2.42 M31.76 3.43 C31.13 3.04, 30.49 2.66, 30.11 2.42 M30.11 2.42 C29.64 2.2, 29.17 1.97, 28.35 1.58 M30.11 2.42 C29.44 2.1, 28.78 1.78, 28.35 1.58 M28.35 1.58 C27.92 1.42, 27.49 1.26, 26.51 0.9 M28.35 1.58 C27.87 1.4, 27.39 1.23, 26.51 0.9 M26.51 0.9 C25.83 0.73, 25.16 0.56, 24.57 0.41 M26.51 0.9 C25.76 0.71, 25.02 0.52, 24.57 0.41 M24.57 0.41 C23.92 0.31, 23.26 0.21, 22.56 0.1 M24.57 0.41 C23.93 0.31, 23.29 0.22, 22.56 0.1 M22.56 0.1 C21.99 0.08, 21.41 0.05, 20.48 0 M22.56 0.1 C22.13 0.08, 21.71 0.06, 20.48 0 M20.48 0 C12.7 0, 4.93 0, 0 0 M20.48 0 C15.52 0, 10.57 0, 0 0 M0 0 C0 0, 0 0, 0 0 M0 0 C0 0, 0 0, 0 0 M0 0 C0 0, 0 0, 0 0 M0 0 C0 0, 0 0, 0 0" stroke="#00000000" stroke-width="2" fill="none"/></g></g><mask/><g stroke-linecap="round"><g transform="translate(627 133) rotate(0 17.142858505249023 17.14285683631897)" fill-rule="evenodd"><path d="M0 0 L17.62 0 L17.62 0 L21.14 0.35 L24.34 1.34 L27.18 2.92 L29.61 5.01 L31.59 7.54 L33.05 10.46 L33.97 13.68 L34.29 17.14 L33.95 20.61 L32.98 23.83 L31.44 26.74 L29.37 29.28 L26.86 31.37 L23.94 32.94 L20.68 33.94 L17.14 34.29 L0 34.29 L0 0 L0 0" stroke="none" stroke-width="0" fill="#FFFFFF" fill-rule="evenodd"/><path d="M0 0 C6.6 0, 13.2 0, 17.62 0 M0 0 C5.89 0, 11.78 0, 17.62 0 M17.62 0 C17.62 0, 17.62 0, 17.62 0 M17.62 0 C17.62 0, 17.62 0, 17.62 0 M17.62 0 C18.43 0.08, 19.23 0.16, 21.14 0.35 M17.62 0 C18.83 0.12, 20.04 0.24, 21.14 0.35 M21.14 0.35 C22 0.62, 22.86 0.88, 24.34 1.34 M21.14 0.35 C22.08 0.64, 23.02 0.93, 24.34 1.34 M24.34 1.34 C25.35 1.9, 26.35 2.46, 27.18 2.92 M24.34 1.34 C25.3 1.88, 26.26 2.41, 27.18 2.92 M27.18 2.92 C28.12 3.72, 29.05 4.53, 29.61 5.01 M27.18 2.92 C28.11 3.71, 29.03 4.51, 29.61 5.01 M29.61 5.01 C30.07 5.6, 30.53 6.19, 31.59 7.54 M29.61 5.01 C30.16 5.71, 30.71 6.42, 31.59 7.54 M31.59 7.54 C32.06 8.47, 32.53 9.41, 33.05 10.46 M31.59 7.54 C31.9 8.16, 32.21 8.78, 33.05 10.46 M33.05 10.46 C33.33 11.41, 33.6 12.37, 33.97 13.68 M33.05 10.46 C33.38 11.6, 33.7 12.74, 33.97 13.68 M33.97 13.68 C34.04 14.45, 34.11 15.22, 34.29 17.14 M33.97 13.68 C34.05 14.54, 34.13 15.4, 34.29 17.14 M34.29 17.14 C34.21 17.96, 34.13 18.78, 33.95 20.61 M34.29 17.14 C34.19 18.1, 34.1 19.05, 33.95 20.61 M33.95 20.61 C33.62 21.71, 33.29 22.81, 32.98 23.83 M33.95 20.61 C33.73 21.34, 33.51 22.06, 32.98 23.83 M32.98 23.83 C32.54 24.66, 32.1 25.48, 31.44 26.74 M32.98 23.83 C32.4 24.92, 31.82 26.02, 31.44 26.74 M31.44 26.74 C30.76 27.57, 30.09 28.4, 29.37 29.28 M31.44 26.74 C30.92 27.38, 30.4 28.02, 29.37 29.28 M29.37 29.28 C28.54 29.97, 27.71 30.66, 26.86 31.37 M29.37 29.28 C28.59 29.93, 27.8 30.58, 26.86 31.37 M26.86 31.37 C25.89 31.89, 24.92 32.41, 23.94 32.94 M26.86 31.37 C25.95 31.85, 25.05 32.34, 23.94 32.94 M23.94 32.94 C23.23 33.16, 22.52 33.38, 20.68 33.94 M23.94 32.94 C22.74 33.31, 21.55 33.67, 20.68 33.94 M20.68 33.94 C19.59 34.05, 18.49 34.15, 17.14 34.29 M20.68 33.94 C19.43 34.06, 18.19 34.18, 17.14 34.29 M17.14 34.29 C13.09 34.29, 9.03 34.29, 0 34.29 M17.14 34.29 C11.23 34.29, 5.32 34.29, 0 34.29 M0 34.29 C0 23.46, 0 12.62, 0 0 M0 34.29 C0 27.07, 0 19.86, 0 0 M0 0 C0 0, 0 0, 0 0 M0 0 C0 0, 0 0, 0 0 M0 0 C0 0, 0 0, 0 0 M0 0 C0 0, 0 0, 0 0" stroke="#00000000" stroke-width="2" fill="none"/></g></g><mask/><g stroke-linecap="round"><g transform="translate(81.66211354233474 32.29695163832548) rotate(0 189.16894322883263 -0.14847581916274066)"><path d="M0 0 C80.89 -0.06, 161.78 -0.13, 378.34 -0.3 M0 0 C148.1 -0.12, 296.2 -0.23, 378.34 -0.3" stroke="#1e1e1e" stroke-width="2" fill="none"/></g></g><mask/><g stroke-linecap="round"><g transform="translate(601 160) rotate(0 -67 0)"><path d="M0 0 C-45.4 0, -90.8 0, -134 0 M0 0 C-46.43 0, -92.85 0, -134 0" stroke="#1e1e1e" stroke-width="2" fill="none"/></g></g><mask/><g stroke-linecap="round"><g transform="translate(261 160) rotate(0 12.5 0)"><path d="M0 0 C0 0, 0 0, 0 0 M0 0 C0 0, 0 0, 0 0 M0 0 C1.3 0, 2.59 0, 3.58 0 M0 0 C0.87 0, 1.75 0, 3.58 0 M3.58 0 C4.55 0, 5.53 0, 6.82 0 M3.58 0 C4.45 0, 5.32 0, 6.82 0 M6.82 0 C7.87 0, 8.92 0, 9.73 0 M6.82 0 C7.55 0, 8.28 0, 9.73 0 M9.73 0 C10.66 0, 11.59 0, 12.34 0 M9.73 0 C10.74 0, 11.75 0, 12.34 0 M12.34 0 C12.99 0, 13.63 0, 14.66 0 M12.34 0 C13.21 0, 14.08 0, 14.66 0 M14.66 0 C15.42 0, 16.18 0, 16.7 0 M14.66 0 C15.24 0, 15.81 0, 16.7 0 M16.7 0 C17.27 0, 17.83 0, 18.47 0 M16.7 0 C17.27 0, 17.84 0, 18.47 0 M18.47 0 C18.93 0, 19.39 0, 20 0 M18.47 0 C18.95 0, 19.43 0, 20 0 M20 0 C20.5 0, 21.01 0, 21.29 0 M20 0 C20.35 0, 20.7 0, 21.29 0 M21.29 0 C21.54 0, 21.78 0, 22.36 0 M21.29 0 C21.57 0, 21.84 0, 22.36 0 M22.36 0 C22.71 0, 23.05 0, 23.23 0 M22.36 0 C22.68 0, 23.01 0, 23.23 0 M23.23 0 C23.43 0, 23.64 0, 23.91 0 M23.23 0 C23.37 0, 23.52 0, 23.91 0 M23.91 0 C24.2 0, 24.49 0, 24.75 0 M23.91 0 C24.12 0, 24.33 0, 24.75 0 M24.75 0 C24.8 0, 24.86 0, 25 0 M24.75 0 C24.82 0, 24.9 0, 25 0" stroke="#000000" stroke-width="2" fill="none"/></g></g><mask/><g stroke-linecap="round"><g transform="translate(222 150) rotate(0 -13 0)"><path d="M0 0 C-5.93 0, -11.86 0, -26 0 M0 0 C-6.85 0, -13.71 0, -26 0" stroke="#000000" stroke-width="2" fill="none"/></g></g><mask/><g stroke-linecap="round"><g transform="translate(223 170) rotate(0 -13.5 0)"><path d="M0 0 C-7.41 0, -14.83 0, -27 0 M0 0 C-6.3 0, -12.6 0, -27 0" stroke="#000000" stroke-width="2" fill="none"/></g></g><mask/><g stroke-linecap="round"><g transform="translate(221 140) rotate(0 20.238094329833984 20)"><path d="M0 0 C0 0.55, 0 1.1, 0 1.43 M0 0 C0 0.48, 0 0.95, 0 1.43 M0 1.43 C0 12.69, 0 23.96, 0 38.57 M0 1.43 C0 11.61, 0 21.78, 0 38.57 M0 38.57 C0 39.06, 0 39.55, 0 40 M0 38.57 C0 39.14, 0 39.71, 0 40 M0 40 C0.38 40, 0.77 40, 1.43 40 M0 40 C0.42 40, 0.85 40, 1.43 40 M1.43 40 C5.81 40, 10.18 40, 20.48 40 M1.43 40 C6.3 40, 11.16 40, 20.48 40 M20.48 40 C20.48 40, 20.48 40, 20.48 40 M20.48 40 C20.48 40, 20.48 40, 20.48 40 M20.48 40 C21.26 39.96, 22.05 39.92, 22.56 39.9 M20.48 40 C20.97 39.98, 21.46 39.95, 22.56 39.9 M22.56 39.9 C22.98 39.83, 23.4 39.77, 24.57 39.59 M22.56 39.9 C23.36 39.78, 24.16 39.65, 24.57 39.59 M24.57 39.59 C25 39.48, 25.43 39.37, 26.51 39.1 M24.57 39.59 C25.23 39.42, 25.89 39.26, 26.51 39.1 M26.51 39.1 C27.02 38.91, 27.53 38.72, 28.35 38.42 M26.51 39.1 C26.97 38.93, 27.44 38.76, 28.35 38.42 M28.35 38.42 C29.04 38.09, 29.73 37.76, 30.11 37.58 M28.35 38.42 C28.95 38.14, 29.55 37.85, 30.11 37.58 M30.11 37.58 C30.48 37.35, 30.84 37.13, 31.76 36.57 M30.11 37.58 C30.6 37.28, 31.09 36.98, 31.76 36.57 M31.76 36.57 C32.44 36, 33.12 35.44, 34.7 34.12 M31.76 36.57 C32.59 35.88, 33.43 35.19, 34.7 34.12 M34.7 34.12 C35.61 33.02, 36.51 31.91, 37.12 31.16 M34.7 34.12 C35.63 32.99, 36.56 31.85, 37.12 31.16 M37.12 31.16 C37.62 30.23, 38.12 29.29, 38.94 27.77 M37.12 31.16 C37.83 29.83, 38.54 28.5, 38.94 27.77 M38.94 27.77 C39.14 27.21, 39.34 26.64, 39.6 25.93 M38.94 27.77 C39.12 27.26, 39.3 26.74, 39.6 25.93 M39.6 25.93 C39.77 25.24, 39.95 24.55, 40.08 24.02 M39.6 25.93 C39.77 25.24, 39.94 24.55, 40.08 24.02 M40.08 24.02 C40.18 23.34, 40.28 22.65, 40.38 22.04 M40.08 24.02 C40.19 23.27, 40.3 22.53, 40.38 22.04 M40.38 22.04 C40.41 21.36, 40.44 20.68, 40.48 20 M40.38 22.04 C40.4 21.52, 40.43 21, 40.48 20 M40.48 20 C40.45 19.45, 40.42 18.89, 40.38 17.96 M40.48 20 C40.44 19.2, 40.4 18.4, 40.38 17.96 M40.38 17.96 C40.28 17.3, 40.18 16.64, 40.08 15.98 M40.38 17.96 C40.31 17.53, 40.25 17.1, 40.08 15.98 M40.08 15.98 C39.97 15.57, 39.87 15.15, 39.6 14.07 M40.08 15.98 C39.95 15.47, 39.82 14.96, 39.6 14.07 M39.6 14.07 C39.39 13.51, 39.19 12.94, 38.94 12.23 M39.6 14.07 C39.36 13.4, 39.12 12.74, 38.94 12.23 M38.94 12.23 C38.28 11, 37.61 9.76, 37.12 8.84 M38.94 12.23 C38.45 11.32, 37.96 10.41, 37.12 8.84 M37.12 8.84 C36.4 7.96, 35.68 7.08, 34.7 5.88 M37.12 8.84 C36.44 8.01, 35.77 7.18, 34.7 5.88 M34.7 5.88 C33.98 5.27, 33.25 4.67, 31.76 3.43 M34.7 5.88 C33.88 5.19, 33.05 4.5, 31.76 3.43 M31.76 3.43 C31.17 3.07, 30.59 2.72, 30.11 2.42 M31.76 3.43 C31.22 3.1, 30.68 2.77, 30.11 2.42 M30.11 2.42 C29.67 2.21, 29.23 2, 28.35 1.58 M30.11 2.42 C29.56 2.16, 29.01 1.89, 28.35 1.58 M28.35 1.58 C27.94 1.43, 27.52 1.27, 26.51 0.9 M28.35 1.58 C27.72 1.35, 27.08 1.11, 26.51 0.9 M26.51 0.9 C25.9 0.75, 25.3 0.59, 24.57 0.41 M26.51 0.9 C26.11 0.8, 25.72 0.7, 24.57 0.41 M24.57 0.41 C24.04 0.33, 23.52 0.25, 22.56 0.1 M24.57 0.41 C23.9 0.31, 23.22 0.2, 22.56 0.1 M22.56 0.1 C22.09 0.08, 21.63 0.06, 20.48 0 M22.56 0.1 C21.92 0.07, 21.28 0.04, 20.48 0 M20.48 0 C20.46 0, 20.45 0, 20.44 0 M20.48 0 C20.46 0, 20.45 0, 20.44 0 M20.44 0 C20.36 0, 20.27 0, 20.18 0 M20.44 0 C20.39 0, 20.33 0, 20.18 0 M20.18 0 C20.01 0, 19.84 0, 19.47 0 M20.18 0 C19.93 0, 19.69 0, 19.47 0 M19.47 0 C19.24 0, 19 0, 18.88 0 M19.47 0 C19.35 0, 19.24 0, 18.88 0 M18.88 0 C18.57 0, 18.26 0, 18.1 0 M18.88 0 C18.61 0, 18.33 0, 18.1 0 M18.1 0 C17.89 0, 17.69 0, 17.09 0 M18.1 0 C17.87 0, 17.64 0, 17.09 0 M17.09 0 C16.67 0, 16.25 0, 15.83 0 M17.09 0 C16.72 0, 16.35 0, 15.83 0 M15.83 0 C15.33 0, 14.84 0, 14.29 0 M15.83 0 C15.32 0, 14.82 0, 14.29 0 M14.29 0 C13.72 0, 13.15 0, 12.44 0 M14.29 0 C13.62 0, 12.96 0, 12.44 0 M12.44 0 C11.77 0, 11.1 0, 10.26 0 M12.44 0 C11.61 0, 10.78 0, 10.26 0 M10.26 0 C9.27 0, 8.29 0, 7.72 0 M10.26 0 C9.52 0, 8.77 0, 7.72 0 M7.72 0 C6.67 0, 5.62 0, 4.78 0 M7.72 0 C6.58 0, 5.45 0, 4.78 0 M4.78 0 C3.67 0, 2.56 0, 1.43 0 M4.78 0 C3.72 0, 2.66 0, 1.43 0 M1.43 0 C1.11 0, 0.8 0, 0 0 M1.43 0 C0.91 0, 0.38 0, 0 0 M0 0 C0 0, 0 0, 0 0 M0 0 C0 0, 0 0, 0 0" stroke="#000000" stroke-width="2" fill="none"/></g></g><mask/><g stroke-linecap="round"><g transform="translate(181 150) rotate(0 7.921543121337891 0)"><path d="M0 0 C4.48 0, 8.96 0, 15.84 0 M0 0 C5.66 0, 11.31 0, 15.84 0" stroke="#000" stroke-width="2" fill="none"/></g></g><mask/><g stroke-linecap="round"><g transform="translate(131 150) rotate(0 -12 0)"><path d="M0 0 C-6.89 0, -13.78 0, -24 0 M0 0 C-5.46 0, -10.92 0, -24 0" stroke="#000" stroke-width="2" fill="none"/></g></g><mask/><g stroke-linecap="round"><g transform="translate(130 128) rotate(0 20.882646461663285 22.40625)"><path d="M0 0 C0 9.5, 0 19, 0 44.81 M0 0 C0 15.47, 0 30.95, 0 44.81 M0 44.81 C0.59 44.51, 1.19 44.21, 2.09 43.75 M0 44.81 C0.52 44.55, 1.04 44.28, 2.09 43.75 M2.09 43.75 C14.77 37.36, 27.45 30.96, 41.77 23.75 M2.09 43.75 C10.14 39.69, 18.19 35.63, 41.77 23.75 M41.77 23.75 C41.77 23.01, 41.77 22.26, 41.77 21.06 M41.77 23.75 C41.77 23.16, 41.77 22.57, 41.77 21.06 M41.77 21.06 C26.06 13.15, 10.35 5.23, 2.09 1.06 M41.77 21.06 C31.43 15.85, 21.09 10.64, 2.09 1.06 M2.09 1.06 C1.31 0.67, 0.53 0.27, 0 0 M2.09 1.06 C1.66 0.85, 1.24 0.63, 0 0 M0 0 C0 0, 0 0, 0 0 M0 0 C0 0, 0 0, 0 0" stroke="#1e1e1e" stroke-width="2" fill="none"/></g></g><mask/><g stroke-linecap="round"><g transform="translate(180 150) rotate(0 -4 0)"><path d="M0 0 C0 0, 0 0, 0 0 M0 0 C0 0, 0 0, 0 0 M0 0 C-0.04 0.33, -0.09 0.66, -0.15 1.1 M0 0 C-0.04 0.3, -0.08 0.59, -0.15 1.1 M-0.15 1.1 C-0.3 1.44, -0.45 1.79, -0.56 2.06 M-0.15 1.1 C-0.25 1.34, -0.36 1.58, -0.56 2.06 M-0.56 2.06 C-0.79 2.34, -1.01 2.62, -1.2 2.86 M-0.56 2.06 C-0.81 2.37, -1.05 2.67, -1.2 2.86 M-1.2 2.86 C-1.42 3.02, -1.64 3.19, -2 3.46 M-1.2 2.86 C-1.5 3.08, -1.8 3.31, -2 3.46 M-2 3.46 C-2.35 3.61, -2.69 3.76, -2.93 3.86 M-2 3.46 C-2.26 3.58, -2.53 3.69, -2.93 3.86 M-2.93 3.86 C-3.25 3.9, -3.57 3.95, -3.94 4.01 M-2.93 3.86 C-3.25 3.9, -3.58 3.95, -3.94 4.01 M-3.94 4.01 C-4.25 3.97, -4.56 3.93, -4.98 3.88 M-3.94 4.01 C-4.26 3.97, -4.59 3.93, -4.98 3.88 M-4.98 3.88 C-5.38 3.72, -5.77 3.56, -6 3.46 M-4.98 3.88 C-5.25 3.77, -5.53 3.66, -6 3.46 M-6 3.46 C-6.19 3.32, -6.38 3.17, -6.83 2.82 M-6 3.46 C-6.21 3.3, -6.43 3.14, -6.83 2.82 M-6.83 2.82 C-7.08 2.5, -7.33 2.17, -7.46 2 M-6.83 2.82 C-7.07 2.52, -7.3 2.21, -7.46 2 M-7.46 2 C-7.58 1.71, -7.7 1.43, -7.86 1.04 M-7.46 2 C-7.55 1.8, -7.63 1.59, -7.86 1.04 M-7.86 1.04 C-7.91 0.68, -7.96 0.32, -8 0 M-7.86 1.04 C-7.9 0.78, -7.93 0.52, -8 0 M-8 0 C-7.97 -0.24, -7.94 -0.48, -7.85 -1.1 M-8 0 C-7.95 -0.34, -7.91 -0.67, -7.85 -1.1 M-7.85 -1.1 C-7.75 -1.34, -7.64 -1.58, -7.44 -2.06 M-7.85 -1.1 C-7.72 -1.39, -7.59 -1.69, -7.44 -2.06 M-7.44 -2.06 C-7.23 -2.32, -7.03 -2.57, -6.8 -2.86 M-7.44 -2.06 C-7.19 -2.37, -6.95 -2.68, -6.8 -2.86 M-6.8 -2.86 C-6.63 -2.99, -6.45 -3.13, -6 -3.46 M-6.8 -2.86 C-6.63 -2.99, -6.45 -3.12, -6 -3.46 M-6 -3.46 C-5.7 -3.59, -5.4 -3.72, -5.07 -3.86 M-6 -3.46 C-5.7 -3.59, -5.39 -3.72, -5.07 -3.86 M-5.07 -3.86 C-4.7 -3.91, -4.32 -3.97, -4.06 -4.01 M-5.07 -3.86 C-4.84 -3.89, -4.61 -3.92, -4.06 -4.01 M-4.06 -4.01 C-3.69 -3.96, -3.31 -3.92, -3.02 -3.88 M-4.06 -4.01 C-3.73 -3.97, -3.4 -3.93, -3.02 -3.88 M-3.02 -3.88 C-2.7 -3.75, -2.38 -3.62, -2 -3.46 M-3.02 -3.88 C-2.77 -3.78, -2.51 -3.67, -2 -3.46 M-2 -3.46 C-1.71 -3.24, -1.42 -3.02, -1.17 -2.82 M-2 -3.46 C-1.68 -3.22, -1.36 -2.97, -1.17 -2.82 M-1.17 -2.82 C-1 -2.6, -0.83 -2.38, -0.54 -2 M-1.17 -2.82 C-0.93 -2.51, -0.69 -2.2, -0.54 -2 M-0.54 -2 C-0.44 -1.78, -0.35 -1.55, -0.14 -1.04 M-0.54 -2 C-0.43 -1.75, -0.33 -1.5, -0.14 -1.04 M-0.14 -1.04 C-0.09 -0.68, -0.04 -0.32, 0 0 M-0.14 -1.04 C-0.09 -0.64, -0.03 -0.24, 0 0 M0 0 C0 0, 0 0, 0 0 M0 0 C0 0, 0 0, 0 0" stroke="#000" stroke-width="2" fill="none"/></g></g><mask/><g stroke-linecap="round" transform="translate(300 373) rotate(0 27.5 37.5)"><path d="M0 0 L55 0 L55 75 L0 75" stroke="none" stroke-width="0" fill="#a5d8ff"/><path d="M0 0 C12.62 0, 25.24 0, 55 0 M0 0 C18.94 0, 37.89 0, 55 0 M55 0 C55 20.21, 55 40.42, 55 75 M55 0 C55 22.06, 55 44.13, 55 75 M55 75 C35.5 75, 16.01 75, 0 75 M55 75 C36.41 75, 17.81 75, 0 75 M0 75 C0 46.15, 0 17.29, 0 0 M0 75 C0 46.43, 0 17.87, 0 0" stroke="#1e1e1e" stroke-width="2" fill="none"/></g><g stroke-linecap="round"><g transform="translate(300 393) rotate(0 -7.5 0)"><path d="M0 0 C-4.36 0, -8.72 0, -15 0 M0 0 C-3.06 0, -6.12 0, -15 0" stroke="#1e1e1e" stroke-width="2" fill="none"/></g></g><mask/><g stroke-linecap="round"><g transform="translate(300 423) rotate(0 5.5 5)"><path d="M0 0 C3.34 1.52, 6.67 3.03, 11 5 M0 0 C3.01 1.37, 6.03 2.74, 11 5 M11 5 C7.23 6.71, 3.46 8.43, 0 10 M11 5 C6.64 6.98, 2.27 8.97, 0 10" stroke="#1e1e1e" stroke-width="2" fill="none"/></g></g><mask/><g stroke-linecap="round"><g transform="translate(383 393) rotate(0 -14 0)"><path d="M0 0 C-8.51 0, -17.01 0, -28 0 M0 0 C-9.81 0, -19.61 0, -28 0" stroke="#1e1e1e" stroke-width="2" fill="none"/></g></g><mask/><g stroke-linecap="round"><g transform="translate(300 428) rotate(0 -7.5 0)"><path d="M0 0 C-4.55 0, -9.1 0, -15 0 M0 0 C-4.9 0, -9.81 0, -15 0" stroke="#1e1e1e" stroke-width="2" fill="none"/></g></g><mask/><g stroke-linecap="round" transform="translate(398 373) rotate(0 27.5 37.5)"><path d="M0 0 L55 0 L55 75 L0 75" stroke="none" stroke-width="0" fill="#a5d8ff"/><path d="M0 0 C15.69 0, 31.37 0, 55 0 M0 0 C13.75 0, 27.5 0, 55 0 M55 0 C55 23.97, 55 47.95, 55 75 M55 0 C55 15.22, 55 30.44, 55 75 M55 75 C39.78 75, 24.57 75, 0 75 M55 75 C42.93 75, 30.85 75, 0 75 M0 75 C0 45.31, 0 15.62, 0 0 M0 75 C0 55.46, 0 35.92, 0 0" stroke="#1e1e1e" stroke-width="2" fill="none"/></g><g stroke-linecap="round"><g transform="translate(398 393) rotate(0 -7.5 0)"><path d="M0 0 C-4.52 0, -9.04 0, -15 0 M0 0 C-4.05 0, -8.09 0, -15 0" stroke="#1e1e1e" stroke-width="2" fill="none"/></g></g><mask/><g stroke-linecap="round"><g transform="translate(398 423) rotate(0 5.5 5)"><path d="M0 0 C2.96 1.35, 5.93 2.69, 11 5 M0 0 C3.24 1.47, 6.47 2.94, 11 5 M11 5 C7.1 6.77, 3.2 8.54, 0 10 M11 5 C7.28 6.69, 3.56 8.38, 0 10" stroke="#1e1e1e" stroke-width="2" fill="none"/></g></g><mask/><g stroke-linecap="round"><g transform="translate(468 393) rotate(0 -7.5 0)"><path d="M0 0 C-4.05 0, -8.1 0, -15 0 M0 0 C-5.13 0, -10.27 0, -15 0" stroke="#1e1e1e" stroke-width="2" fill="none"/></g></g><mask/><g stroke-linecap="round"><g transform="translate(398 428) rotate(0 -7.5 0)"><path d="M0 0 C-5.14 0, -10.28 0, -15 0 M0 0 C-5.95 0, -11.9 0, -15 0" stroke="#1e1e1e" stroke-width="2" fill="none"/></g></g><mask/><g stroke-linecap="round"><g transform="translate(665 404) rotate(0 12.5 0)"><path d="M0 0 C6.92 0, 13.83 0, 25 0 M0 0 C5.49 0, 10.98 0, 25 0" stroke="#000" stroke-width="2" fill="none"/></g></g><mask/><g stroke-linecap="round"><g transform="translate(626 414) rotate(0 -13 0)"><path d="M0 0 C-9.23 0, -18.45 0, -26 0 M0 0 C-10.05 0, -20.09 0, -26 0" stroke="#000" stroke-width="2" fill="none"/></g></g><mask/><g stroke-linecap="round"><g transform="translate(627 394) rotate(0 -13.5 0)"><path d="M0 0 C-10.39 0, -20.78 0, -27 0 M0 0 C-10.28 0, -20.57 0, -27 0" stroke="#000" stroke-width="2" fill="none"/></g></g><mask/><g stroke-linecap="round"><g transform="translate(625 424) rotate(0 20 -20)" fill-rule="evenodd"><path d="M0 0 L0 -40 L20.24 -40 L20.24 -40 L22.29 -39.9 L24.28 -39.59 L26.19 -39.1 L28.02 -38.42 L29.75 -37.58 L31.38 -36.57 L34.29 -34.12 L36.68 -31.16 L38.48 -27.77 L39.13 -25.93 L39.61 -24.02 L39.9 -22.04 L40 -20 L39.9 -17.96 L39.61 -15.98 L39.13 -14.07 L38.48 -12.23 L36.68 -8.84 L34.29 -5.88 L31.38 -3.43 L29.75 -2.42 L28.02 -1.58 L26.19 -0.9 L24.28 -0.41 L22.29 -0.1 L20.24 0 L0 0 L0 0" stroke="none" stroke-width="0" fill="black" fill-rule="evenodd"/><path d="M0 0 C0 -11.8, 0 -23.59, 0 -40 M0 0 C0 -10.07, 0 -20.14, 0 -40 M0 -40 C4.71 -40, 9.43 -40, 20.24 -40 M0 -40 C7.94 -40, 15.88 -40, 20.24 -40 M20.24 -40 C20.24 -40, 20.24 -40, 20.24 -40 M20.24 -40 C20.24 -40, 20.24 -40, 20.24 -40 M20.24 -40 C21.01 -39.96, 21.78 -39.92, 22.29 -39.9 M20.24 -40 C21.02 -39.96, 21.81 -39.92, 22.29 -39.9 M22.29 -39.9 C22.87 -39.81, 23.45 -39.72, 24.28 -39.59 M22.29 -39.9 C23.04 -39.78, 23.79 -39.67, 24.28 -39.59 M24.28 -39.59 C24.96 -39.42, 25.64 -39.24, 26.19 -39.1 M24.28 -39.59 C24.93 -39.42, 25.57 -39.26, 26.19 -39.1 M26.19 -39.1 C26.69 -38.92, 27.18 -38.73, 28.02 -38.42 M26.19 -39.1 C26.56 -38.96, 26.94 -38.82, 28.02 -38.42 M28.02 -38.42 C28.65 -38.11, 29.28 -37.81, 29.75 -37.58 M28.02 -38.42 C28.62 -38.13, 29.22 -37.84, 29.75 -37.58 M29.75 -37.58 C30.23 -37.28, 30.7 -36.99, 31.38 -36.57 M29.75 -37.58 C30.16 -37.33, 30.57 -37.07, 31.38 -36.57 M31.38 -36.57 C32.53 -35.6, 33.69 -34.64, 34.29 -34.12 M31.38 -36.57 C32.18 -35.9, 32.98 -35.23, 34.29 -34.12 M34.29 -34.12 C35.23 -32.96, 36.16 -31.8, 36.68 -31.16 M34.29 -34.12 C35.09 -33.14, 35.89 -32.15, 36.68 -31.16 M36.68 -31.16 C37.3 -29.99, 37.92 -28.81, 38.48 -27.77 M36.68 -31.16 C37.15 -30.27, 37.62 -29.39, 38.48 -27.77 M38.48 -27.77 C38.71 -27.12, 38.94 -26.47, 39.13 -25.93 M38.48 -27.77 C38.67 -27.23, 38.86 -26.7, 39.13 -25.93 M39.13 -25.93 C39.28 -25.33, 39.43 -24.73, 39.61 -24.02 M39.13 -25.93 C39.23 -25.52, 39.34 -25.1, 39.61 -24.02 M39.61 -24.02 C39.67 -23.6, 39.73 -23.18, 39.9 -22.04 M39.61 -24.02 C39.69 -23.47, 39.77 -22.91, 39.9 -22.04 M39.9 -22.04 C39.93 -21.44, 39.96 -20.83, 40 -20 M39.9 -22.04 C39.93 -21.37, 39.97 -20.71, 40 -20 M40 -20 C39.96 -19.28, 39.93 -18.56, 39.9 -17.96 M40 -20 C39.97 -19.42, 39.94 -18.83, 39.9 -17.96 M39.9 -17.96 C39.81 -17.38, 39.73 -16.8, 39.61 -15.98 M39.9 -17.96 C39.8 -17.28, 39.7 -16.59, 39.61 -15.98 M39.61 -15.98 C39.5 -15.56, 39.4 -15.14, 39.13 -14.07 M39.61 -15.98 C39.5 -15.56, 39.4 -15.15, 39.13 -14.07 M39.13 -14.07 C38.99 -13.68, 38.85 -13.29, 38.48 -12.23 M39.13 -14.07 C38.93 -13.5, 38.72 -12.92, 38.48 -12.23 M38.48 -12.23 C38.12 -11.55, 37.76 -10.87, 36.68 -8.84 M38.48 -12.23 C38.11 -11.53, 37.73 -10.82, 36.68 -8.84 M36.68 -8.84 C35.84 -7.8, 35.01 -6.76, 34.29 -5.88 M36.68 -8.84 C36.14 -8.17, 35.6 -7.49, 34.29 -5.88 M34.29 -5.88 C33.31 -5.05, 32.34 -4.23, 31.38 -3.43 M34.29 -5.88 C33.4 -5.12, 32.51 -4.37, 31.38 -3.43 M31.38 -3.43 C30.87 -3.11, 30.35 -2.79, 29.75 -2.42 M31.38 -3.43 C30.78 -3.06, 30.18 -2.68, 29.75 -2.42 M29.75 -2.42 C29.37 -2.24, 28.99 -2.05, 28.02 -1.58 M29.75 -2.42 C29.07 -2.09, 28.38 -1.76, 28.02 -1.58 M28.02 -1.58 C27.44 -1.36, 26.86 -1.15, 26.19 -0.9 M28.02 -1.58 C27.3 -1.31, 26.59 -1.05, 26.19 -0.9 M26.19 -0.9 C25.62 -0.75, 25.04 -0.6, 24.28 -0.41 M26.19 -0.9 C25.67 -0.77, 25.15 -0.63, 24.28 -0.41 M24.28 -0.41 C23.76 -0.33, 23.24 -0.25, 22.29 -0.1 M24.28 -0.41 C23.84 -0.34, 23.4 -0.27, 22.29 -0.1 M22.29 -0.1 C21.53 -0.07, 20.76 -0.03, 20.24 0 M22.29 -0.1 C21.54 -0.07, 20.78 -0.03, 20.24 0 M20.24 0 C15 0, 9.77 0, 0 0 M20.24 0 C13.05 0, 5.86 0, 0 0 M0 0 C0 0, 0 0, 0 0 M0 0 C0 0, 0 0, 0 0 M0 0 C0 0, 0 0, 0 0 M0 0 C0 0, 0 0, 0 0" stroke="#00000000" stroke-width="2" fill="none"/></g></g><mask/><g stroke-linecap="round"><g transform="translate(627 421) rotate(0 17.142858505249023 -17.14285683631897)" fill-rule="evenodd"><path d="M0 0 L17.62 0 L17.62 0 L21.14 -0.35 L24.34 -1.34 L27.18 -2.92 L29.61 -5.01 L31.59 -7.54 L33.05 -10.46 L33.97 -13.68 L34.29 -17.14 L33.95 -20.61 L32.98 -23.83 L31.44 -26.74 L29.37 -29.28 L26.86 -31.37 L23.94 -32.94 L20.68 -33.94 L17.14 -34.29 L0 -34.29 L0 0 L0 0" stroke="none" stroke-width="0" fill="#FFFFFF" fill-rule="evenodd"/><path d="M0 0 C4.05 0, 8.1 0, 17.62 0 M0 0 C4.5 0, 9.01 0, 17.62 0 M17.62 0 C17.62 0, 17.62 0, 17.62 0 M17.62 0 C17.62 0, 17.62 0, 17.62 0 M17.62 0 C18.95 -0.13, 20.28 -0.26, 21.14 -0.35 M17.62 0 C18.45 -0.08, 19.28 -0.16, 21.14 -0.35 M21.14 -0.35 C21.81 -0.55, 22.47 -0.76, 24.34 -1.34 M21.14 -0.35 C22.41 -0.74, 23.68 -1.14, 24.34 -1.34 M24.34 -1.34 C24.97 -1.69, 25.6 -2.04, 27.18 -2.92 M24.34 -1.34 C25.31 -1.88, 26.27 -2.41, 27.18 -2.92 M27.18 -2.92 C27.85 -3.5, 28.53 -4.07, 29.61 -5.01 M27.18 -2.92 C27.79 -3.44, 28.41 -3.97, 29.61 -5.01 M29.61 -5.01 C30.39 -6, 31.17 -7, 31.59 -7.54 M29.61 -5.01 C30.28 -5.87, 30.95 -6.73, 31.59 -7.54 M31.59 -7.54 C31.91 -8.19, 32.24 -8.85, 33.05 -10.46 M31.59 -7.54 C32.02 -8.41, 32.46 -9.28, 33.05 -10.46 M33.05 -10.46 C33.27 -11.2, 33.48 -11.95, 33.97 -13.68 M33.05 -10.46 C33.31 -11.37, 33.57 -12.28, 33.97 -13.68 M33.97 -13.68 C34.09 -14.98, 34.21 -16.27, 34.29 -17.14 M33.97 -13.68 C34.09 -15.01, 34.21 -16.34, 34.29 -17.14 M34.29 -17.14 C34.19 -18.1, 34.1 -19.05, 33.95 -20.61 M34.29 -17.14 C34.15 -18.5, 34.02 -19.86, 33.95 -20.61 M33.95 -20.61 C33.65 -21.59, 33.36 -22.58, 32.98 -23.83 M33.95 -20.61 C33.68 -21.5, 33.41 -22.4, 32.98 -23.83 M32.98 -23.83 C32.42 -24.88, 31.86 -25.94, 31.44 -26.74 M32.98 -23.83 C32.42 -24.88, 31.87 -25.93, 31.44 -26.74 M31.44 -26.74 C30.73 -27.62, 30.02 -28.49, 29.37 -29.28 M31.44 -26.74 C30.66 -27.69, 29.89 -28.65, 29.37 -29.28 M29.37 -29.28 C28.53 -29.98, 27.69 -30.67, 26.86 -31.37 M29.37 -29.28 C28.73 -29.81, 28.09 -30.34, 26.86 -31.37 M26.86 -31.37 C26.06 -31.79, 25.27 -32.22, 23.94 -32.94 M26.86 -31.37 C25.71 -31.98, 24.57 -32.6, 23.94 -32.94 M23.94 -32.94 C22.85 -33.28, 21.76 -33.61, 20.68 -33.94 M23.94 -32.94 C23.23 -33.16, 22.52 -33.38, 20.68 -33.94 M20.68 -33.94 C19.91 -34.01, 19.15 -34.09, 17.14 -34.29 M20.68 -33.94 C19.73 -34.03, 18.78 -34.13, 17.14 -34.29 M17.14 -34.29 C11.88 -34.29, 6.63 -34.29, 0 -34.29 M17.14 -34.29 C10.92 -34.29, 4.7 -34.29, 0 -34.29 M0 -34.29 C0 -21.82, 0 -9.35, 0 0 M0 -34.29 C0 -25.06, 0 -15.84, 0 0 M0 0 C0 0, 0 0, 0 0 M0 0 C0 0, 0 0, 0 0 M0 0 C0 0, 0 0, 0 0 M0 0 C0 0, 0 0, 0 0" stroke="#00000000" stroke-width="2" fill="none"/></g></g><mask/><g stroke-linecap="round"><g transform="translate(81.66211354233474 521.2969516383255) rotate(0 189.16894322883263 0.35152418083725934)"><path d="M0 0 C93.16 0.17, 186.33 0.35, 378.34 0.7 M0 0 C79.29 0.15, 158.57 0.29, 378.34 0.7" stroke="#1e1e1e" stroke-width="2" fill="none"/></g></g><mask/><g stroke-linecap="round"><g transform="translate(600 394) rotate(0 -65.88483796053708 -0.35152418083725934)"><path d="M0 0 C-30.63 -0.16, -61.25 -0.33, -131.77 -0.7 M0 0 C-36.76 -0.2, -73.51 -0.39, -131.77 -0.7" stroke="#1e1e1e" stroke-width="2" fill="none"/></g></g><mask/><g stroke-linecap="round"><g transform="translate(261 393) rotate(0 12.5 0)"><path d="M0 0 C0 0, 0 0, 0 0 M0 0 C0 0, 0 0, 0 0 M0 0 C1.34 0, 2.69 0, 3.58 0 M0 0 C1.01 0, 2.02 0, 3.58 0 M3.58 0 C4.8 0, 6.02 0, 6.82 0 M3.58 0 C4.82 0, 6.06 0, 6.82 0 M6.82 0 C7.66 0, 8.51 0, 9.73 0 M6.82 0 C7.92 0, 9.01 0, 9.73 0 M9.73 0 C10.66 0, 11.59 0, 12.34 0 M9.73 0 C10.61 0, 11.49 0, 12.34 0 M12.34 0 C12.97 0, 13.59 0, 14.66 0 M12.34 0 C12.81 0, 13.28 0, 14.66 0 M14.66 0 C15.4 0, 16.15 0, 16.7 0 M14.66 0 C15.37 0, 16.07 0, 16.7 0 M16.7 0 C17.22 0, 17.73 0, 18.47 0 M16.7 0 C17.14 0, 17.59 0, 18.47 0 M18.47 0 C19.08 0, 19.68 0, 20 0 M18.47 0 C18.89 0, 19.31 0, 20 0 M20 0 C20.51 0, 21.01 0, 21.29 0 M20 0 C20.43 0, 20.86 0, 21.29 0 M21.29 0 C21.66 0, 22.03 0, 22.36 0 M21.29 0 C21.57 0, 21.85 0, 22.36 0 M22.36 0 C22.67 0, 22.97 0, 23.23 0 M22.36 0 C22.61 0, 22.87 0, 23.23 0 M23.23 0 C23.44 0, 23.65 0, 23.91 0 M23.23 0 C23.38 0, 23.52 0, 23.91 0 M23.91 0 C24.08 0, 24.26 0, 24.75 0 M23.91 0 C24.14 0, 24.37 0, 24.75 0 M24.75 0 C24.82 0, 24.9 0, 25 0 M24.75 0 C24.83 0, 24.91 0, 25 0" stroke="#000000" stroke-width="2" fill="none"/></g></g><mask/><g stroke-linecap="round"><g transform="translate(222 403) rotate(0 -13 0)"><path d="M0 0 C-6.4 0, -12.8 0, -26 0 M0 0 C-8.12 0, -16.25 0, -26 0" stroke="#000000" stroke-width="2" fill="none"/></g></g><mask/><g stroke-linecap="round"><g transform="translate(223 383) rotate(0 -13.5 0)"><path d="M0 0 C-6.2 0, -12.4 0, -27 0 M0 0 C-7.3 0, -14.59 0, -27 0" stroke="#000000" stroke-width="2" fill="none"/></g></g><mask/><g stroke-linecap="round"><g transform="translate(221 413) rotate(0 20.238094329833984 -20)"><path d="M0 0 C0 -0.33, 0 -0.65, 0 -1.43 M0 0 C0 -0.4, 0 -0.81, 0 -1.43 M0 -1.43 C0 -9.13, 0 -16.83, 0 -38.57 M0 -1.43 C0 -10.46, 0 -19.49, 0 -38.57 M0 -38.57 C0 -38.96, 0 -39.36, 0 -40 M0 -38.57 C0 -38.97, 0 -39.37, 0 -40 M0 -40 C0.36 -40, 0.72 -40, 1.43 -40 M0 -40 C0.33 -40, 0.65 -40, 1.43 -40 M1.43 -40 C5.91 -40, 10.4 -40, 20.48 -40 M1.43 -40 C8.5 -40, 15.57 -40, 20.48 -40 M20.48 -40 C20.48 -40, 20.48 -40, 20.48 -40 M20.48 -40 C20.48 -40, 20.48 -40, 20.48 -40 M20.48 -40 C21.14 -39.97, 21.81 -39.93, 22.56 -39.9 M20.48 -40 C21.24 -39.96, 22 -39.92, 22.56 -39.9 M22.56 -39.9 C23.11 -39.81, 23.66 -39.73, 24.57 -39.59 M22.56 -39.9 C23.14 -39.81, 23.72 -39.72, 24.57 -39.59 M24.57 -39.59 C25.33 -39.4, 26.08 -39.21, 26.51 -39.1 M24.57 -39.59 C25.34 -39.39, 26.11 -39.2, 26.51 -39.1 M26.51 -39.1 C27.24 -38.83, 27.97 -38.56, 28.35 -38.42 M26.51 -39.1 C26.9 -38.95, 27.29 -38.81, 28.35 -38.42 M28.35 -38.42 C28.81 -38.2, 29.26 -37.99, 30.11 -37.58 M28.35 -38.42 C28.76 -38.23, 29.16 -38.03, 30.11 -37.58 M30.11 -37.58 C30.7 -37.21, 31.3 -36.85, 31.76 -36.57 M30.11 -37.58 C30.62 -37.26, 31.14 -36.95, 31.76 -36.57 M31.76 -36.57 C32.89 -35.63, 34.03 -34.68, 34.7 -34.12 M31.76 -36.57 C32.77 -35.73, 33.78 -34.89, 34.7 -34.12 M34.7 -34.12 C35.41 -33.26, 36.12 -32.39, 37.12 -31.16 M34.7 -34.12 C35.19 -33.53, 35.68 -32.93, 37.12 -31.16 M37.12 -31.16 C37.83 -29.83, 38.54 -28.5, 38.94 -27.77 M37.12 -31.16 C37.56 -30.34, 38 -29.51, 38.94 -27.77 M38.94 -27.77 C39.15 -27.17, 39.36 -26.58, 39.6 -25.93 M38.94 -27.77 C39.11 -27.29, 39.28 -26.81, 39.6 -25.93 M39.6 -25.93 C39.76 -25.28, 39.93 -24.63, 40.08 -24.02 M39.6 -25.93 C39.77 -25.24, 39.94 -24.55, 40.08 -24.02 M40.08 -24.02 C40.16 -23.46, 40.25 -22.9, 40.38 -22.04 M40.08 -24.02 C40.18 -23.35, 40.28 -22.68, 40.38 -22.04 M40.38 -22.04 C40.4 -21.52, 40.43 -21.01, 40.48 -20 M40.38 -22.04 C40.41 -21.33, 40.45 -20.63, 40.48 -20 M40.48 -20 C40.46 -19.59, 40.44 -19.18, 40.38 -17.96 M40.48 -20 C40.45 -19.46, 40.42 -18.92, 40.38 -17.96 M40.38 -17.96 C40.26 -17.18, 40.14 -16.39, 40.08 -15.98 M40.38 -17.96 C40.26 -17.21, 40.15 -16.47, 40.08 -15.98 M40.08 -15.98 C39.98 -15.58, 39.87 -15.17, 39.6 -14.07 M40.08 -15.98 C39.91 -15.33, 39.75 -14.68, 39.6 -14.07 M39.6 -14.07 C39.34 -13.35, 39.08 -12.62, 38.94 -12.23 M39.6 -14.07 C39.43 -13.6, 39.26 -13.13, 38.94 -12.23 M38.94 -12.23 C38.48 -11.38, 38.03 -10.53, 37.12 -8.84 M38.94 -12.23 C38.5 -11.42, 38.06 -10.6, 37.12 -8.84 M37.12 -8.84 C36.35 -7.89, 35.57 -6.94, 34.7 -5.88 M37.12 -8.84 C36.39 -7.94, 35.66 -7.05, 34.7 -5.88 M34.7 -5.88 C33.66 -5.01, 32.62 -4.14, 31.76 -3.43 M34.7 -5.88 C33.79 -5.12, 32.87 -4.36, 31.76 -3.43 M31.76 -3.43 C31.1 -3.03, 30.45 -2.63, 30.11 -2.42 M31.76 -3.43 C31.32 -3.16, 30.88 -2.9, 30.11 -2.42 M30.11 -2.42 C29.48 -2.12, 28.84 -1.81, 28.35 -1.58 M30.11 -2.42 C29.63 -2.19, 29.16 -1.96, 28.35 -1.58 M28.35 -1.58 C27.79 -1.37, 27.23 -1.17, 26.51 -0.9 M28.35 -1.58 C27.96 -1.43, 27.57 -1.29, 26.51 -0.9 M26.51 -0.9 C26.1 -0.8, 25.7 -0.7, 24.57 -0.41 M26.51 -0.9 C25.89 -0.75, 25.27 -0.59, 24.57 -0.41 M24.57 -0.41 C24.04 -0.33, 23.5 -0.25, 22.56 -0.1 M24.57 -0.41 C24.09 -0.34, 23.61 -0.26, 22.56 -0.1 M22.56 -0.1 C22.05 -0.08, 21.55 -0.05, 20.48 0 M22.56 -0.1 C22.1 -0.08, 21.65 -0.06, 20.48 0 M20.48 0 C20.46 0, 20.45 0, 20.44 0 M20.48 0 C20.46 0, 20.45 0, 20.44 0 M20.44 0 C20.36 0, 20.28 0, 20.18 0 M20.44 0 C20.38 0, 20.33 0, 20.18 0 M20.18 0 C20.02 0, 19.85 0, 19.47 0 M20.18 0 C20.02 0, 19.86 0, 19.47 0 M19.47 0 C19.34 0, 19.2 0, 18.88 0 M19.47 0 C19.28 0, 19.1 0, 18.88 0 M18.88 0 C18.61 0, 18.34 0, 18.1 0 M18.88 0 C18.58 0, 18.28 0, 18.1 0 M18.1 0 C17.72 0, 17.33 0, 17.09 0 M18.1 0 C17.87 0, 17.65 0, 17.09 0 M17.09 0 C16.65 0, 16.21 0, 15.83 0 M17.09 0 C16.8 0, 16.51 0, 15.83 0 M15.83 0 C15.38 0, 14.94 0, 14.29 0 M15.83 0 C15.24 0, 14.66 0, 14.29 0 M14.29 0 C13.7 0, 13.12 0, 12.44 0 M14.29 0 C13.78 0, 13.27 0, 12.44 0 M12.44 0 C11.98 0, 11.52 0, 10.26 0 M12.44 0 C11.71 0, 10.98 0, 10.26 0 M10.26 0 C9.52 0, 8.77 0, 7.72 0 M10.26 0 C9.61 0, 8.96 0, 7.72 0 M7.72 0 C6.55 0, 5.37 0, 4.78 0 M7.72 0 C6.57 0, 5.42 0, 4.78 0 M4.78 0 C3.56 0, 2.33 0, 1.43 0 M4.78 0 C4.03 0, 3.28 0, 1.43 0 M1.43 0 C1.14 0, 0.85 0, 0 0 M1.43 0 C0.96 0, 0.48 0, 0 0 M0 0 C0 0, 0 0, 0 0 M0 0 C0 0, 0 0, 0 0" stroke="#000000" stroke-width="2" fill="none"/></g></g><mask/><g stroke-linecap="round"><g transform="translate(786.7769583115144 277.2969516383255) rotate(0 11.084918115410233 0)"><path d="M0 0 C8.27 0, 16.55 0, 22.17 0 M0 0 C4.52 0, 9.04 0, 22.17 0" stroke="#000" stroke-width="2" fill="none"/></g></g><mask/><g stroke-linecap="round"><g transform="translate(743.6621135423347 267.2969516383255) rotate(0 -13 0)"><path d="M0 0 C-9.72 0, -19.43 0, -26 0 M0 0 C-7.35 0, -14.7 0, -26 0" stroke="#000" stroke-width="2" fill="none"/></g></g><mask/><g stroke-linecap="round"><g transform="translate(743.741612129299 287.2969516383255) rotate(0 -13.039749293482146 0)"><path d="M0 0 C-8.34 0, -16.68 0, -26.08 0 M0 0 C-5.52 0, -11.05 0, -26.08 0" stroke="#000" stroke-width="2" fill="none"/></g></g><mask/><g stroke-linecap="round"><g transform="translate(738.0405445423348 257.2969516383255) rotate(0 24.301616975389493 20)"><path d="M0 0 C0.75 0.92, 1.5 1.83, 2 2.44 M0 0 C0.56 0.69, 1.13 1.38, 2 2.44 M2 2.44 C2 2.44, 2 2.44, 2 2.44 M2 2.44 C2 2.44, 2 2.44, 2 2.44 M2 2.44 C2.02 2.46, 2.04 2.48, 2.06 2.52 M2 2.44 C2.02 2.47, 2.05 2.5, 2.06 2.52 M2.06 2.52 C2.13 2.6, 2.19 2.69, 2.24 2.76 M2.06 2.52 C2.12 2.6, 2.18 2.68, 2.24 2.76 M2.24 2.76 C2.42 3.01, 2.59 3.26, 2.88 3.7 M2.24 2.76 C2.37 2.95, 2.5 3.14, 2.88 3.7 M2.88 3.7 C3.21 4.25, 3.54 4.8, 3.79 5.21 M2.88 3.7 C3.2 4.22, 3.51 4.75, 3.79 5.21 M3.79 5.21 C4.09 5.81, 4.4 6.4, 4.83 7.26 M3.79 5.21 C4.05 5.72, 4.31 6.24, 4.83 7.26 M4.83 7.26 C5.24 8.26, 5.65 9.27, 5.87 9.8 M4.83 7.26 C5.11 7.96, 5.4 8.66, 5.87 9.8 M5.87 9.8 C6.22 10.98, 6.58 12.15, 6.77 12.8 M5.87 9.8 C6.17 10.8, 6.47 11.8, 6.77 12.8 M6.77 12.8 C6.99 13.98, 7.22 15.16, 7.41 16.21 M6.77 12.8 C6.94 13.69, 7.11 14.58, 7.41 16.21 M7.41 16.21 C7.5 17.55, 7.58 18.89, 7.66 20 M7.41 16.21 C7.48 17.31, 7.55 18.41, 7.66 20 M7.66 20 C7.58 21.19, 7.5 22.37, 7.41 23.79 M7.66 20 C7.6 20.82, 7.55 21.64, 7.41 23.79 M7.41 23.79 C7.28 24.51, 7.14 25.23, 6.77 27.2 M7.41 23.79 C7.23 24.74, 7.06 25.69, 6.77 27.2 M6.77 27.2 C6.5 28.09, 6.24 28.97, 5.87 30.2 M6.77 27.2 C6.48 28.18, 6.18 29.15, 5.87 30.2 M5.87 30.2 C5.5 31.1, 5.13 32, 4.83 32.74 M5.87 30.2 C5.57 30.93, 5.27 31.65, 4.83 32.74 M4.83 32.74 C4.52 33.35, 4.22 33.95, 3.79 34.79 M4.83 32.74 C4.47 33.45, 4.11 34.16, 3.79 34.79 M3.79 34.79 C3.59 35.12, 3.39 35.46, 2.88 36.3 M3.79 34.79 C3.59 35.12, 3.39 35.45, 2.88 36.3 M2.88 36.3 C2.75 36.5, 2.61 36.7, 2.24 37.24 M2.88 36.3 C2.68 36.6, 2.48 36.89, 2.24 37.24 M2.24 37.24 C2.21 37.29, 2.17 37.34, 2.06 37.48 M2.24 37.24 C2.21 37.29, 2.17 37.34, 2.06 37.48 M2.06 37.48 C2.04 37.51, 2.02 37.54, 2 37.56 M2.06 37.48 C2.05 37.5, 2.03 37.52, 2 37.56 M2 37.56 C1.33 38.38, 0.66 39.2, 0 40 M2 37.56 C1.39 38.31, 0.77 39.06, 0 40 M0 40 C5.45 40, 10.9 40, 17.16 40 M0 40 C6.35 40, 12.69 40, 17.16 40 M17.16 40 C17.16 40, 17.16 40, 17.16 40 M17.16 40 C17.16 40, 17.16 40, 17.16 40 M17.16 40 C17.49 40, 17.81 40, 18.19 40 M17.16 40 C17.56 40, 17.97 40, 18.19 40 M18.19 40 C18.57 39.99, 18.96 39.98, 19.47 39.97 M18.19 40 C18.54 39.99, 18.89 39.98, 19.47 39.97 M19.47 39.97 C19.86 39.94, 20.25 39.92, 20.96 39.88 M19.47 39.97 C19.8 39.95, 20.13 39.93, 20.96 39.88 M20.96 39.88 C21.59 39.82, 22.22 39.75, 22.65 39.71 M20.96 39.88 C21.58 39.82, 22.2 39.75, 22.65 39.71 M22.65 39.71 C23.12 39.63, 23.6 39.56, 24.5 39.42 M22.65 39.71 C23.3 39.61, 23.96 39.51, 24.5 39.42 M24.5 39.42 C25.06 39.3, 25.62 39.18, 26.49 39 M24.5 39.42 C24.94 39.33, 25.38 39.23, 26.49 39 M26.49 39 C27.16 38.8, 27.83 38.61, 28.59 38.4 M26.49 39 C27.26 38.78, 28.03 38.56, 28.59 38.4 M28.59 38.4 C29.1 38.21, 29.61 38.02, 30.78 37.59 M28.59 38.4 C29.06 38.22, 29.53 38.05, 30.78 37.59 M30.78 37.59 C31.36 37.33, 31.94 37.06, 33.03 36.56 M30.78 37.59 C31.68 37.18, 32.58 36.77, 33.03 36.56 M33.03 36.56 C33.66 36.21, 34.29 35.86, 35.32 35.27 M33.03 36.56 C33.57 36.26, 34.11 35.96, 35.32 35.27 M35.32 35.27 C36.22 34.66, 37.11 34.06, 37.63 33.7 M35.32 35.27 C35.96 34.84, 36.59 34.4, 37.63 33.7 M37.63 33.7 C38.1 33.31, 38.58 32.92, 39.92 31.82 M37.63 33.7 C38.09 33.32, 38.56 32.94, 39.92 31.82 M39.92 31.82 C40.43 31.32, 40.93 30.82, 42.17 29.61 M39.92 31.82 C40.79 30.96, 41.66 30.11, 42.17 29.61 M42.17 29.61 C42.81 28.86, 43.45 28.12, 44.37 27.03 M42.17 29.61 C42.97 28.67, 43.76 27.74, 44.37 27.03 M44.37 27.03 C45.19 25.88, 46.01 24.73, 46.47 24.08 M44.37 27.03 C45.21 25.85, 46.05 24.67, 46.47 24.08 M46.47 24.08 C47.13 22.98, 47.78 21.88, 48.47 20.72 M46.47 24.08 C47.23 22.81, 47.98 21.55, 48.47 20.72 M48.47 20.72 C48.51 20.5, 48.55 20.29, 48.6 20 M48.47 20.72 C48.52 20.47, 48.56 20.21, 48.6 20 M48.6 20 C48.55 19.73, 48.5 19.46, 48.47 19.28 M48.6 20 C48.57 19.83, 48.54 19.66, 48.47 19.28 M48.47 19.28 C48.47 19.28, 48.47 19.28, 48.47 19.28 M48.47 19.28 C48.47 19.28, 48.47 19.28, 48.47 19.28 M48.47 19.28 C47.98 18.46, 47.49 17.64, 46.47 15.92 M48.47 19.28 C47.76 18.1, 47.06 16.91, 46.47 15.92 M46.47 15.92 C45.97 15.22, 45.46 14.51, 44.36 12.98 M46.47 15.92 C45.82 15.02, 45.17 14.11, 44.36 12.98 M44.36 12.98 C43.49 11.96, 42.61 10.95, 42.16 10.42 M44.36 12.98 C43.79 12.31, 43.21 11.64, 42.16 10.42 M42.16 10.42 C41.67 9.94, 41.18 9.47, 39.9 8.23 M42.16 10.42 C41.35 9.64, 40.55 8.86, 39.9 8.23 M39.9 8.23 C39.34 7.77, 38.78 7.32, 37.6 6.36 M39.9 8.23 C39.16 7.63, 38.42 7.03, 37.6 6.36 M37.6 6.36 C37.06 6, 36.52 5.63, 35.29 4.8 M37.6 6.36 C37.05 5.99, 36.5 5.62, 35.29 4.8 M35.29 4.8 C34.72 4.49, 34.15 4.17, 32.99 3.52 M35.29 4.8 C34.79 4.53, 34.3 4.25, 32.99 3.52 M32.99 3.52 C32.5 3.3, 32.02 3.08, 30.73 2.49 M32.99 3.52 C32.18 3.15, 31.36 2.78, 30.73 2.49 M30.73 2.49 C30.24 2.31, 29.75 2.13, 28.54 1.68 M30.73 2.49 C30.18 2.29, 29.63 2.09, 28.54 1.68 M28.54 1.68 C27.93 1.51, 27.32 1.33, 26.44 1.07 M28.54 1.68 C27.9 1.5, 27.26 1.31, 26.44 1.07 M26.44 1.07 C25.96 0.97, 25.47 0.86, 24.45 0.63 M26.44 1.07 C25.93 0.96, 25.42 0.85, 24.45 0.63 M24.45 0.63 C23.91 0.54, 23.37 0.46, 22.61 0.33 M24.45 0.63 C23.86 0.53, 23.26 0.44, 22.61 0.33 M22.61 0.33 C22.07 0.27, 21.53 0.21, 20.93 0.15 M22.61 0.33 C22.13 0.28, 21.66 0.23, 20.93 0.15 M20.93 0.15 C20.56 0.12, 20.19 0.1, 19.44 0.05 M20.93 0.15 C20.57 0.12, 20.21 0.1, 19.44 0.05 M19.44 0.05 C19.03 0.03, 18.62 0.02, 18.18 0.01 M19.44 0.05 C19.05 0.03, 18.66 0.02, 18.18 0.01 M18.18 0.01 C17.88 0, 17.57 0, 17.16 0 M18.18 0.01 C17.81 0, 17.43 0, 17.16 0 M17.16 0 C12.28 0, 7.41 0, 0 0 M17.16 0 C11.42 0, 5.69 0, 0 0 M0 0 C0 0, 0 0, 0 0 M0 0 C0 0, 0 0, 0 0" stroke="#000000" stroke-width="2" fill="none"/></g></g><mask/><g stroke-linecap="round"><g transform="translate(107 150) rotate(0 44.5 126.5)"><path d="M0 0 C0 52.46, 0 104.93, 0 253 M0 0 C0 61.5, 0 123, 0 253 M0 253 C24.44 253, 48.88 253, 89 253 M0 253 C25.01 253, 50.01 253, 89 253" stroke="#1e1e1e" stroke-width="2" fill="none"/></g></g><mask/><g stroke-linecap="round"><g transform="translate(38 277) rotate(0 34.5 0)"><path d="M0 0 C16.49 0, 32.97 0, 69 0 M0 0 C21.83 0, 43.65 0, 69 0" stroke="#1e1e1e" stroke-width="2" fill="none"/></g></g><mask/><g stroke-linecap="round"><g transform="translate(390 231) rotate(0 -7.921543121337891 0)"><path d="M0 0 C-5.06 0, -10.11 0, -15.84 0 M0 0 C-5.09 0, -10.18 0, -15.84 0" stroke="#000" stroke-width="2" fill="none"/></g></g><mask/><g stroke-linecap="round"><g transform="translate(440 231) rotate(0 12 0)"><path d="M0 0 C7.14 0, 14.28 0, 24 0 M0 0 C8.5 0, 17.01 0, 24 0" stroke="#000" stroke-width="2" fill="none"/></g></g><mask/><g stroke-linecap="round"><g transform="translate(441 209) rotate(0 -20.882646461663285 22.40625)"><path d="M0 0 C0 16.87, 0 33.74, 0 44.81 M0 0 C0 17.16, 0 34.33, 0 44.81 M0 44.81 C-0.61 44.5, -1.21 44.19, -2.09 43.75 M0 44.81 C-0.79 44.41, -1.57 44.01, -2.09 43.75 M-2.09 43.75 C-16.21 36.63, -30.33 29.51, -41.77 23.75 M-2.09 43.75 C-15.47 37, -28.86 30.25, -41.77 23.75 M-41.77 23.75 C-41.77 23.03, -41.77 22.3, -41.77 21.06 M-41.77 23.75 C-41.77 23.21, -41.77 22.66, -41.77 21.06 M-41.77 21.06 C-27.32 13.78, -12.87 6.5, -2.09 1.06 M-41.77 21.06 C-28.01 14.13, -14.26 7.2, -2.09 1.06 M-2.09 1.06 C-1.48 0.75, -0.87 0.44, 0 0 M-2.09 1.06 C-1.56 0.8, -1.04 0.53, 0 0 M0 0 C0 0, 0 0, 0 0 M0 0 C0 0, 0 0, 0 0" stroke="#1e1e1e" stroke-width="2" fill="none"/></g></g><mask/><g stroke-linecap="round"><g transform="translate(391 231) rotate(0 4 0)"><path d="M0 0 C0 0, 0 0, 0 0 M0 0 C0 0, 0 0, 0 0 M0 0 C0.03 0.24, 0.07 0.48, 0.15 1.1 M0 0 C0.05 0.37, 0.1 0.74, 0.15 1.1 M0.15 1.1 C0.26 1.36, 0.38 1.63, 0.56 2.06 M0.15 1.1 C0.25 1.34, 0.36 1.58, 0.56 2.06 M0.56 2.06 C0.81 2.37, 1.06 2.68, 1.2 2.86 M0.56 2.06 C0.78 2.33, 0.99 2.6, 1.2 2.86 M1.2 2.86 C1.38 2.99, 1.56 3.13, 2 3.46 M1.2 2.86 C1.44 3.04, 1.68 3.22, 2 3.46 M2 3.46 C2.22 3.56, 2.43 3.65, 2.93 3.86 M2 3.46 C2.26 3.58, 2.53 3.69, 2.93 3.86 M2.93 3.86 C3.31 3.91, 3.68 3.97, 3.94 4.01 M2.93 3.86 C3.32 3.91, 3.7 3.97, 3.94 4.01 M3.94 4.01 C4.22 3.97, 4.51 3.94, 4.98 3.88 M3.94 4.01 C4.34 3.96, 4.75 3.91, 4.98 3.88 M4.98 3.88 C5.29 3.76, 5.6 3.63, 6 3.46 M4.98 3.88 C5.26 3.77, 5.55 3.65, 6 3.46 M6 3.46 C6.3 3.23, 6.6 3, 6.83 2.82 M6 3.46 C6.3 3.23, 6.6 3, 6.83 2.82 M6.83 2.82 C7.05 2.54, 7.27 2.26, 7.46 2 M6.83 2.82 C7.07 2.51, 7.31 2.21, 7.46 2 M7.46 2 C7.6 1.68, 7.73 1.36, 7.86 1.04 M7.46 2 C7.57 1.76, 7.67 1.51, 7.86 1.04 M7.86 1.04 C7.9 0.76, 7.94 0.48, 8 0 M7.86 1.04 C7.92 0.63, 7.97 0.23, 8 0 M8 0 C7.95 -0.37, 7.9 -0.73, 7.85 -1.1 M8 0 C7.97 -0.24, 7.94 -0.48, 7.85 -1.1 M7.85 -1.1 C7.76 -1.3, 7.67 -1.51, 7.44 -2.06 M7.85 -1.1 C7.74 -1.35, 7.63 -1.61, 7.44 -2.06 M7.44 -2.06 C7.24 -2.3, 7.05 -2.55, 6.8 -2.86 M7.44 -2.06 C7.21 -2.35, 6.98 -2.64, 6.8 -2.86 M6.8 -2.86 C6.51 -3.08, 6.22 -3.3, 6 -3.46 M6.8 -2.86 C6.59 -3.02, 6.37 -3.18, 6 -3.46 M6 -3.46 C5.72 -3.58, 5.45 -3.7, 5.07 -3.86 M6 -3.46 C5.74 -3.57, 5.48 -3.68, 5.07 -3.86 M5.07 -3.86 C4.82 -3.89, 4.57 -3.93, 4.06 -4.01 M5.07 -3.86 C4.79 -3.9, 4.5 -3.94, 4.06 -4.01 M4.06 -4.01 C3.69 -3.96, 3.33 -3.92, 3.02 -3.88 M4.06 -4.01 C3.72 -3.97, 3.38 -3.93, 3.02 -3.88 M3.02 -3.88 C2.77 -3.78, 2.51 -3.67, 2 -3.46 M3.02 -3.88 C2.7 -3.75, 2.38 -3.62, 2 -3.46 M2 -3.46 C1.81 -3.32, 1.62 -3.17, 1.17 -2.82 M2 -3.46 C1.71 -3.24, 1.43 -3.02, 1.17 -2.82 M1.17 -2.82 C0.97 -2.57, 0.77 -2.31, 0.54 -2 M1.17 -2.82 C1.04 -2.66, 0.91 -2.49, 0.54 -2 M0.54 -2 C0.43 -1.75, 0.33 -1.5, 0.14 -1.04 M0.54 -2 C0.4 -1.68, 0.27 -1.36, 0.14 -1.04 M0.14 -1.04 C0.11 -0.81, 0.08 -0.58, 0 0 M0.14 -1.04 C0.1 -0.72, 0.05 -0.4, 0 0 M0 0 C0 0, 0 0, 0 0 M0 0 C0 0, 0 0, 0 0" stroke="#000" stroke-width="2" fill="none"/></g></g><mask/><g stroke-linecap="round"><g transform="translate(390 318) rotate(0 -7.921543121337891 0)"><path d="M0 0 C-4.65 0, -9.3 0, -15.84 0 M0 0 C-4.19 0, -8.39 0, -15.84 0" stroke="#000" stroke-width="2" fill="none"/></g></g><mask/><g stroke-linecap="round"><g transform="translate(440 318) rotate(0 12 0)"><path d="M0 0 C6.59 0, 13.18 0, 24 0 M0 0 C6.74 0, 13.49 0, 24 0" stroke="#000" stroke-width="2" fill="none"/></g></g><mask/><g stroke-linecap="round"><g transform="translate(441 296) rotate(0 -20.882646461663285 22.40625)"><path d="M0 0 C0 15.07, 0 30.13, 0 44.81 M0 0 C0 10.11, 0 20.22, 0 44.81 M0 44.81 C-0.83 44.39, -1.66 43.97, -2.09 43.75 M0 44.81 C-0.82 44.4, -1.63 43.98, -2.09 43.75 M-2.09 43.75 C-15.14 37.17, -28.19 30.59, -41.77 23.75 M-2.09 43.75 C-13.21 38.14, -24.34 32.53, -41.77 23.75 M-41.77 23.75 C-41.77 23.01, -41.77 22.26, -41.77 21.06 M-41.77 23.75 C-41.77 23.13, -41.77 22.5, -41.77 21.06 M-41.77 21.06 C-33.19 16.74, -24.62 12.42, -2.09 1.06 M-41.77 21.06 C-32.33 16.31, -22.89 11.55, -2.09 1.06 M-2.09 1.06 C-1.62 0.82, -1.15 0.58, 0 0 M-2.09 1.06 C-1.65 0.84, -1.22 0.62, 0 0 M0 0 C0 0, 0 0, 0 0 M0 0 C0 0, 0 0, 0 0" stroke="#1e1e1e" stroke-width="2" fill="none"/></g></g><mask/><g stroke-linecap="round"><g transform="translate(391 318) rotate(0 4 0)"><path d="M0 0 C0 0, 0 0, 0 0 M0 0 C0 0, 0 0, 0 0 M0 0 C0.06 0.43, 0.12 0.85, 0.15 1.1 M0 0 C0.04 0.3, 0.08 0.59, 0.15 1.1 M0.15 1.1 C0.24 1.31, 0.34 1.53, 0.56 2.06 M0.15 1.1 C0.25 1.34, 0.36 1.59, 0.56 2.06 M0.56 2.06 C0.81 2.37, 1.06 2.69, 1.2 2.86 M0.56 2.06 C0.8 2.35, 1.03 2.65, 1.2 2.86 M1.2 2.86 C1.44 3.04, 1.68 3.22, 2 3.46 M1.2 2.86 C1.37 2.98, 1.54 3.11, 2 3.46 M2 3.46 C2.32 3.6, 2.64 3.74, 2.93 3.86 M2 3.46 C2.23 3.56, 2.47 3.66, 2.93 3.86 M2.93 3.86 C3.15 3.89, 3.37 3.92, 3.94 4.01 M2.93 3.86 C3.24 3.9, 3.55 3.95, 3.94 4.01 M3.94 4.01 C4.2 3.97, 4.46 3.94, 4.98 3.88 M3.94 4.01 C4.26 3.97, 4.58 3.93, 4.98 3.88 M4.98 3.88 C5.31 3.75, 5.64 3.61, 6 3.46 M4.98 3.88 C5.37 3.72, 5.77 3.56, 6 3.46 M6 3.46 C6.19 3.32, 6.37 3.18, 6.83 2.82 M6 3.46 C6.18 3.32, 6.37 3.18, 6.83 2.82 M6.83 2.82 C7.04 2.56, 7.24 2.29, 7.46 2 M6.83 2.82 C7.04 2.55, 7.25 2.29, 7.46 2 M7.46 2 C7.61 1.64, 7.76 1.29, 7.86 1.04 M7.46 2 C7.55 1.78, 7.64 1.57, 7.86 1.04 M7.86 1.04 C7.91 0.67, 7.96 0.29, 8 0 M7.86 1.04 C7.91 0.71, 7.95 0.38, 8 0 M8 0 C7.95 -0.34, 7.91 -0.69, 7.85 -1.1 M8 0 C7.96 -0.27, 7.93 -0.55, 7.85 -1.1 M7.85 -1.1 C7.71 -1.43, 7.56 -1.77, 7.44 -2.06 M7.85 -1.1 C7.69 -1.46, 7.53 -1.83, 7.44 -2.06 M7.44 -2.06 C7.27 -2.27, 7.1 -2.48, 6.8 -2.86 M7.44 -2.06 C7.2 -2.36, 6.96 -2.66, 6.8 -2.86 M6.8 -2.86 C6.62 -3, 6.43 -3.14, 6 -3.46 M6.8 -2.86 C6.6 -3.01, 6.39 -3.17, 6 -3.46 M6 -3.46 C5.68 -3.6, 5.35 -3.74, 5.07 -3.86 M6 -3.46 C5.64 -3.62, 5.29 -3.77, 5.07 -3.86 M5.07 -3.86 C4.74 -3.9, 4.42 -3.95, 4.06 -4.01 M5.07 -3.86 C4.75 -3.9, 4.43 -3.95, 4.06 -4.01 M4.06 -4.01 C3.78 -3.97, 3.49 -3.94, 3.02 -3.88 M4.06 -4.01 C3.85 -3.98, 3.64 -3.96, 3.02 -3.88 M3.02 -3.88 C2.63 -3.72, 2.25 -3.57, 2 -3.46 M3.02 -3.88 C2.78 -3.78, 2.53 -3.68, 2 -3.46 M2 -3.46 C1.77 -3.29, 1.55 -3.12, 1.17 -2.82 M2 -3.46 C1.79 -3.3, 1.58 -3.14, 1.17 -2.82 M1.17 -2.82 C0.97 -2.57, 0.78 -2.32, 0.54 -2 M1.17 -2.82 C0.95 -2.54, 0.73 -2.25, 0.54 -2 M0.54 -2 C0.39 -1.66, 0.25 -1.32, 0.14 -1.04 M0.54 -2 C0.41 -1.7, 0.29 -1.4, 0.14 -1.04 M0.14 -1.04 C0.1 -0.76, 0.06 -0.48, 0 0 M0.14 -1.04 C0.1 -0.76, 0.06 -0.48, 0 0 M0 0 C0 0, 0 0, 0 0 M0 0 C0 0, 0 0, 0 0" stroke="#000" stroke-width="2" fill="none"/></g></g><mask/><g stroke-linecap="round"><g transform="translate(546 161) rotate(0 -40.66894322883263 35.14847581916274)"><path d="M0 0 C0 15.56, 0 31.12, 0 70 M0 0 C0 17.39, 0 34.78, 0 70 M0 70 C-19.16 70.07, -38.32 70.14, -81.34 70.3 M0 70 C-22.37 70.08, -44.74 70.16, -81.34 70.3" stroke="#1e1e1e" stroke-width="2" fill="none"/></g></g><mask/><g stroke-linecap="round"><g transform="translate(546 393) rotate(0 -41 -37.5)"><path d="M0 0 C0 -21.8, 0 -43.6, 0 -75 M0 0 C0 -28.26, 0 -56.52, 0 -75 M0 -75 C-29.18 -75, -58.37 -75, -82 -75 M0 -75 C-27.67 -75, -55.33 -75, -82 -75" stroke="#1e1e1e" stroke-width="2" fill="none"/></g></g><mask/><g stroke-linecap="round"><g transform="translate(195 170) rotate(0 89.5 74)"><path d="M0 0 C0 6.18, 0 12.37, 0 28 M0 0 C0 9.51, 0 19.02, 0 28 M0 28 C49.51 61.19, 99.01 94.38, 179 148 M0 28 C45.05 58.2, 90.09 88.4, 179 148" stroke="#1e1e1e" stroke-width="2" fill="none"/></g></g><mask/><g stroke-linecap="round"><g transform="translate(195 383) rotate(0 90 -76)"><path d="M0 0 C0 -10.26, 0 -20.53, 0 -29 M0 0 C0 -6.57, 0 -13.15, 0 -29 M0 -29 C40.8 -56.88, 81.6 -84.76, 180 -152 M0 -29 C59.99 -69.99, 119.99 -110.99, 180 -152" stroke="#1e1e1e" stroke-width="2" fill="none"/></g></g><mask/><g transform="translate(31.217022445817634 18) rotate(0 23.4375 9.599999999999909)"><text x="0" y="15.45" font-family="Cascadia, Segoe UI Emoji" font-size="16px" fill="#1e1e1e" text-anchor="start" style="white-space: pre;" direction="ltr" dominant-baseline="alphabetic">CLK_A</text></g><g transform="translate(27.288037475927922 507.56647662419255) rotate(0 23.4375 9.599999999999909)"><text x="0" y="15.45" font-family="Cascadia, Segoe UI Emoji" font-size="16px" fill="#1e1e1e" text-anchor="start" style="white-space: pre;" direction="ltr" dominant-baseline="alphabetic">CLK_B</text></g><g transform="translate(10 248.24555476497744) rotate(0 14.0625 9.599999999999909)"><text x="0" y="15.45" font-family="Cascadia, Segoe UI Emoji" font-size="16px" fill="#1e1e1e" text-anchor="start" style="white-space: pre;" direction="ltr" dominant-baseline="alphabetic">sel</text></g><g stroke-linecap="round"><g transform="translate(265.43936743806387 32.29695163832548) rotate(0 10.111373052135434 46.5)"><path d="M0 0 C0 21.91, 0 43.81, 0 93 M0 0 C0 25.58, 0 51.15, 0 93 M0 93 C6.9 93, 13.8 93, 20.22 93 M0 93 C4.56 93, 9.13 93, 20.22 93" stroke="#1e1e1e" stroke-width="2" fill="none"/></g></g><mask/><g stroke-linecap="round"><g transform="translate(363.66211354233474 32.29695163832548) rotate(0 10.111373052135434 46.5)"><path d="M0 0 C0 33.1, 0 66.2, 0 93 M0 0 C0 31.38, 0 62.75, 0 93 M0 93 C5.44 93, 10.88 93, 20.22 93 M0 93 C4.1 93, 8.2 93, 20.22 93" stroke="#1e1e1e" stroke-width="2" fill="none"/></g></g><mask/><g stroke-linecap="round"><g transform="translate(264.66211354233474 521.2969516383255) rotate(0 10.111373052135434 -46.5)"><path d="M0 0 C0 -25.72, 0 -51.44, 0 -93 M0 0 C0 -23.4, 0 -46.81, 0 -93 M0 -93 C7.96 -93, 15.91 -93, 20.22 -93 M0 -93 C6.87 -93, 13.73 -93, 20.22 -93" stroke="#1e1e1e" stroke-width="2" fill="none"/></g></g><mask/><g stroke-linecap="round"><g transform="translate(363.66211354233474 521.2969516383255) rotate(0 10.111373052135434 -46.5)"><path d="M0 0 C0 -21.08, 0 -42.16, 0 -93 M0 0 C0 -31, 0 -61.99, 0 -93 M0 -93 C7.66 -93, 15.32 -93, 20.22 -93 M0 -93 C5.67 -93, 11.35 -93, 20.22 -93" stroke="#1e1e1e" stroke-width="2" fill="none"/></g></g><mask/><g stroke-linecap="round"><g transform="translate(550 32) rotate(0 25 54)"><path d="M0 0 C12.44 0, 24.88 0, 36 0 M0 0 C13.99 0, 27.99 0, 36 0 M36 0 C35.68 34.47, 35.36 68.95, 35 108 M36 0 C35.78 24.22, 35.55 48.44, 35 108 M35 108 C38.44 108, 41.88 108, 50 108 M35 108 C38.61 108, 42.23 108, 50 108" stroke="#1e1e1e" stroke-width="2" fill="none"/></g></g><mask/><g stroke-linecap="round"><g transform="translate(690 150) rotate(0 13.5 58.5)"><path d="M0 0 C9.66 0, 19.32 0, 27 0 M0 0 C7.13 0, 14.25 0, 27 0 M27 0 C27 32.07, 27 64.14, 27 117 M27 0 C27 46.56, 27 93.13, 27 117" stroke="#1e1e1e" stroke-width="2" fill="none"/></g></g><mask/><g stroke-linecap="round"><g transform="translate(550 522) rotate(0 25 -54)"><path d="M0 0 C7.57 0, 15.14 0, 36 0 M0 0 C14.4 0, 28.79 0, 36 0 M36 0 C35.64 -39.18, 35.27 -78.35, 35 -108 M36 0 C35.75 -27.28, 35.49 -54.55, 35 -108 M35 -108 C38.79 -108, 42.59 -108, 50 -108 M35 -108 C40.37 -108, 45.74 -108, 50 -108" stroke="#1e1e1e" stroke-width="2" fill="none"/></g></g><mask/><g stroke-linecap="round"><g transform="translate(690 404) rotate(0 13.5 -58)"><path d="M0 0 C6.1 0, 12.21 0, 27 0 M0 0 C7.02 0, 14.04 0, 27 0 M27 0 C27 -42.03, 27 -84.06, 27 -116 M27 0 C27 -36.78, 27 -73.55, 27 -116" stroke="#1e1e1e" stroke-width="2" fill="none"/></g></g><mask/><g stroke-linecap="round"><g transform="translate(883.0116604416385 277.3120723452489) rotate(0 7.921543121337891 0)"><path d="M0 0 C4.5 0, 8.99 0, 15.84 0 M0 0 C3.34 0, 6.69 0, 15.84 0" stroke="#000" stroke-width="2" fill="none"/></g></g><mask/><g stroke-linecap="round"><g transform="translate(833.0116604416385 277.3120723452489) rotate(0 -12 0)"><path d="M0 0 C-8.91 0, -17.82 0, -24 0 M0 0 C-4.82 0, -9.64 0, -24 0" stroke="#000" stroke-width="2" fill="none"/></g></g><mask/><g stroke-linecap="round"><g transform="translate(832.0116604416385 255.3120723452489) rotate(0 20.882646461663285 22.40625)"><path d="M0 0 C0 14.57, 0 29.14, 0 44.81 M0 0 C0 10.97, 0 21.94, 0 44.81 M0 44.81 C0.54 44.54, 1.08 44.26, 2.09 43.75 M0 44.81 C0.76 44.43, 1.51 44.04, 2.09 43.75 M2.09 43.75 C15.74 36.87, 29.4 29.98, 41.77 23.75 M2.09 43.75 C15.38 37.05, 28.68 30.34, 41.77 23.75 M41.77 23.75 C41.77 22.78, 41.77 21.81, 41.77 21.06 M41.77 23.75 C41.77 23.13, 41.77 22.51, 41.77 21.06 M41.77 21.06 C29.13 14.69, 16.5 8.33, 2.09 1.06 M41.77 21.06 C28.08 14.16, 14.39 7.26, 2.09 1.06 M2.09 1.06 C1.4 0.71, 0.72 0.37, 0 0 M2.09 1.06 C1.32 0.67, 0.55 0.28, 0 0 M0 0 C0 0, 0 0, 0 0 M0 0 C0 0, 0 0, 0 0" stroke="#1e1e1e" stroke-width="2" fill="none"/></g></g><mask/><g stroke-linecap="round"><g transform="translate(882.0116604416385 277.3120723452489) rotate(0 -4 0)"><path d="M0 0 C0 0, 0 0, 0 0 M0 0 C0 0, 0 0, 0 0 M0 0 C-0.04 0.3, -0.08 0.6, -0.15 1.1 M0 0 C-0.03 0.24, -0.07 0.48, -0.15 1.1 M-0.15 1.1 C-0.29 1.42, -0.43 1.75, -0.56 2.06 M-0.15 1.1 C-0.26 1.35, -0.37 1.61, -0.56 2.06 M-0.56 2.06 C-0.71 2.25, -0.87 2.44, -1.2 2.86 M-0.56 2.06 C-0.69 2.22, -0.82 2.38, -1.2 2.86 M-1.2 2.86 C-1.41 3.01, -1.62 3.17, -2 3.46 M-1.2 2.86 C-1.42 3.03, -1.65 3.2, -2 3.46 M-2 3.46 C-2.28 3.58, -2.56 3.7, -2.93 3.86 M-2 3.46 C-2.25 3.57, -2.5 3.68, -2.93 3.86 M-2.93 3.86 C-3.17 3.89, -3.41 3.93, -3.94 4.01 M-2.93 3.86 C-3.14 3.89, -3.36 3.92, -3.94 4.01 M-3.94 4.01 C-4.17 3.98, -4.39 3.95, -4.98 3.88 M-3.94 4.01 C-4.27 3.97, -4.6 3.93, -4.98 3.88 M-4.98 3.88 C-5.23 3.78, -5.48 3.68, -6 3.46 M-4.98 3.88 C-5.31 3.75, -5.64 3.61, -6 3.46 M-6 3.46 C-6.19 3.32, -6.37 3.18, -6.83 2.82 M-6 3.46 C-6.31 3.22, -6.63 2.98, -6.83 2.82 M-6.83 2.82 C-7.07 2.52, -7.3 2.22, -7.46 2 M-6.83 2.82 C-7.07 2.51, -7.31 2.2, -7.46 2 M-7.46 2 C-7.57 1.73, -7.68 1.47, -7.86 1.04 M-7.46 2 C-7.58 1.72, -7.7 1.44, -7.86 1.04 M-7.86 1.04 C-7.9 0.73, -7.94 0.43, -8 0 M-7.86 1.04 C-7.9 0.74, -7.94 0.44, -8 0 M-8 0 C-7.97 -0.23, -7.94 -0.46, -7.85 -1.1 M-8 0 C-7.96 -0.26, -7.93 -0.52, -7.85 -1.1 M-7.85 -1.1 C-7.76 -1.3, -7.68 -1.5, -7.44 -2.06 M-7.85 -1.1 C-7.74 -1.35, -7.64 -1.6, -7.44 -2.06 M-7.44 -2.06 C-7.19 -2.37, -6.94 -2.68, -6.8 -2.86 M-7.44 -2.06 C-7.3 -2.23, -7.16 -2.4, -6.8 -2.86 M-6.8 -2.86 C-6.56 -3.04, -6.31 -3.23, -6 -3.46 M-6.8 -2.86 C-6.59 -3.02, -6.38 -3.17, -6 -3.46 M-6 -3.46 C-5.76 -3.56, -5.53 -3.66, -5.07 -3.86 M-6 -3.46 C-5.68 -3.6, -5.37 -3.73, -5.07 -3.86 M-5.07 -3.86 C-4.8 -3.9, -4.53 -3.94, -4.06 -4.01 M-5.07 -3.86 C-4.73 -3.91, -4.39 -3.96, -4.06 -4.01 M-4.06 -4.01 C-3.68 -3.96, -3.29 -3.91, -3.02 -3.88 M-4.06 -4.01 C-3.69 -3.96, -3.32 -3.92, -3.02 -3.88 M-3.02 -3.88 C-2.63 -3.72, -2.24 -3.56, -2 -3.46 M-3.02 -3.88 C-2.71 -3.76, -2.4 -3.63, -2 -3.46 M-2 -3.46 C-1.69 -3.22, -1.38 -2.98, -1.17 -2.82 M-2 -3.46 C-1.72 -3.25, -1.44 -3.03, -1.17 -2.82 M-1.17 -2.82 C-1.01 -2.62, -0.85 -2.41, -0.54 -2 M-1.17 -2.82 C-1.01 -2.61, -0.84 -2.4, -0.54 -2 M-0.54 -2 C-0.44 -1.77, -0.34 -1.54, -0.14 -1.04 M-0.54 -2 C-0.39 -1.65, -0.25 -1.3, -0.14 -1.04 M-0.14 -1.04 C-0.1 -0.77, -0.07 -0.49, 0 0 M-0.14 -1.04 C-0.1 -0.78, -0.07 -0.52, 0 0 M0 0 C0 0, 0 0, 0 0 M0 0 C0 0, 0 0, 0 0" stroke="#000" stroke-width="2" fill="none"/></g></g><mask/></svg>