<svg version="1.1" xmlns="http://www.w3.org/2000/svg" viewBox="0 0 900 399" width="900" height="399" class="excalidraw-svg">
  <!-- svg-source:excalidraw -->
  
  <defs>
    <style class="style-fonts">
      @font-face {
        font-family: "Virgil";
        src: url("https://excalidraw.com/Virgil.woff2");
      }
      @font-face {
        font-family: "Cascadia";
        src: url("https://excalidraw.com/Cascadia.woff2");
      }
      @font-face {
        font-family: "Assistant";
        src: url("https://excalidraw.com/Assistant-Regular.woff2");
      }
    </style>
    
  </defs>
  <rect x="0" y="0" width="900" height="399" fill="#ffffff"/><g stroke-linecap="round"><g transform="translate(280 30) rotate(0 -35.319999999999936 176.60000000000002)"><path d="M0 0 C-5.89 5.89, -29.43 11.77, -35.32 35.32 C-41.21 58.87, -29.43 117.73, -35.32 141.28 C-41.21 164.83, -70.64 164.83, -70.64 176.6 C-70.64 188.37, -41.21 188.37, -35.32 211.92 C-29.43 235.47, -41.21 294.33, -35.32 317.88 C-29.43 341.43, -5.89 347.31, 0 353.2 M0 0 C-5.89 5.89, -29.43 11.77, -35.32 35.32 C-41.21 58.87, -29.43 117.73, -35.32 141.28 C-41.21 164.83, -70.64 164.83, -70.64 176.6 C-70.64 188.37, -41.21 188.37, -35.32 211.92 C-29.43 235.47, -41.21 294.33, -35.32 317.88 C-29.43 341.43, -5.89 347.31, 0 353.2" stroke="#000000" stroke-width="2" fill="none"/></g></g><mask/><g stroke-linecap="round"><g transform="translate(440 90) rotate(0 100 -40)"><path d="M0 0 C11.34 0, 22.68 0, 50 0 M0 0 C19.7 0, 39.41 0, 50 0 M50 0 C50 -20.02, 50 -40.04, 50 -80 M50 0 C50 -22.06, 50 -44.12, 50 -80 M50 -80 C71.43 -80, 92.85 -80, 150 -80 M50 -80 C76.16 -80, 102.32 -80, 150 -80 M150 -80 C150 -49.71, 150 -19.42, 150 0 M150 -80 C150 -57, 150 -34, 150 0 M150 0 C160.86 0, 171.72 0, 200 0 M150 0 C168.84 0, 187.69 0, 200 0" stroke="#1e1e1e" stroke-width="2" fill="none"/></g></g><mask/><g stroke-linecap="round"><g transform="translate(640 90) rotate(0 100 -40)"><path d="M0 0 C11.78 0, 23.56 0, 50 0 M0 0 C13.09 0, 26.17 0, 50 0 M50 0 C50 -20.04, 50 -40.08, 50 -80 M50 0 C50 -19.76, 50 -39.51, 50 -80 M50 -80 C73.81 -80, 97.62 -80, 150 -80 M50 -80 C75.68 -80, 101.36 -80, 150 -80 M150 -80 C150 -63.27, 150 -46.54, 150 0 M150 -80 C150 -58.89, 150 -37.77, 150 0 M150 0 C160.66 0, 171.32 0, 200 0 M150 0 C165.17 0, 180.34 0, 200 0" stroke="#1e1e1e" stroke-width="2" fill="none"/></g></g><mask/><g stroke-linecap="round"><g transform="translate(440 120) rotate(0 195 35)"><path d="M0 0 C27.19 0, 54.37 0, 110 0 M0 0 C37.36 0, 74.71 0, 110 0 M110 0 C110 14.52, 110 29.04, 110 70 M110 0 C110 23.37, 110 46.74, 110 70 M110 70 C176.46 70, 242.91 70, 390 70 M110 70 C205.32 70, 300.63 70, 390 70" stroke="#1e1e1e" stroke-width="2" fill="none"/></g></g><mask/><g stroke-linecap="round"><g transform="translate(440 219) rotate(0 225 35)"><path d="M0 0 C63.82 0, 127.63 0, 161 0 M0 0 C63.2 0, 126.39 0, 161 0 M161 0 C161 23.48, 161 46.95, 161 69 M161 0 C161 16.11, 161 32.22, 161 69 M161 69 C224.98 69.22, 288.97 69.44, 450 70 M161 69 C270.19 69.38, 379.39 69.76, 450 70" stroke="#1e1e1e" stroke-width="2" fill="none"/></g></g><mask/><g stroke-linecap="round"><g transform="translate(440 389) rotate(0 100 -40)"><path d="M0 0 C17.06 0, 34.12 0, 50 0 M0 0 C12.27 0, 24.55 0, 50 0 M50 0 C50 -16.48, 50 -32.96, 50 -80 M50 0 C50 -21.14, 50 -42.28, 50 -80 M50 -80 C88.19 -80, 126.38 -80, 150 -80 M50 -80 C89.77 -80, 129.55 -80, 150 -80 M150 -80 C150 -54.43, 150 -28.85, 150 0 M150 -80 C150 -61.24, 150 -42.47, 150 0 M150 0 C164.84 0, 179.67 0, 200 0 M150 0 C161.92 0, 173.83 0, 200 0" stroke="#1e1e1e" stroke-width="2" fill="none"/></g></g><mask/><g transform="translate(318.22398376464844 30) rotate(0 52.734375 21.599999999999994)"><text x="0" y="34.762499999999996" font-family="Cascadia, Segoe UI Emoji" font-size="36px" fill="#1e1e1e" text-anchor="start" style="white-space: pre;" direction="ltr" dominant-baseline="alphabetic">CLK_A</text></g><g transform="translate(368.7679901123047 130) rotate(0 42.1875 21.599999999999994)"><text x="0" y="34.762499999999996" font-family="Cascadia, Segoe UI Emoji" font-size="36px" fill="#1e1e1e" text-anchor="start" style="white-space: pre;" direction="ltr" dominant-baseline="alphabetic">!sel</text></g><g transform="translate(290 220) rotate(0 73.828125 21.600000000000023)"><text x="0" y="34.762499999999996" font-family="Cascadia, Segoe UI Emoji" font-size="36px" fill="#1e1e1e" text-anchor="start" style="white-space: pre;" direction="ltr" dominant-baseline="alphabetic">sampled</text></g><g transform="translate(366.17596435546875 340) rotate(0 31.640625 21.600000000000023)"><text x="0" y="34.762499999999996" font-family="Cascadia, Segoe UI Emoji" font-size="36px" fill="#1e1e1e" text-anchor="start" style="white-space: pre;" direction="ltr" dominant-baseline="alphabetic">and</text></g><g stroke-linecap="round"><g transform="translate(640 389) rotate(0 100 -40)"><path d="M0 0 C16.31 0, 32.61 0, 50 0 M0 0 C13.95 0, 27.91 0, 50 0 M50 0 C50 -18.14, 50 -36.28, 50 -80 M50 0 C50 -24.8, 50 -49.6, 50 -80 M50 -80 C83.25 -80, 116.5 -80, 150 -80 M50 -80 C83.59 -80, 117.18 -80, 150 -80 M150 -80 C150 -58.54, 150 -37.08, 150 0 M150 -80 C150 -50.92, 150 -21.83, 150 0 M150 0 C161.29 0, 172.59 0, 200 0 M150 0 C164.22 0, 178.43 0, 200 0" stroke="#1e1e1e" stroke-width="2" fill="none"/></g></g><mask/><g transform="translate(10 179) rotate(0 90 22.5)"><text x="0" y="36.720703125" font-family="&quot;LXGW WenKai&quot;" font-size="36px" fill="#1971c2" text-anchor="start" style="white-space: pre;" direction="ltr" dominant-baseline="alphabetic">下降沿触发</text></g></svg>