<svg version="1.1" xmlns="http://www.w3.org/2000/svg" viewBox="0 0 1544 460" width="1544" height="460" class="excalidraw-svg">
  <!-- svg-source:excalidraw -->
  
  <defs>
    <style class="style-fonts">
      @font-face {
        font-family: "Virgil";
        src: url("https://excalidraw.com/Virgil.woff2");
      }
      @font-face {
        font-family: "Cascadia";
        src: url("https://excalidraw.com/Cascadia.woff2");
      }
      @font-face {
        font-family: "Assistant";
        src: url("https://excalidraw.com/Assistant-Regular.woff2");
      }
    </style>
    
  </defs>
  <rect x="0" y="0" width="1544" height="460" fill="#ffffff"/><g stroke-linecap="round"><g transform="translate(274 90) rotate(0 -35.319999999999936 176.6)"><path d="M0 0 C-5.89 5.89, -29.43 11.77, -35.32 35.32 C-41.21 58.87, -29.43 117.73, -35.32 141.28 C-41.21 164.83, -70.64 164.83, -70.64 176.6 C-70.64 188.37, -41.21 188.37, -35.32 211.92 C-29.43 235.47, -41.21 294.33, -35.32 317.88 C-29.43 341.43, -5.89 347.31, 0 353.2 M0 0 C-5.89 5.89, -29.43 11.77, -35.32 35.32 C-41.21 58.87, -29.43 117.73, -35.32 141.28 C-41.21 164.83, -70.64 164.83, -70.64 176.6 C-70.64 188.37, -41.21 188.37, -35.32 211.92 C-29.43 235.47, -41.21 294.33, -35.32 317.88 C-29.43 341.43, -5.89 347.31, 0 353.2" stroke="#000000" stroke-width="2" fill="none"/></g></g><mask/><g stroke-linecap="round"><g transform="translate(434 150) rotate(0 100 -40)"><path d="M0 0 C12.66 0, 25.33 0, 50 0 M0 0 C19.88 0, 39.76 0, 50 0 M50 0 C50 -30.12, 50 -60.24, 50 -80 M50 0 C50 -23.61, 50 -47.23, 50 -80 M50 -80 C72.13 -80, 94.25 -80, 150 -80 M50 -80 C80.77 -80, 111.54 -80, 150 -80 M150 -80 C150 -50.53, 150 -21.06, 150 0 M150 -80 C150 -50.73, 150 -21.46, 150 0 M150 0 C166.57 0, 183.14 0, 200 0 M150 0 C163.45 0, 176.9 0, 200 0" stroke="#1e1e1e" stroke-width="2" fill="none"/></g></g><mask/><g stroke-linecap="round"><g transform="translate(634 150) rotate(0 100 -40)"><path d="M0 0 C18.76 0, 37.51 0, 50 0 M0 0 C14.03 0, 28.06 0, 50 0 M50 0 C50 -30.06, 50 -60.11, 50 -80 M50 0 C50 -21.76, 50 -43.52, 50 -80 M50 -80 C88.06 -80, 126.13 -80, 150 -80 M50 -80 C81.04 -80, 112.08 -80, 150 -80 M150 -80 C150 -58.64, 150 -37.29, 150 0 M150 -80 C150 -50.71, 150 -21.43, 150 0 M150 0 C169.87 0, 189.74 0, 200 0 M150 0 C163.76 0, 177.51 0, 200 0" stroke="#1e1e1e" stroke-width="2" fill="none"/></g></g><mask/><g stroke-linecap="round"><g transform="translate(434 180) rotate(0 195 35)"><path d="M0 0 C45.46 0, 90.91 0, 210 0 M0 0 C82.12 0, 164.24 0, 210 0 M210 0 C210 25, 210 50, 210 70 M210 0 C210 26.3, 210 52.6, 210 70 M210 70 C246.66 70, 283.32 70, 390 70 M210 70 C272.5 70, 335 70, 390 70" stroke="#1e1e1e" stroke-width="2" fill="none"/></g></g><mask/><g stroke-linecap="round"><g transform="translate(434 270) rotate(0 225 35)"><path d="M0 0 C72.24 0, 144.47 0, 270 0 M0 0 C73.28 0, 146.57 0, 270 0 M270 0 C270 26.87, 270 53.74, 270 70 M270 0 C270 20.08, 270 40.17, 270 70 M270 70 C329.27 70, 388.54 70, 450 70 M270 70 C339.1 70, 408.2 70, 450 70" stroke="#1e1e1e" stroke-width="2" fill="none"/></g></g><mask/><g stroke-linecap="round"><g transform="translate(434 450) rotate(0 100 -40)"><path d="M0 0 C14.91 0, 29.83 0, 50 0 M0 0 C11.81 0, 23.62 0, 50 0 M50 0 C50 -21.63, 50 -43.26, 50 -80 M50 0 C50 -18.91, 50 -37.82, 50 -80 M50 -80 C81.97 -80, 113.95 -80, 150 -80 M50 -80 C71.44 -80, 92.88 -80, 150 -80 M150 -80 C150 -52.55, 150 -25.1, 150 0 M150 -80 C150 -61.71, 150 -43.42, 150 0 M150 0 C169.13 0, 188.26 0, 200 0 M150 0 C169.69 0, 189.37 0, 200 0" stroke="#1e1e1e" stroke-width="2" fill="none"/></g></g><mask/><g stroke-linecap="round"><g transform="translate(634 450) rotate(0 100 -40)"><path d="M0 0 C10.56 0, 21.12 0, 50 0 M0 0 C13.43 0, 26.86 0, 50 0 M50 0 C50 -26.86, 50 -53.72, 50 -80 M50 0 C50 -16.14, 50 -32.29, 50 -80 M50 -80 C56.27 -80, 62.55 -80, 70 -80 M50 -80 C57.15 -80, 64.31 -80, 70 -80 M70 -80 C70 -61.95, 70 -43.9, 70 0 M70 -80 C70 -52.24, 70 -24.49, 70 0 M70 0 C102.53 0, 135.06 0, 200 0 M70 0 C100.33 0, 130.66 0, 200 0" stroke="#1e1e1e" stroke-width="2" fill="none"/></g></g><mask/><g transform="translate(312.22398376464844 90) rotate(0 52.734375 21.599999999999994)"><text x="0" y="34.762499999999996" font-family="Cascadia, Segoe UI Emoji" font-size="36px" fill="#1e1e1e" text-anchor="start" style="white-space: pre;" direction="ltr" dominant-baseline="alphabetic">CLK_A</text></g><g transform="translate(362.7679901123047 190) rotate(0 42.1875 21.599999999999998)"><text x="0" y="34.762499999999996" font-family="Cascadia, Segoe UI Emoji" font-size="36px" fill="#1e1e1e" text-anchor="start" style="white-space: pre;" direction="ltr" dominant-baseline="alphabetic">!sel</text></g><g transform="translate(284 280) rotate(0 73.828125 21.599999999999994)"><text x="0" y="34.762499999999996" font-family="Cascadia, Segoe UI Emoji" font-size="36px" fill="#1e1e1e" text-anchor="start" style="white-space: pre;" direction="ltr" dominant-baseline="alphabetic">sampled</text></g><g transform="translate(360.17596435546875 400) rotate(0 31.640625 21.599999999999994)"><text x="0" y="34.762499999999996" font-family="Cascadia, Segoe UI Emoji" font-size="36px" fill="#1e1e1e" text-anchor="start" style="white-space: pre;" direction="ltr" dominant-baseline="alphabetic">and</text></g><g stroke-linecap="round"><g transform="translate(1084 150) rotate(0 100 -40)"><path d="M0 0 C11.73 0, 23.45 0, 50 0 M0 0 C13.61 0, 27.21 0, 50 0 M50 0 C50 -19.75, 50 -39.5, 50 -80 M50 0 C50 -23.2, 50 -46.41, 50 -80 M50 -80 C70.16 -80, 90.31 -80, 150 -80 M50 -80 C71.18 -80, 92.37 -80, 150 -80 M150 -80 C150 -59.44, 150 -38.88, 150 0 M150 -80 C150 -60.27, 150 -40.55, 150 0 M150 0 C164.6 0, 179.19 0, 200 0 M150 0 C164.24 0, 178.48 0, 200 0" stroke="#1e1e1e" stroke-width="2" fill="none"/></g></g><mask/><g stroke-linecap="round"><g transform="translate(1284 150) rotate(0 100 -40)"><path d="M0 0 C18.13 0, 36.26 0, 50 0 M0 0 C13.42 0, 26.84 0, 50 0 M50 0 C50 -17.7, 50 -35.39, 50 -80 M50 0 C50 -27.52, 50 -55.03, 50 -80 M50 -80 C86.78 -80, 123.55 -80, 150 -80 M50 -80 C78.62 -80, 107.24 -80, 150 -80 M150 -80 C150 -50.44, 150 -20.88, 150 0 M150 -80 C150 -61.48, 150 -42.97, 150 0 M150 0 C163.35 0, 176.7 0, 200 0 M150 0 C169.72 0, 189.44 0, 200 0" stroke="#1e1e1e" stroke-width="2" fill="none"/></g></g><mask/><g stroke-linecap="round"><g transform="translate(1084 180) rotate(0 195 35)"><path d="M0 0 C79.33 0, 158.66 0, 210 0 M0 0 C74.88 0, 149.75 0, 210 0 M210 0 C210 16.01, 210 32.01, 210 70 M210 0 C210 15.86, 210 31.72, 210 70 M210 70 C264.62 70, 319.24 70, 390 70 M210 70 C263.14 70, 316.28 70, 390 70" stroke="#1e1e1e" stroke-width="2" fill="none"/></g></g><mask/><g stroke-linecap="round"><g transform="translate(1084 270) rotate(0 225 35)"><path d="M0 0 C103.63 0, 207.27 0, 270 0 M0 0 C64.69 0, 129.37 0, 270 0 M270 0 C270 26.47, 270 52.93, 270 70 M270 0 C270 24.31, 270 48.62, 270 70 M270 70 C307.18 70, 344.36 70, 450 70 M270 70 C310.61 70, 351.22 70, 450 70" stroke="#1e1e1e" stroke-width="2" fill="none"/></g></g><mask/><g stroke-linecap="round"><g transform="translate(1084 450) rotate(0 100 -40)"><path d="M0 0 C12.6 0, 25.2 0, 50 0 M0 0 C17.74 0, 35.47 0, 50 0 M50 0 C50 -19.64, 50 -39.28, 50 -80 M50 0 C50 -27.1, 50 -54.2, 50 -80 M50 -80 C75.61 -80, 101.23 -80, 150 -80 M50 -80 C81.7 -80, 113.41 -80, 150 -80 M150 -80 C150 -60.68, 150 -41.36, 150 0 M150 -80 C150 -50.78, 150 -21.55, 150 0 M150 0 C164.91 0, 179.81 0, 200 0 M150 0 C166.09 0, 182.19 0, 200 0" stroke="#1e1e1e" stroke-width="2" fill="none"/></g></g><mask/><g stroke-linecap="round"><g transform="translate(1284 450) rotate(0 100 -40)"><path d="M0 0 C12.71 0, 25.42 0, 50 0 M0 0 C11.28 0, 22.57 0, 50 0 M50 0 C50 -20.73, 50 -41.46, 50 -80 M50 0 C50 -25.15, 50 -50.3, 50 -80 M50 -80 C55.55 -80, 61.1 -80, 70 -80 M50 -80 C56.62 -80, 63.24 -80, 70 -80 M70 -80 C70 -62.33, 70 -44.66, 70 0 M70 -80 C70 -56.98, 70 -33.97, 70 0 M70 0 C100.58 0, 131.16 0, 200 0 M70 0 C107.14 0, 144.28 0, 200 0" stroke="#1e1e1e" stroke-width="2" fill="none"/></g></g><mask/><g transform="translate(962.2239837646484 90) rotate(0 52.734375 21.599999999999994)"><text x="0" y="34.762499999999996" font-family="Cascadia, Segoe UI Emoji" font-size="36px" fill="#1e1e1e" text-anchor="start" style="white-space: pre;" direction="ltr" dominant-baseline="alphabetic">CLK_B</text></g><g transform="translate(1012.7679901123047 190) rotate(0 31.640625 21.599999999999998)"><text x="0" y="34.762499999999996" font-family="Cascadia, Segoe UI Emoji" font-size="36px" fill="#1e1e1e" text-anchor="start" style="white-space: pre;" direction="ltr" dominant-baseline="alphabetic">sel</text></g><g transform="translate(934 280) rotate(0 73.828125 21.599999999999994)"><text x="0" y="34.762499999999996" font-family="Cascadia, Segoe UI Emoji" font-size="36px" fill="#1e1e1e" text-anchor="start" style="white-space: pre;" direction="ltr" dominant-baseline="alphabetic">sampled</text></g><g transform="translate(1010.1759643554688 400) rotate(0 31.640625 21.599999999999994)"><text x="0" y="34.762499999999996" font-family="Cascadia, Segoe UI Emoji" font-size="36px" fill="#1e1e1e" text-anchor="start" style="white-space: pre;" direction="ltr" dominant-baseline="alphabetic">and</text></g><g transform="translate(554 10) rotate(0 42.1875 21.599999999999994)"><text x="0" y="34.762499999999996" font-family="Cascadia, Segoe UI Emoji" font-size="36px" fill="#1e1e1e" text-anchor="start" style="white-space: pre;" direction="ltr" dominant-baseline="alphabetic">A-&gt;B</text></g><g transform="translate(1234 10) rotate(0 42.1875 21.599999999999994)"><text x="0" y="34.762499999999996" font-family="Cascadia, Segoe UI Emoji" font-size="36px" fill="#1e1e1e" text-anchor="start" style="white-space: pre;" direction="ltr" dominant-baseline="alphabetic">B-&gt;A</text></g><g transform="translate(10 250) rotate(0 90 22.5)"><text x="0" y="36.720703125" font-family="&quot;LXGW WenKai&quot;" font-size="36px" fill="#1971c2" text-anchor="start" style="white-space: pre;" direction="ltr" dominant-baseline="alphabetic">上升沿触发</text></g></svg>